<?xml version="1.0" encoding="utf-8" standalone="no"?>
<!DOCTYPE svg PUBLIC "-//W3C//DTD SVG 1.1//EN"
  "http://www.w3.org/Graphics/SVG/1.1/DTD/svg11.dtd">
<svg xmlns:xlink="http://www.w3.org/1999/xlink" width="483.95113pt" height="471.032223pt" viewBox="0 0 483.95113 471.032223" xmlns="http://www.w3.org/2000/svg" version="1.1">
 <metadata>
  <rdf:RDF xmlns:dc="http://purl.org/dc/elements/1.1/" xmlns:cc="http://creativecommons.org/ns#" xmlns:rdf="http://www.w3.org/1999/02/22-rdf-syntax-ns#">
   <cc:Work>
    <dc:type rdf:resource="http://purl.org/dc/dcmitype/StillImage"/>
    <dc:date>2025-10-14T13:04:14.318219</dc:date>
    <dc:format>image/svg+xml</dc:format>
    <dc:creator>
     <cc:Agent>
      <dc:title>Matplotlib v3.6.3, https://matplotlib.org/</dc:title>
     </cc:Agent>
    </dc:creator>
   </cc:Work>
  </rdf:RDF>
 </metadata>
 <defs>
  <style type="text/css">*{stroke-linejoin: round; stroke-linecap: butt}</style>
 </defs>
 <g id="figure_1">
  <g id="patch_1">
   <path d="M 0 471.032223 
L 483.95113 471.032223 
L 483.95113 0 
L 0 0 
z
" style="fill: #ffffff"/>
  </g>
  <g id="axes_1">
   <g id="patch_2">
    <path d="M 20.878125 450.154098 
L 463.832223 450.154098 
L 463.832223 7.2 
L 20.878125 7.2 
z
" style="fill: #ffffff"/>
   </g>
   <g id="line2d_1">
    <path d="M 242.355174 117.938524 
L 316.180857 228.677049 
" clip-path="url(#pd75fcb9ce0)" style="fill: none; stroke-dasharray: 5.55,2.4; stroke-dashoffset: 0; stroke: #000000; stroke-opacity: 0.8; stroke-width: 1.5"/>
   </g>
   <g id="line2d_2">
    <path d="M 242.355174 339.415573 
L 316.180857 228.677049 
" clip-path="url(#pd75fcb9ce0)" style="fill: none; stroke-dasharray: 5.55,2.4; stroke-dashoffset: 0; stroke: #000000; stroke-opacity: 0.8; stroke-width: 1.5"/>
   </g>
   <g id="matplotlib.axis_1">
    <g id="xtick_1">
     <g id="line2d_3">
      <path d="M 20.878125 450.154098 
L 20.878125 7.2 
" clip-path="url(#pd75fcb9ce0)" style="fill: none; stroke: #b0b0b0; stroke-width: 0.8; stroke-linecap: square"/>
     </g>
    </g>
    <g id="xtick_2">
     <g id="line2d_4">
      <path d="M 94.703808 450.154098 
L 94.703808 7.2 
" clip-path="url(#pd75fcb9ce0)" style="fill: none; stroke: #b0b0b0; stroke-width: 0.8; stroke-linecap: square"/>
     </g>
    </g>
    <g id="xtick_3">
     <g id="line2d_5">
      <path d="M 168.529491 450.154098 
L 168.529491 7.2 
" clip-path="url(#pd75fcb9ce0)" style="fill: none; stroke: #b0b0b0; stroke-width: 0.8; stroke-linecap: square"/>
     </g>
    </g>
    <g id="xtick_4">
     <g id="line2d_6">
      <path d="M 242.355174 450.154098 
L 242.355174 7.2 
" clip-path="url(#pd75fcb9ce0)" style="fill: none; stroke: #b0b0b0; stroke-width: 0.8; stroke-linecap: square"/>
     </g>
    </g>
    <g id="xtick_5">
     <g id="line2d_7">
      <path d="M 316.180857 450.154098 
L 316.180857 7.2 
" clip-path="url(#pd75fcb9ce0)" style="fill: none; stroke: #b0b0b0; stroke-width: 0.8; stroke-linecap: square"/>
     </g>
    </g>
    <g id="xtick_6">
     <g id="line2d_8">
      <path d="M 390.00654 450.154098 
L 390.00654 7.2 
" clip-path="url(#pd75fcb9ce0)" style="fill: none; stroke: #b0b0b0; stroke-width: 0.8; stroke-linecap: square"/>
     </g>
    </g>
    <g id="xtick_7">
     <g id="line2d_9">
      <path d="M 463.832223 450.154098 
L 463.832223 7.2 
" clip-path="url(#pd75fcb9ce0)" style="fill: none; stroke: #b0b0b0; stroke-width: 0.8; stroke-linecap: square"/>
     </g>
    </g>
    <g id="text_1">
     <!-- x -->
     <g transform="translate(239.395799 461.752535) scale(0.1 -0.1)">
      <defs>
       <path id="DejaVuSans-78" d="M 3513 3500 
L 2247 1797 
L 3578 0 
L 2900 0 
L 1881 1375 
L 863 0 
L 184 0 
L 1544 1831 
L 300 3500 
L 978 3500 
L 1906 2253 
L 2834 3500 
L 3513 3500 
z
" transform="scale(0.015625)"/>
      </defs>
      <use xlink:href="#DejaVuSans-78"/>
     </g>
    </g>
   </g>
   <g id="matplotlib.axis_2">
    <g id="ytick_1">
     <g id="line2d_10">
      <path d="M 20.878125 450.154098 
L 463.832223 450.154098 
" clip-path="url(#pd75fcb9ce0)" style="fill: none; stroke: #b0b0b0; stroke-width: 0.8; stroke-linecap: square"/>
     </g>
    </g>
    <g id="ytick_2">
     <g id="line2d_11">
      <path d="M 20.878125 376.328415 
L 463.832223 376.328415 
" clip-path="url(#pd75fcb9ce0)" style="fill: none; stroke: #b0b0b0; stroke-width: 0.8; stroke-linecap: square"/>
     </g>
    </g>
    <g id="ytick_3">
     <g id="line2d_12">
      <path d="M 20.878125 302.502732 
L 463.832223 302.502732 
" clip-path="url(#pd75fcb9ce0)" style="fill: none; stroke: #b0b0b0; stroke-width: 0.8; stroke-linecap: square"/>
     </g>
    </g>
    <g id="ytick_4">
     <g id="line2d_13">
      <path d="M 20.878125 228.677049 
L 463.832223 228.677049 
" clip-path="url(#pd75fcb9ce0)" style="fill: none; stroke: #b0b0b0; stroke-width: 0.8; stroke-linecap: square"/>
     </g>
    </g>
    <g id="ytick_5">
     <g id="line2d_14">
      <path d="M 20.878125 154.851366 
L 463.832223 154.851366 
" clip-path="url(#pd75fcb9ce0)" style="fill: none; stroke: #b0b0b0; stroke-width: 0.8; stroke-linecap: square"/>
     </g>
    </g>
    <g id="ytick_6">
     <g id="line2d_15">
      <path d="M 20.878125 81.025683 
L 463.832223 81.025683 
" clip-path="url(#pd75fcb9ce0)" style="fill: none; stroke: #b0b0b0; stroke-width: 0.8; stroke-linecap: square"/>
     </g>
    </g>
    <g id="ytick_7">
     <g id="line2d_16">
      <path d="M 20.878125 7.2 
L 463.832223 7.2 
" clip-path="url(#pd75fcb9ce0)" style="fill: none; stroke: #b0b0b0; stroke-width: 0.8; stroke-linecap: square"/>
     </g>
    </g>
    <g id="text_2">
     <!-- y -->
     <g transform="translate(14.798438 231.636424) rotate(-90) scale(0.1 -0.1)">
      <defs>
       <path id="DejaVuSans-79" d="M 2059 -325 
Q 1816 -950 1584 -1140 
Q 1353 -1331 966 -1331 
L 506 -1331 
L 506 -850 
L 844 -850 
Q 1081 -850 1212 -737 
Q 1344 -625 1503 -206 
L 1606 56 
L 191 3500 
L 800 3500 
L 1894 763 
L 2988 3500 
L 3597 3500 
L 2059 -325 
z
" transform="scale(0.015625)"/>
      </defs>
      <use xlink:href="#DejaVuSans-79"/>
     </g>
    </g>
   </g>
   <g id="Quiver_1">
    <path d="M 317.102257 228.062782 
L 378.672228 320.417738 
L 379.593628 315.810737 
L 383.279229 329.324607 
L 372.222426 320.724872 
L 376.829427 321.646272 
L 315.259457 229.291316 
L 317.102257 228.062782 
" clip-path="url(#pd75fcb9ce0)" style="fill: #d62728"/>
   </g>
   <g id="Quiver_2">
    <path d="M 315.259457 228.062782 
L 376.829427 135.707826 
L 372.222426 136.629226 
L 383.279229 128.029491 
L 379.593628 141.54336 
L 378.672228 136.936359 
L 317.102257 229.291316 
L 315.259457 228.062782 
" clip-path="url(#pd75fcb9ce0)" style="fill: #d62728"/>
   </g>
   <g id="Quiver_3">
    <path d="M 316.180857 229.784434 
L 280.788824 229.784434 
L 284.11098 233.10659 
L 270.822357 228.677049 
L 284.11098 224.247508 
L 280.788824 227.569664 
L 316.180857 227.569664 
L 316.180857 229.784434 
" clip-path="url(#pd75fcb9ce0)" style="fill: #1f77b4"/>
   </g>
   <g id="Quiver_4">
    <path d="M 316.180857 227.569664 
L 395.052634 227.569664 
L 391.730479 224.247508 
L 405.019101 228.677049 
L 391.730479 233.10659 
L 395.052634 229.784434 
L 316.180857 229.784434 
L 316.180857 227.569664 
" clip-path="url(#pd75fcb9ce0)" style="fill: #2ca02c"/>
   </g>
   <g id="PathCollection_1">
    <defs>
     <path id="mb9d3ebf444" d="M 0 5 
C 1.326016 5 2.597899 4.473168 3.535534 3.535534 
C 4.473168 2.597899 5 1.326016 5 0 
C 5 -1.326016 4.473168 -2.597899 3.535534 -3.535534 
C 2.597899 -4.473168 1.326016 -5 0 -5 
C -1.326016 -5 -2.597899 -4.473168 -3.535534 -3.535534 
C -4.473168 -2.597899 -5 -1.326016 -5 0 
C -5 1.326016 -4.473168 2.597899 -3.535534 3.535534 
C -2.597899 4.473168 -1.326016 5 0 5 
z
" style="stroke: #d62728"/>
    </defs>
    <g clip-path="url(#pd75fcb9ce0)">
     <use xlink:href="#mb9d3ebf444" x="242.355174" y="117.938524" style="fill: #d62728; stroke: #d62728"/>
    </g>
   </g>
   <g id="PathCollection_2">
    <g clip-path="url(#pd75fcb9ce0)">
     <use xlink:href="#mb9d3ebf444" x="242.355174" y="339.415573" style="fill: #d62728; stroke: #d62728"/>
    </g>
   </g>
   <g id="PathCollection_3">
    <defs>
     <path id="m5b3442baa4" d="M 0 5 
C 1.326016 5 2.597899 4.473168 3.535534 3.535534 
C 4.473168 2.597899 5 1.326016 5 0 
C 5 -1.326016 4.473168 -2.597899 3.535534 -3.535534 
C 2.597899 -4.473168 1.326016 -5 0 -5 
C -1.326016 -5 -2.597899 -4.473168 -3.535534 -3.535534 
C -4.473168 -2.597899 -5 -1.326016 -5 0 
C -5 1.326016 -4.473168 2.597899 -3.535534 3.535534 
C -2.597899 4.473168 -1.326016 5 0 5 
z
" style="stroke: #1f77b4"/>
    </defs>
    <g clip-path="url(#pd75fcb9ce0)">
     <use xlink:href="#m5b3442baa4" x="131.616649" y="228.677049" style="fill: #1f77b4; stroke: #1f77b4"/>
    </g>
   </g>
   <g id="PathCollection_4">
    <defs>
     <path id="m9c00b9b8dd" d="M 0 3.535534 
C 0.937635 3.535534 1.836992 3.163008 2.5 2.5 
C 3.163008 1.836992 3.535534 0.937635 3.535534 0 
C 3.535534 -0.937635 3.163008 -1.836992 2.5 -2.5 
C 1.836992 -3.163008 0.937635 -3.535534 0 -3.535534 
C -0.937635 -3.535534 -1.836992 -3.163008 -2.5 -2.5 
C -3.163008 -1.836992 -3.535534 -0.937635 -3.535534 0 
C -3.535534 0.937635 -3.163008 1.836992 -2.5 2.5 
C -1.836992 3.163008 -0.937635 3.535534 0 3.535534 
z
" style="stroke: #000000"/>
    </defs>
    <g clip-path="url(#pd75fcb9ce0)">
     <use xlink:href="#m9c00b9b8dd" x="316.180857" y="228.677049" style="stroke: #000000"/>
    </g>
   </g>
   <g id="text_3">
    <!-- Obstáculo 1 -->
    <g style="fill: #d62728" transform="translate(127.419793 102.085439) scale(0.18 -0.18)">
     <defs>
      <path id="DejaVuSans-4f" d="M 2522 4238 
Q 1834 4238 1429 3725 
Q 1025 3213 1025 2328 
Q 1025 1447 1429 934 
Q 1834 422 2522 422 
Q 3209 422 3611 934 
Q 4013 1447 4013 2328 
Q 4013 3213 3611 3725 
Q 3209 4238 2522 4238 
z
M 2522 4750 
Q 3503 4750 4090 4092 
Q 4678 3434 4678 2328 
Q 4678 1225 4090 567 
Q 3503 -91 2522 -91 
Q 1538 -91 948 565 
Q 359 1222 359 2328 
Q 359 3434 948 4092 
Q 1538 4750 2522 4750 
z
" transform="scale(0.015625)"/>
      <path id="DejaVuSans-62" d="M 3116 1747 
Q 3116 2381 2855 2742 
Q 2594 3103 2138 3103 
Q 1681 3103 1420 2742 
Q 1159 2381 1159 1747 
Q 1159 1113 1420 752 
Q 1681 391 2138 391 
Q 2594 391 2855 752 
Q 3116 1113 3116 1747 
z
M 1159 2969 
Q 1341 3281 1617 3432 
Q 1894 3584 2278 3584 
Q 2916 3584 3314 3078 
Q 3713 2572 3713 1747 
Q 3713 922 3314 415 
Q 2916 -91 2278 -91 
Q 1894 -91 1617 61 
Q 1341 213 1159 525 
L 1159 0 
L 581 0 
L 581 4863 
L 1159 4863 
L 1159 2969 
z
" transform="scale(0.015625)"/>
      <path id="DejaVuSans-73" d="M 2834 3397 
L 2834 2853 
Q 2591 2978 2328 3040 
Q 2066 3103 1784 3103 
Q 1356 3103 1142 2972 
Q 928 2841 928 2578 
Q 928 2378 1081 2264 
Q 1234 2150 1697 2047 
L 1894 2003 
Q 2506 1872 2764 1633 
Q 3022 1394 3022 966 
Q 3022 478 2636 193 
Q 2250 -91 1575 -91 
Q 1294 -91 989 -36 
Q 684 19 347 128 
L 347 722 
Q 666 556 975 473 
Q 1284 391 1588 391 
Q 1994 391 2212 530 
Q 2431 669 2431 922 
Q 2431 1156 2273 1281 
Q 2116 1406 1581 1522 
L 1381 1569 
Q 847 1681 609 1914 
Q 372 2147 372 2553 
Q 372 3047 722 3315 
Q 1072 3584 1716 3584 
Q 2034 3584 2315 3537 
Q 2597 3491 2834 3397 
z
" transform="scale(0.015625)"/>
      <path id="DejaVuSans-74" d="M 1172 4494 
L 1172 3500 
L 2356 3500 
L 2356 3053 
L 1172 3053 
L 1172 1153 
Q 1172 725 1289 603 
Q 1406 481 1766 481 
L 2356 481 
L 2356 0 
L 1766 0 
Q 1100 0 847 248 
Q 594 497 594 1153 
L 594 3053 
L 172 3053 
L 172 3500 
L 594 3500 
L 594 4494 
L 1172 4494 
z
" transform="scale(0.015625)"/>
      <path id="DejaVuSans-e1" d="M 2194 1759 
Q 1497 1759 1228 1600 
Q 959 1441 959 1056 
Q 959 750 1161 570 
Q 1363 391 1709 391 
Q 2188 391 2477 730 
Q 2766 1069 2766 1631 
L 2766 1759 
L 2194 1759 
z
M 3341 1997 
L 3341 0 
L 2766 0 
L 2766 531 
Q 2569 213 2275 61 
Q 1981 -91 1556 -91 
Q 1019 -91 701 211 
Q 384 513 384 1019 
Q 384 1609 779 1909 
Q 1175 2209 1959 2209 
L 2766 2209 
L 2766 2266 
Q 2766 2663 2505 2880 
Q 2244 3097 1772 3097 
Q 1472 3097 1187 3025 
Q 903 2953 641 2809 
L 641 3341 
Q 956 3463 1253 3523 
Q 1550 3584 1831 3584 
Q 2591 3584 2966 3190 
Q 3341 2797 3341 1997 
z
M 2291 5119 
L 2913 5119 
L 1894 3944 
L 1416 3944 
L 2291 5119 
z
" transform="scale(0.015625)"/>
      <path id="DejaVuSans-63" d="M 3122 3366 
L 3122 2828 
Q 2878 2963 2633 3030 
Q 2388 3097 2138 3097 
Q 1578 3097 1268 2742 
Q 959 2388 959 1747 
Q 959 1106 1268 751 
Q 1578 397 2138 397 
Q 2388 397 2633 464 
Q 2878 531 3122 666 
L 3122 134 
Q 2881 22 2623 -34 
Q 2366 -91 2075 -91 
Q 1284 -91 818 406 
Q 353 903 353 1747 
Q 353 2603 823 3093 
Q 1294 3584 2113 3584 
Q 2378 3584 2631 3529 
Q 2884 3475 3122 3366 
z
" transform="scale(0.015625)"/>
      <path id="DejaVuSans-75" d="M 544 1381 
L 544 3500 
L 1119 3500 
L 1119 1403 
Q 1119 906 1312 657 
Q 1506 409 1894 409 
Q 2359 409 2629 706 
Q 2900 1003 2900 1516 
L 2900 3500 
L 3475 3500 
L 3475 0 
L 2900 0 
L 2900 538 
Q 2691 219 2414 64 
Q 2138 -91 1772 -91 
Q 1169 -91 856 284 
Q 544 659 544 1381 
z
M 1991 3584 
L 1991 3584 
z
" transform="scale(0.015625)"/>
      <path id="DejaVuSans-6c" d="M 603 4863 
L 1178 4863 
L 1178 0 
L 603 0 
L 603 4863 
z
" transform="scale(0.015625)"/>
      <path id="DejaVuSans-6f" d="M 1959 3097 
Q 1497 3097 1228 2736 
Q 959 2375 959 1747 
Q 959 1119 1226 758 
Q 1494 397 1959 397 
Q 2419 397 2687 759 
Q 2956 1122 2956 1747 
Q 2956 2369 2687 2733 
Q 2419 3097 1959 3097 
z
M 1959 3584 
Q 2709 3584 3137 3096 
Q 3566 2609 3566 1747 
Q 3566 888 3137 398 
Q 2709 -91 1959 -91 
Q 1206 -91 779 398 
Q 353 888 353 1747 
Q 353 2609 779 3096 
Q 1206 3584 1959 3584 
z
" transform="scale(0.015625)"/>
      <path id="DejaVuSans-20" transform="scale(0.015625)"/>
      <path id="DejaVuSans-31" d="M 794 531 
L 1825 531 
L 1825 4091 
L 703 3866 
L 703 4441 
L 1819 4666 
L 2450 4666 
L 2450 531 
L 3481 531 
L 3481 0 
L 794 0 
L 794 531 
z
" transform="scale(0.015625)"/>
     </defs>
     <use xlink:href="#DejaVuSans-4f"/>
     <use xlink:href="#DejaVuSans-62" x="78.710938"/>
     <use xlink:href="#DejaVuSans-73" x="142.1875"/>
     <use xlink:href="#DejaVuSans-74" x="194.287109"/>
     <use xlink:href="#DejaVuSans-e1" x="233.496094"/>
     <use xlink:href="#DejaVuSans-63" x="294.775391"/>
     <use xlink:href="#DejaVuSans-75" x="349.755859"/>
     <use xlink:href="#DejaVuSans-6c" x="413.134766"/>
     <use xlink:href="#DejaVuSans-6f" x="440.917969"/>
     <use xlink:href="#DejaVuSans-20" x="502.099609"/>
     <use xlink:href="#DejaVuSans-31" x="533.886719"/>
    </g>
   </g>
   <g id="text_4">
    <!-- Obstáculo 2 -->
    <g style="fill: #d62728" transform="translate(127.419793 367.857897) scale(0.18 -0.18)">
     <defs>
      <path id="DejaVuSans-32" d="M 1228 531 
L 3431 531 
L 3431 0 
L 469 0 
L 469 531 
Q 828 903 1448 1529 
Q 2069 2156 2228 2338 
Q 2531 2678 2651 2914 
Q 2772 3150 2772 3378 
Q 2772 3750 2511 3984 
Q 2250 4219 1831 4219 
Q 1534 4219 1204 4116 
Q 875 4013 500 3803 
L 500 4441 
Q 881 4594 1212 4672 
Q 1544 4750 1819 4750 
Q 2544 4750 2975 4387 
Q 3406 4025 3406 3419 
Q 3406 3131 3298 2873 
Q 3191 2616 2906 2266 
Q 2828 2175 2409 1742 
Q 1991 1309 1228 531 
z
" transform="scale(0.015625)"/>
     </defs>
     <use xlink:href="#DejaVuSans-4f"/>
     <use xlink:href="#DejaVuSans-62" x="78.710938"/>
     <use xlink:href="#DejaVuSans-73" x="142.1875"/>
     <use xlink:href="#DejaVuSans-74" x="194.287109"/>
     <use xlink:href="#DejaVuSans-e1" x="233.496094"/>
     <use xlink:href="#DejaVuSans-63" x="294.775391"/>
     <use xlink:href="#DejaVuSans-75" x="349.755859"/>
     <use xlink:href="#DejaVuSans-6c" x="413.134766"/>
     <use xlink:href="#DejaVuSans-6f" x="440.917969"/>
     <use xlink:href="#DejaVuSans-20" x="502.099609"/>
     <use xlink:href="#DejaVuSans-32" x="533.886719"/>
    </g>
   </g>
   <g id="text_5">
    <!-- Objetivo -->
    <g style="fill: #1f77b4" transform="translate(93.131991 257.119373) scale(0.18 -0.18)">
     <defs>
      <path id="DejaVuSans-6a" d="M 603 3500 
L 1178 3500 
L 1178 -63 
Q 1178 -731 923 -1031 
Q 669 -1331 103 -1331 
L -116 -1331 
L -116 -844 
L 38 -844 
Q 366 -844 484 -692 
Q 603 -541 603 -63 
L 603 3500 
z
M 603 4863 
L 1178 4863 
L 1178 4134 
L 603 4134 
L 603 4863 
z
" transform="scale(0.015625)"/>
      <path id="DejaVuSans-65" d="M 3597 1894 
L 3597 1613 
L 953 1613 
Q 991 1019 1311 708 
Q 1631 397 2203 397 
Q 2534 397 2845 478 
Q 3156 559 3463 722 
L 3463 178 
Q 3153 47 2828 -22 
Q 2503 -91 2169 -91 
Q 1331 -91 842 396 
Q 353 884 353 1716 
Q 353 2575 817 3079 
Q 1281 3584 2069 3584 
Q 2775 3584 3186 3129 
Q 3597 2675 3597 1894 
z
M 3022 2063 
Q 3016 2534 2758 2815 
Q 2500 3097 2075 3097 
Q 1594 3097 1305 2825 
Q 1016 2553 972 2059 
L 3022 2063 
z
" transform="scale(0.015625)"/>
      <path id="DejaVuSans-69" d="M 603 3500 
L 1178 3500 
L 1178 0 
L 603 0 
L 603 3500 
z
M 603 4863 
L 1178 4863 
L 1178 4134 
L 603 4134 
L 603 4863 
z
" transform="scale(0.015625)"/>
      <path id="DejaVuSans-76" d="M 191 3500 
L 800 3500 
L 1894 563 
L 2988 3500 
L 3597 3500 
L 2284 0 
L 1503 0 
L 191 3500 
z
" transform="scale(0.015625)"/>
     </defs>
     <use xlink:href="#DejaVuSans-4f"/>
     <use xlink:href="#DejaVuSans-62" x="78.710938"/>
     <use xlink:href="#DejaVuSans-6a" x="142.1875"/>
     <use xlink:href="#DejaVuSans-65" x="169.970703"/>
     <use xlink:href="#DejaVuSans-74" x="231.494141"/>
     <use xlink:href="#DejaVuSans-69" x="270.703125"/>
     <use xlink:href="#DejaVuSans-76" x="298.486328"/>
     <use xlink:href="#DejaVuSans-6f" x="357.666016"/>
    </g>
   </g>
   <g id="text_6">
    <!-- $\vec{F_T} = \vec{F^R_1} + \vec{F^R_2}+ \vec{F^A}$ -->
    <g style="fill: #2ca02c" transform="translate(345.71113 213.911912) scale(0.16 -0.16)">
     <defs>
      <path id="DejaVuSans-20d7" d="M -3009 4066 
L -3009 4378 
L -694 4378 
L -1106 4863 
L -713 4863 
L -166 4222 
L -713 3581 
L -1106 3581 
L -694 4066 
L -3009 4066 
z
" transform="scale(0.015625)"/>
      <path id="DejaVuSans-Oblique-46" d="M 1081 4666 
L 3756 4666 
L 3653 4134 
L 1606 4134 
L 1338 2759 
L 3188 2759 
L 3084 2228 
L 1234 2228 
L 800 0 
L 172 0 
L 1081 4666 
z
" transform="scale(0.015625)"/>
      <path id="DejaVuSans-Oblique-54" d="M 378 4666 
L 4325 4666 
L 4225 4134 
L 2559 4134 
L 1759 0 
L 1125 0 
L 1925 4134 
L 275 4134 
L 378 4666 
z
" transform="scale(0.015625)"/>
      <path id="DejaVuSans-3d" d="M 678 2906 
L 4684 2906 
L 4684 2381 
L 678 2381 
L 678 2906 
z
M 678 1631 
L 4684 1631 
L 4684 1100 
L 678 1100 
L 678 1631 
z
" transform="scale(0.015625)"/>
      <path id="DejaVuSans-Oblique-52" d="M 1613 4147 
L 1294 2491 
L 2106 2491 
Q 2584 2491 2879 2755 
Q 3175 3019 3175 3444 
Q 3175 3784 2976 3965 
Q 2778 4147 2406 4147 
L 1613 4147 
z
M 2772 2241 
Q 2972 2194 3105 2009 
Q 3238 1825 3413 1275 
L 3809 0 
L 3144 0 
L 2778 1197 
Q 2638 1659 2453 1815 
Q 2269 1972 1888 1972 
L 1191 1972 
L 806 0 
L 172 0 
L 1081 4666 
L 2503 4666 
Q 3150 4666 3495 4373 
Q 3841 4081 3841 3531 
Q 3841 3044 3547 2687 
Q 3253 2331 2772 2241 
z
" transform="scale(0.015625)"/>
      <path id="DejaVuSans-2b" d="M 2944 4013 
L 2944 2272 
L 4684 2272 
L 4684 1741 
L 2944 1741 
L 2944 0 
L 2419 0 
L 2419 1741 
L 678 1741 
L 678 2272 
L 2419 2272 
L 2419 4013 
L 2944 4013 
z
" transform="scale(0.015625)"/>
      <path id="DejaVuSans-Oblique-41" d="M 2356 4666 
L 3072 4666 
L 3938 0 
L 3278 0 
L 3084 1197 
L 984 1197 
L 325 0 
L -341 0 
L 2356 4666 
z
M 2584 4044 
L 1275 1722 
L 2988 1722 
L 2584 4044 
z
" transform="scale(0.015625)"/>
     </defs>
     <use xlink:href="#DejaVuSans-20d7" transform="translate(88.768799 29.60625)"/>
     <use xlink:href="#DejaVuSans-Oblique-46" transform="translate(0 0.153125)"/>
     <use xlink:href="#DejaVuSans-Oblique-54" transform="translate(57.519531 -16.253125) scale(0.7)"/>
     <use xlink:href="#DejaVuSans-3d" transform="translate(122.495117 0.153125)"/>
     <use xlink:href="#DejaVuSans-20d7" transform="translate(322.75932 46.015625)"/>
     <use xlink:href="#DejaVuSans-Oblique-46" transform="translate(225.766602 0.153125)"/>
     <use xlink:href="#DejaVuSans-Oblique-52" transform="translate(290.302904 38.434375) scale(0.7)"/>
     <use xlink:href="#DejaVuSans-31" transform="translate(283.286133 -27.190625) scale(0.7)"/>
     <use xlink:href="#DejaVuSans-2b" transform="translate(361.157396 0.153125)"/>
     <use xlink:href="#DejaVuSans-20d7" transform="translate(561.421598 46.015625)"/>
     <use xlink:href="#DejaVuSans-Oblique-46" transform="translate(464.42888 0.153125)"/>
     <use xlink:href="#DejaVuSans-Oblique-52" transform="translate(528.965182 38.434375) scale(0.7)"/>
     <use xlink:href="#DejaVuSans-32" transform="translate(521.948411 -27.190625) scale(0.7)"/>
     <use xlink:href="#DejaVuSans-2b" transform="translate(599.819674 0.153125)"/>
     <use xlink:href="#DejaVuSans-20d7" transform="translate(799.895889 46.015625)"/>
     <use xlink:href="#DejaVuSans-Oblique-46" transform="translate(703.091159 0.153125)"/>
     <use xlink:href="#DejaVuSans-Oblique-41" transform="translate(767.627461 38.434375) scale(0.7)"/>
    </g>
   </g>
   <g id="text_7">
    <!-- $\vec{F^R_1}$ -->
    <g style="fill: #d62728" transform="translate(330.945993 309.8853) scale(0.16 -0.16)">
     <use xlink:href="#DejaVuSans-20d7" transform="translate(96.992718 46.015625)"/>
     <use xlink:href="#DejaVuSans-Oblique-46" transform="translate(0 0.153125)"/>
     <use xlink:href="#DejaVuSans-Oblique-52" transform="translate(64.536302 38.434375) scale(0.7)"/>
     <use xlink:href="#DejaVuSans-31" transform="translate(57.519531 -27.190625) scale(0.7)"/>
    </g>
   </g>
   <g id="text_8">
    <!-- $\vec{F^R_2}$ -->
    <g style="fill: #d62728" transform="translate(330.945993 147.468798) scale(0.16 -0.16)">
     <use xlink:href="#DejaVuSans-20d7" transform="translate(96.992718 46.015625)"/>
     <use xlink:href="#DejaVuSans-Oblique-46" transform="translate(0 0.153125)"/>
     <use xlink:href="#DejaVuSans-Oblique-52" transform="translate(64.536302 38.434375) scale(0.7)"/>
     <use xlink:href="#DejaVuSans-32" transform="translate(57.519531 -27.190625) scale(0.7)"/>
    </g>
   </g>
   <g id="text_9">
    <!-- $\vec{F^A}$ -->
    <g style="fill: #1f77b4" transform="translate(242.355174 228.677049) scale(0.16 -0.16)">
     <use xlink:href="#DejaVuSans-20d7" transform="translate(96.80473 46.015625)"/>
     <use xlink:href="#DejaVuSans-Oblique-46" transform="translate(0 0.153125)"/>
     <use xlink:href="#DejaVuSans-Oblique-41" transform="translate(64.536302 38.434375) scale(0.7)"/>
    </g>
   </g>
  </g>
 </g>
 <defs>
  <clipPath id="pd75fcb9ce0">
   <rect x="20.878125" y="7.2" width="442.954098" height="442.954098"/>
  </clipPath>
 </defs>
</svg>
