<?xml version="1.0" encoding="utf-8" standalone="no"?>
<!DOCTYPE svg PUBLIC "-//W3C//DTD SVG 1.1//EN"
  "http://www.w3.org/Graphics/SVG/1.1/DTD/svg11.dtd">
<svg xmlns:xlink="http://www.w3.org/1999/xlink" width="567.089398pt" height="422.509375pt" viewBox="0 0 567.089398 422.509375" xmlns="http://www.w3.org/2000/svg" version="1.1">
 <metadata>
  <rdf:RDF xmlns:dc="http://purl.org/dc/elements/1.1/" xmlns:cc="http://creativecommons.org/ns#" xmlns:rdf="http://www.w3.org/1999/02/22-rdf-syntax-ns#">
   <cc:Work>
    <dc:type rdf:resource="http://purl.org/dc/dcmitype/StillImage"/>
    <dc:date>2025-10-11T13:48:43.880499</dc:date>
    <dc:format>image/svg+xml</dc:format>
    <dc:creator>
     <cc:Agent>
      <dc:title>Matplotlib v3.6.3, https://matplotlib.org/</dc:title>
     </cc:Agent>
    </dc:creator>
   </cc:Work>
  </rdf:RDF>
 </metadata>
 <defs>
  <style type="text/css">*{stroke-linejoin: round; stroke-linecap: butt}</style>
 </defs>
 <g id="figure_1">
  <g id="patch_1">
   <path d="M 0 422.509375 
L 567.089398 422.509375 
L 567.089398 0 
L 0 0 
z
" style="fill: #ffffff"/>
  </g>
  <g id="axes_1">
   <g id="patch_2">
    <path d="M 41.08 394.76 
L 559.889398 394.76 
L 559.889398 7.2 
L 41.08 7.2 
z
" style="fill: #ffffff"/>
   </g>
   <g id="matplotlib.axis_1">
    <g id="xtick_1">
     <g id="line2d_1">
      <path d="M 41.08 394.76 
L 41.08 7.2 
" clip-path="url(#p84f49254de)" style="fill: none; stroke: #b0b0b0; stroke-width: 0.8; stroke-linecap: square"/>
     </g>
     <g id="line2d_2">
      <defs>
       <path id="m697bbc17f1" d="M 0 0 
L 0 3.5 
" style="stroke: #000000; stroke-width: 0.8"/>
      </defs>
      <g>
       <use xlink:href="#m697bbc17f1" x="41.08" y="394.76" style="stroke: #000000; stroke-width: 0.8"/>
      </g>
     </g>
     <g id="text_1">
      <!-- $\eta_i = 0$ -->
      <g transform="translate(22.04 412.369375) scale(0.14 -0.14)">
       <defs>
        <path id="DejaVuSans-Oblique-3b7" d="M 3703 2113 
L 3034 -1331 
L 2459 -1331 
L 3125 2094 
Q 3222 2591 3075 2838 
Q 2931 3084 2544 3084 
Q 2078 3084 1750 2788 
Q 1425 2491 1325 1978 
L 941 0 
L 363 0 
L 1044 3500 
L 1622 3500 
L 1516 2956 
Q 1781 3272 2094 3428 
Q 2403 3584 2769 3584 
Q 3372 3584 3609 3213 
Q 3844 2838 3703 2113 
z
" transform="scale(0.015625)"/>
        <path id="DejaVuSans-Oblique-69" d="M 1172 4863 
L 1747 4863 
L 1606 4134 
L 1031 4134 
L 1172 4863 
z
M 909 3500 
L 1484 3500 
L 800 0 
L 225 0 
L 909 3500 
z
" transform="scale(0.015625)"/>
        <path id="DejaVuSans-3d" d="M 678 2906 
L 4684 2906 
L 4684 2381 
L 678 2381 
L 678 2906 
z
M 678 1631 
L 4684 1631 
L 4684 1100 
L 678 1100 
L 678 1631 
z
" transform="scale(0.015625)"/>
        <path id="DejaVuSans-30" d="M 2034 4250 
Q 1547 4250 1301 3770 
Q 1056 3291 1056 2328 
Q 1056 1369 1301 889 
Q 1547 409 2034 409 
Q 2525 409 2770 889 
Q 3016 1369 3016 2328 
Q 3016 3291 2770 3770 
Q 2525 4250 2034 4250 
z
M 2034 4750 
Q 2819 4750 3233 4129 
Q 3647 3509 3647 2328 
Q 3647 1150 3233 529 
Q 2819 -91 2034 -91 
Q 1250 -91 836 529 
Q 422 1150 422 2328 
Q 422 3509 836 4129 
Q 1250 4750 2034 4750 
z
" transform="scale(0.015625)"/>
       </defs>
       <use xlink:href="#DejaVuSans-Oblique-3b7" transform="translate(0 0.78125)"/>
       <use xlink:href="#DejaVuSans-Oblique-69" transform="translate(63.378906 -15.625) scale(0.7)"/>
       <use xlink:href="#DejaVuSans-3d" transform="translate(105.043945 0.78125)"/>
       <use xlink:href="#DejaVuSans-30" transform="translate(208.31543 0.78125)"/>
      </g>
     </g>
    </g>
    <g id="xtick_2">
     <g id="line2d_3">
      <path d="M 144.84188 394.76 
L 144.84188 7.2 
" clip-path="url(#p84f49254de)" style="fill: none; stroke: #b0b0b0; stroke-width: 0.8; stroke-linecap: square"/>
     </g>
     <g id="line2d_4">
      <g>
       <use xlink:href="#m697bbc17f1" x="144.84188" y="394.76" style="stroke: #000000; stroke-width: 0.8"/>
      </g>
     </g>
    </g>
    <g id="xtick_3">
     <g id="line2d_5">
      <path d="M 248.603759 394.76 
L 248.603759 7.2 
" clip-path="url(#p84f49254de)" style="fill: none; stroke: #b0b0b0; stroke-width: 0.8; stroke-linecap: square"/>
     </g>
     <g id="line2d_6">
      <g>
       <use xlink:href="#m697bbc17f1" x="248.603759" y="394.76" style="stroke: #000000; stroke-width: 0.8"/>
      </g>
     </g>
    </g>
    <g id="xtick_4">
     <g id="line2d_7">
      <path d="M 352.365639 394.76 
L 352.365639 7.2 
" clip-path="url(#p84f49254de)" style="fill: none; stroke: #b0b0b0; stroke-width: 0.8; stroke-linecap: square"/>
     </g>
     <g id="line2d_8">
      <g>
       <use xlink:href="#m697bbc17f1" x="352.365639" y="394.76" style="stroke: #000000; stroke-width: 0.8"/>
      </g>
     </g>
    </g>
    <g id="xtick_5">
     <g id="line2d_9">
      <path d="M 456.127518 394.76 
L 456.127518 7.2 
" clip-path="url(#p84f49254de)" style="fill: none; stroke: #b0b0b0; stroke-width: 0.8; stroke-linecap: square"/>
     </g>
     <g id="line2d_10">
      <g>
       <use xlink:href="#m697bbc17f1" x="456.127518" y="394.76" style="stroke: #000000; stroke-width: 0.8"/>
      </g>
     </g>
     <g id="text_2">
      <!-- $\eta_0$ -->
      <g transform="translate(448.357518 412.369375) scale(0.14 -0.14)">
       <use xlink:href="#DejaVuSans-Oblique-3b7"/>
       <use xlink:href="#DejaVuSans-30" transform="translate(63.378906 -16.40625) scale(0.7)"/>
      </g>
     </g>
    </g>
    <g id="xtick_6">
     <g id="line2d_11">
      <path d="M 559.889398 394.76 
L 559.889398 7.2 
" clip-path="url(#p84f49254de)" style="fill: none; stroke: #b0b0b0; stroke-width: 0.8; stroke-linecap: square"/>
     </g>
     <g id="line2d_12">
      <g>
       <use xlink:href="#m697bbc17f1" x="559.889398" y="394.76" style="stroke: #000000; stroke-width: 0.8"/>
      </g>
     </g>
    </g>
    <g id="text_3">
     <!-- $\eta_i(P)$ -->
     <g transform="translate(519.569398 378.989375) scale(0.18 -0.18)">
      <defs>
       <path id="DejaVuSans-28" d="M 1984 4856 
Q 1566 4138 1362 3434 
Q 1159 2731 1159 2009 
Q 1159 1288 1364 580 
Q 1569 -128 1984 -844 
L 1484 -844 
Q 1016 -109 783 600 
Q 550 1309 550 2009 
Q 550 2706 781 3412 
Q 1013 4119 1484 4856 
L 1984 4856 
z
" transform="scale(0.015625)"/>
       <path id="DejaVuSans-Oblique-50" d="M 1081 4666 
L 2541 4666 
Q 3178 4666 3512 4369 
Q 3847 4072 3847 3500 
Q 3847 2731 3353 2303 
Q 2859 1875 1966 1875 
L 1172 1875 
L 806 0 
L 172 0 
L 1081 4666 
z
M 1613 4147 
L 1275 2394 
L 2069 2394 
Q 2606 2394 2893 2669 
Q 3181 2944 3181 3456 
Q 3181 3784 2986 3965 
Q 2791 4147 2438 4147 
L 1613 4147 
z
" transform="scale(0.015625)"/>
       <path id="DejaVuSans-29" d="M 513 4856 
L 1013 4856 
Q 1481 4119 1714 3412 
Q 1947 2706 1947 2009 
Q 1947 1309 1714 600 
Q 1481 -109 1013 -844 
L 513 -844 
Q 928 -128 1133 580 
Q 1338 1288 1338 2009 
Q 1338 2731 1133 3434 
Q 928 4138 513 4856 
z
" transform="scale(0.015625)"/>
      </defs>
      <use xlink:href="#DejaVuSans-Oblique-3b7" transform="translate(0 0.125)"/>
      <use xlink:href="#DejaVuSans-Oblique-69" transform="translate(63.378906 -16.28125) scale(0.7)"/>
      <use xlink:href="#DejaVuSans-28" transform="translate(85.561523 0.125)"/>
      <use xlink:href="#DejaVuSans-Oblique-50" transform="translate(124.575195 0.125)"/>
      <use xlink:href="#DejaVuSans-29" transform="translate(184.87793 0.125)"/>
     </g>
    </g>
   </g>
   <g id="matplotlib.axis_2">
    <g id="ytick_1">
     <g id="line2d_13">
      <path d="M 41.08 394.76 
L 559.889398 394.76 
" clip-path="url(#p84f49254de)" style="fill: none; stroke: #b0b0b0; stroke-width: 0.8; stroke-linecap: square"/>
     </g>
     <g id="line2d_14">
      <defs>
       <path id="ma41658b42b" d="M 0 0 
L -3.5 0 
" style="stroke: #000000; stroke-width: 0.8"/>
      </defs>
      <g>
       <use xlink:href="#ma41658b42b" x="41.08" y="394.76" style="stroke: #000000; stroke-width: 0.8"/>
      </g>
     </g>
    </g>
    <g id="ytick_2">
     <g id="line2d_15">
      <path d="M 41.08 317.248 
L 559.889398 317.248 
" clip-path="url(#p84f49254de)" style="fill: none; stroke: #b0b0b0; stroke-width: 0.8; stroke-linecap: square"/>
     </g>
     <g id="line2d_16">
      <g>
       <use xlink:href="#ma41658b42b" x="41.08" y="317.248" style="stroke: #000000; stroke-width: 0.8"/>
      </g>
     </g>
    </g>
    <g id="ytick_3">
     <g id="line2d_17">
      <path d="M 41.08 239.736 
L 559.889398 239.736 
" clip-path="url(#p84f49254de)" style="fill: none; stroke: #b0b0b0; stroke-width: 0.8; stroke-linecap: square"/>
     </g>
     <g id="line2d_18">
      <g>
       <use xlink:href="#ma41658b42b" x="41.08" y="239.736" style="stroke: #000000; stroke-width: 0.8"/>
      </g>
     </g>
    </g>
    <g id="ytick_4">
     <g id="line2d_19">
      <path d="M 41.08 162.224 
L 559.889398 162.224 
" clip-path="url(#p84f49254de)" style="fill: none; stroke: #b0b0b0; stroke-width: 0.8; stroke-linecap: square"/>
     </g>
     <g id="line2d_20">
      <g>
       <use xlink:href="#ma41658b42b" x="41.08" y="162.224" style="stroke: #000000; stroke-width: 0.8"/>
      </g>
     </g>
    </g>
    <g id="ytick_5">
     <g id="line2d_21">
      <path d="M 41.08 84.712 
L 559.889398 84.712 
" clip-path="url(#p84f49254de)" style="fill: none; stroke: #b0b0b0; stroke-width: 0.8; stroke-linecap: square"/>
     </g>
     <g id="line2d_22">
      <g>
       <use xlink:href="#ma41658b42b" x="41.08" y="84.712" style="stroke: #000000; stroke-width: 0.8"/>
      </g>
     </g>
    </g>
    <g id="ytick_6">
     <g id="line2d_23">
      <path d="M 41.08 7.2 
L 559.889398 7.2 
" clip-path="url(#p84f49254de)" style="fill: none; stroke: #b0b0b0; stroke-width: 0.8; stroke-linecap: square"/>
     </g>
     <g id="line2d_24">
      <g>
       <use xlink:href="#ma41658b42b" x="41.08" y="7.2" style="stroke: #000000; stroke-width: 0.8"/>
      </g>
     </g>
    </g>
    <g id="text_4">
     <!-- $U^R_i$ -->
     <g transform="translate(7.2 40.916) scale(0.18 -0.18)">
      <defs>
       <path id="DejaVuSans-Oblique-55" d="M 991 4666 
L 1625 4666 
L 1075 1831 
Q 1041 1641 1027 1517 
Q 1013 1394 1013 1300 
Q 1013 869 1253 645 
Q 1494 422 1959 422 
Q 2563 422 2898 753 
Q 3234 1084 3378 1831 
L 3928 4666 
L 4563 4666 
L 4000 1753 
Q 3816 809 3300 359 
Q 2784 -91 1888 -91 
Q 1188 -91 780 261 
Q 372 613 372 1216 
Q 372 1325 387 1461 
Q 403 1597 434 1753 
L 991 4666 
z
" transform="scale(0.015625)"/>
       <path id="DejaVuSans-Oblique-52" d="M 1613 4147 
L 1294 2491 
L 2106 2491 
Q 2584 2491 2879 2755 
Q 3175 3019 3175 3444 
Q 3175 3784 2976 3965 
Q 2778 4147 2406 4147 
L 1613 4147 
z
M 2772 2241 
Q 2972 2194 3105 2009 
Q 3238 1825 3413 1275 
L 3809 0 
L 3144 0 
L 2778 1197 
Q 2638 1659 2453 1815 
Q 2269 1972 1888 1972 
L 1191 1972 
L 806 0 
L 172 0 
L 1081 4666 
L 2503 4666 
Q 3150 4666 3495 4373 
Q 3841 4081 3841 3531 
Q 3841 3044 3547 2687 
Q 3253 2331 2772 2241 
z
" transform="scale(0.015625)"/>
      </defs>
      <use xlink:href="#DejaVuSans-Oblique-55" transform="translate(0 0.620313)"/>
      <use xlink:href="#DejaVuSans-Oblique-52" transform="translate(80.21013 38.965625) scale(0.7)"/>
      <use xlink:href="#DejaVuSans-Oblique-69" transform="translate(73.193359 -26.723437) scale(0.7)"/>
     </g>
    </g>
   </g>
   <g id="line2d_25">
    <path d="M 86.351023 -1 
L 87.866419 13.444023 
L 89.945815 31.731724 
L 92.025211 48.526551 
L 94.104608 64.004138 
L 96.184004 78.313604 
L 99.303099 97.861357 
L 102.422193 115.421204 
L 105.541288 131.28171 
L 108.660383 145.678169 
L 111.779477 158.804353 
L 114.898572 170.821282 
L 118.017666 181.863865 
L 121.136761 192.045987 
L 124.255855 201.46445 
L 127.37495 210.20206 
L 130.494045 218.33007 
L 133.613139 225.910124 
L 136.732234 232.995826 
L 139.851328 239.634011 
L 142.970423 245.865776 
L 147.129216 253.604569 
L 151.288008 260.759302 
L 155.446801 267.393691 
L 159.605594 273.562509 
L 163.764387 279.313102 
L 167.923179 284.686607 
L 172.081972 289.718937 
L 176.240765 294.441585 
L 180.399558 298.882284 
L 185.598049 304.073748 
L 190.79654 308.904694 
L 195.995031 313.411416 
L 201.193522 317.625494 
L 206.392013 321.574535 
L 211.590503 325.282781 
L 217.828693 329.444741 
L 224.066882 333.322932 
L 230.305071 336.945418 
L 236.54326 340.336681 
L 243.821147 344.02939 
L 251.099035 347.466168 
L 258.376922 350.672732 
L 266.694508 354.08406 
L 275.012093 357.252804 
L 284.369377 360.558658 
L 293.726661 363.619634 
L 304.123643 366.7653 
L 314.520624 369.671753 
L 325.957305 372.623818 
L 337.393985 375.348004 
L 349.870363 378.0897 
L 363.386439 380.820342 
L 377.942214 383.515975 
L 392.497989 385.988302 
L 408.093462 388.419606 
L 424.728633 390.795125 
L 443.4432 393.232793 
L 455.919578 394.735717 
L 461.118069 394.76 
L 559.889398 394.76 
L 559.889398 394.76 
" clip-path="url(#p84f49254de)" style="fill: none; stroke: #1f77b4; stroke-opacity: 0.6; stroke-width: 2; stroke-linecap: square"/>
   </g>
   <g id="line2d_26">
    <path d="M 76.775155 -1 
L 78.509135 28.847104 
L 80.588531 60.134584 
L 82.667928 87.485011 
L 84.747324 111.55172 
L 86.82672 132.855399 
L 88.906117 151.815539 
L 90.985513 168.77344 
L 93.06491 184.009287 
L 95.144306 197.754992 
L 97.223702 210.203966 
L 99.303099 221.51864 
L 101.382495 231.836305 
L 103.461892 241.273707 
L 105.541288 249.93067 
L 107.620684 257.892996 
L 109.700081 265.234794 
L 111.779477 272.020364 
L 114.898572 281.276414 
L 118.017666 289.566009 
L 121.136761 297.021668 
L 124.255855 303.753576 
L 127.37495 309.854003 
L 130.494045 315.400731 
L 133.613139 320.459731 
L 136.732234 325.087277 
L 139.851328 329.331628 
L 142.970423 333.234373 
L 146.089517 336.831524 
L 149.208612 340.154394 
L 153.367405 344.204998 
L 157.526198 347.871933 
L 161.68499 351.202234 
L 165.843783 354.235846 
L 170.002576 357.006882 
L 174.161369 359.544628 
L 179.35986 362.426902 
L 184.55835 365.025966 
L 189.756841 367.377232 
L 194.955332 369.510686 
L 201.193522 371.819001 
L 207.431711 373.887499 
L 214.709598 376.038902 
L 221.987485 377.947147 
L 230.305071 379.873406 
L 238.622656 381.567569 
L 247.97994 383.237965 
L 258.376922 384.84691 
L 269.813602 386.365677 
L 282.289981 387.773894 
L 295.806057 389.058487 
L 310.361832 390.21237 
L 326.997003 391.294259 
L 344.671872 392.220018 
L 364.426138 393.035453 
L 387.299498 393.747877 
L 412.252254 394.295935 
L 439.284407 394.660668 
L 462.157768 394.76 
L 559.889398 394.76 
L 559.889398 394.76 
" clip-path="url(#p84f49254de)" style="fill: none; stroke: #1f77b4; stroke-opacity: 0.6; stroke-width: 2; stroke-linecap: square"/>
   </g>
   <g id="line2d_27">
    <path d="M 73.933975 -1 
L 74.350342 12.766736 
L 76.429739 70.940052 
L 78.509135 117.885909 
L 80.588531 156.207302 
L 82.667928 187.810295 
L 84.747324 214.113576 
L 86.82672 236.188669 
L 88.906117 254.855679 
L 90.985513 270.749875 
L 93.06491 284.368777 
L 95.144306 296.105954 
L 97.223702 306.275635 
L 99.303099 315.130846 
L 101.382495 322.876942 
L 103.461892 329.681812 
L 105.541288 335.683649 
L 107.620684 340.99693 
L 109.700081 345.717047 
L 111.779477 349.923933 
L 113.858873 353.684918 
L 115.93827 357.056995 
L 118.017666 360.088629 
L 120.097063 362.821217 
L 122.176459 365.29026 
L 125.295554 368.565395 
L 128.414648 371.401698 
L 131.533743 373.869055 
L 134.652837 376.024452 
L 137.771932 377.914668 
L 140.891026 379.578353 
L 145.049819 381.498949 
L 149.208612 383.135307 
L 153.367405 384.536655 
L 158.565896 386.017172 
L 163.764387 387.252294 
L 170.002576 388.475933 
L 176.240765 389.475508 
L 183.518652 390.420354 
L 191.836238 391.27508 
L 201.193522 392.020487 
L 212.630202 392.704434 
L 226.146278 393.285697 
L 242.781449 393.774599 
L 264.615111 394.178162 
L 293.726661 394.476299 
L 336.354286 394.670255 
L 411.212556 394.755607 
L 559.889398 394.76 
L 559.889398 394.76 
" clip-path="url(#p84f49254de)" style="fill: none; stroke: #1f77b4; stroke-opacity: 0.6; stroke-width: 2; stroke-linecap: square"/>
   </g>
   <g id="line2d_28">
    <path d="M 73.987025 -1 
L 74.350342 13.513547 
L 75.39004 49.965023 
L 76.429739 82.077709 
L 77.469437 110.468797 
L 78.509135 135.653835 
L 79.548833 158.065648 
L 81.62823 195.974348 
L 83.707626 226.503092 
L 85.787022 251.335248 
L 87.866419 271.717298 
L 89.945815 288.585014 
L 92.025211 302.64976 
L 94.104608 314.458529 
L 96.184004 324.436365 
L 98.263401 332.916756 
L 100.342797 340.163704 
L 102.422193 346.387935 
L 104.50159 351.758952 
L 106.580986 356.414076 
L 108.660383 360.465301 
L 110.739779 364.004541 
L 112.819175 367.107674 
L 114.898572 369.837683 
L 116.977968 372.247122 
L 119.057364 374.380057 
L 121.136761 376.273608 
L 124.255855 378.732477 
L 127.37495 380.809202 
L 130.494045 382.572416 
L 133.613139 384.076757 
L 136.732234 385.366058 
L 140.891026 386.810833 
L 145.049819 388.001777 
L 150.24831 389.20981 
L 155.446801 390.174734 
L 161.68499 391.088416 
L 168.962878 391.903045 
L 177.280463 392.594739 
L 187.677445 393.210616 
L 200.153823 393.708674 
L 215.749296 394.102367 
L 237.582958 394.412895 
L 269.813602 394.623638 
L 325.957305 394.735928 
L 495.42811 394.76 
L 559.889398 394.76 
L 559.889398 394.76 
" clip-path="url(#p84f49254de)" style="fill: none; stroke: #1f77b4; stroke-opacity: 0.6; stroke-width: 2; stroke-linecap: square"/>
   </g>
   <g id="line2d_29">
    <path d="M 74.640981 -1 
L 75.39004 36.055681 
L 76.429739 79.893532 
L 77.469437 117.423779 
L 78.509135 149.688752 
L 79.548833 177.536957 
L 80.588531 201.662974 
L 81.62823 222.638385 
L 82.667928 240.935911 
L 83.707626 256.948359 
L 84.747324 271.003606 
L 85.787022 283.376504 
L 86.82672 294.298391 
L 87.866419 303.96474 
L 88.906117 312.541328 
L 89.945815 320.169249 
L 92.025211 333.043789 
L 94.104608 343.361154 
L 96.184004 351.695066 
L 98.263401 358.476288 
L 100.342797 364.031624 
L 102.422193 368.611415 
L 104.50159 372.409148 
L 106.580986 375.575625 
L 108.660383 378.229296 
L 110.739779 380.463876 
L 112.819175 382.354024 
L 114.898572 383.959598 
L 116.977968 385.328877 
L 119.057364 386.501028 
L 122.176459 387.957904 
L 125.295554 389.126483 
L 128.414648 390.070282 
L 132.573441 391.060469 
L 136.732234 391.819288 
L 141.930725 392.531514 
L 148.168914 393.142254 
L 155.446801 393.629836 
L 164.804085 394.032884 
L 178.320161 394.362837 
L 198.074427 394.587329 
L 232.384467 394.715739 
L 323.877908 394.758869 
L 559.889398 394.76 
L 559.889398 394.76 
" clip-path="url(#p84f49254de)" style="fill: none; stroke: #1f77b4; stroke-opacity: 0.6; stroke-width: 2; stroke-linecap: square"/>
   </g>
   <g id="patch_3">
    <path d="M 41.08 394.76 
L 41.08 7.2 
" style="fill: none; stroke: #000000; stroke-width: 0.8; stroke-linejoin: miter; stroke-linecap: square"/>
   </g>
   <g id="patch_4">
    <path d="M 41.08 394.76 
L 559.889398 394.76 
" style="fill: none; stroke: #000000; stroke-width: 0.8; stroke-linejoin: miter; stroke-linecap: square"/>
   </g>
   <g id="patch_5">
    <path d="M 236.624881 266.392662 
Q 189.521603 303.168507 142.418325 339.944351 
L 143.710662 341.599605 
Q 139.874928 342.374147 136.039193 343.14869 
Q 137.721032 339.615392 139.40287 336.082094 
L 140.695208 337.737347 
Q 187.798486 300.961502 234.901764 264.185658 
L 236.624881 266.392662 
z
" style="fill: #ff7f0e; stroke: #ff7f0e; stroke-linecap: round"/>
   </g>
   <g id="text_5">
    <!-- Incrementando $\gamma$ -->
    <g style="fill: #ff7f0e" transform="translate(188.893759 259.114) scale(0.14 -0.14)">
     <defs>
      <path id="DejaVuSans-49" d="M 628 4666 
L 1259 4666 
L 1259 0 
L 628 0 
L 628 4666 
z
" transform="scale(0.015625)"/>
      <path id="DejaVuSans-6e" d="M 3513 2113 
L 3513 0 
L 2938 0 
L 2938 2094 
Q 2938 2591 2744 2837 
Q 2550 3084 2163 3084 
Q 1697 3084 1428 2787 
Q 1159 2491 1159 1978 
L 1159 0 
L 581 0 
L 581 3500 
L 1159 3500 
L 1159 2956 
Q 1366 3272 1645 3428 
Q 1925 3584 2291 3584 
Q 2894 3584 3203 3211 
Q 3513 2838 3513 2113 
z
" transform="scale(0.015625)"/>
      <path id="DejaVuSans-63" d="M 3122 3366 
L 3122 2828 
Q 2878 2963 2633 3030 
Q 2388 3097 2138 3097 
Q 1578 3097 1268 2742 
Q 959 2388 959 1747 
Q 959 1106 1268 751 
Q 1578 397 2138 397 
Q 2388 397 2633 464 
Q 2878 531 3122 666 
L 3122 134 
Q 2881 22 2623 -34 
Q 2366 -91 2075 -91 
Q 1284 -91 818 406 
Q 353 903 353 1747 
Q 353 2603 823 3093 
Q 1294 3584 2113 3584 
Q 2378 3584 2631 3529 
Q 2884 3475 3122 3366 
z
" transform="scale(0.015625)"/>
      <path id="DejaVuSans-72" d="M 2631 2963 
Q 2534 3019 2420 3045 
Q 2306 3072 2169 3072 
Q 1681 3072 1420 2755 
Q 1159 2438 1159 1844 
L 1159 0 
L 581 0 
L 581 3500 
L 1159 3500 
L 1159 2956 
Q 1341 3275 1631 3429 
Q 1922 3584 2338 3584 
Q 2397 3584 2469 3576 
Q 2541 3569 2628 3553 
L 2631 2963 
z
" transform="scale(0.015625)"/>
      <path id="DejaVuSans-65" d="M 3597 1894 
L 3597 1613 
L 953 1613 
Q 991 1019 1311 708 
Q 1631 397 2203 397 
Q 2534 397 2845 478 
Q 3156 559 3463 722 
L 3463 178 
Q 3153 47 2828 -22 
Q 2503 -91 2169 -91 
Q 1331 -91 842 396 
Q 353 884 353 1716 
Q 353 2575 817 3079 
Q 1281 3584 2069 3584 
Q 2775 3584 3186 3129 
Q 3597 2675 3597 1894 
z
M 3022 2063 
Q 3016 2534 2758 2815 
Q 2500 3097 2075 3097 
Q 1594 3097 1305 2825 
Q 1016 2553 972 2059 
L 3022 2063 
z
" transform="scale(0.015625)"/>
      <path id="DejaVuSans-6d" d="M 3328 2828 
Q 3544 3216 3844 3400 
Q 4144 3584 4550 3584 
Q 5097 3584 5394 3201 
Q 5691 2819 5691 2113 
L 5691 0 
L 5113 0 
L 5113 2094 
Q 5113 2597 4934 2840 
Q 4756 3084 4391 3084 
Q 3944 3084 3684 2787 
Q 3425 2491 3425 1978 
L 3425 0 
L 2847 0 
L 2847 2094 
Q 2847 2600 2669 2842 
Q 2491 3084 2119 3084 
Q 1678 3084 1418 2786 
Q 1159 2488 1159 1978 
L 1159 0 
L 581 0 
L 581 3500 
L 1159 3500 
L 1159 2956 
Q 1356 3278 1631 3431 
Q 1906 3584 2284 3584 
Q 2666 3584 2933 3390 
Q 3200 3197 3328 2828 
z
" transform="scale(0.015625)"/>
      <path id="DejaVuSans-74" d="M 1172 4494 
L 1172 3500 
L 2356 3500 
L 2356 3053 
L 1172 3053 
L 1172 1153 
Q 1172 725 1289 603 
Q 1406 481 1766 481 
L 2356 481 
L 2356 0 
L 1766 0 
Q 1100 0 847 248 
Q 594 497 594 1153 
L 594 3053 
L 172 3053 
L 172 3500 
L 594 3500 
L 594 4494 
L 1172 4494 
z
" transform="scale(0.015625)"/>
      <path id="DejaVuSans-61" d="M 2194 1759 
Q 1497 1759 1228 1600 
Q 959 1441 959 1056 
Q 959 750 1161 570 
Q 1363 391 1709 391 
Q 2188 391 2477 730 
Q 2766 1069 2766 1631 
L 2766 1759 
L 2194 1759 
z
M 3341 1997 
L 3341 0 
L 2766 0 
L 2766 531 
Q 2569 213 2275 61 
Q 1981 -91 1556 -91 
Q 1019 -91 701 211 
Q 384 513 384 1019 
Q 384 1609 779 1909 
Q 1175 2209 1959 2209 
L 2766 2209 
L 2766 2266 
Q 2766 2663 2505 2880 
Q 2244 3097 1772 3097 
Q 1472 3097 1187 3025 
Q 903 2953 641 2809 
L 641 3341 
Q 956 3463 1253 3523 
Q 1550 3584 1831 3584 
Q 2591 3584 2966 3190 
Q 3341 2797 3341 1997 
z
" transform="scale(0.015625)"/>
      <path id="DejaVuSans-64" d="M 2906 2969 
L 2906 4863 
L 3481 4863 
L 3481 0 
L 2906 0 
L 2906 525 
Q 2725 213 2448 61 
Q 2172 -91 1784 -91 
Q 1150 -91 751 415 
Q 353 922 353 1747 
Q 353 2572 751 3078 
Q 1150 3584 1784 3584 
Q 2172 3584 2448 3432 
Q 2725 3281 2906 2969 
z
M 947 1747 
Q 947 1113 1208 752 
Q 1469 391 1925 391 
Q 2381 391 2643 752 
Q 2906 1113 2906 1747 
Q 2906 2381 2643 2742 
Q 2381 3103 1925 3103 
Q 1469 3103 1208 2742 
Q 947 2381 947 1747 
z
" transform="scale(0.015625)"/>
      <path id="DejaVuSans-6f" d="M 1959 3097 
Q 1497 3097 1228 2736 
Q 959 2375 959 1747 
Q 959 1119 1226 758 
Q 1494 397 1959 397 
Q 2419 397 2687 759 
Q 2956 1122 2956 1747 
Q 2956 2369 2687 2733 
Q 2419 3097 1959 3097 
z
M 1959 3584 
Q 2709 3584 3137 3096 
Q 3566 2609 3566 1747 
Q 3566 888 3137 398 
Q 2709 -91 1959 -91 
Q 1206 -91 779 398 
Q 353 888 353 1747 
Q 353 2609 779 3096 
Q 1206 3584 1959 3584 
z
" transform="scale(0.015625)"/>
      <path id="DejaVuSans-20" transform="scale(0.015625)"/>
      <path id="DejaVuSans-Oblique-3b3" d="M 1491 2950 
L 1838 788 
L 3456 3500 
L 4066 3500 
L 1972 0 
L 1713 -1331 
L 1138 -1331 
L 1397 0 
L 988 2613 
Q 925 3006 628 3006 
L 475 3006 
L 569 3500 
L 788 3500 
Q 1403 3500 1491 2950 
z
" transform="scale(0.015625)"/>
     </defs>
     <use xlink:href="#DejaVuSans-49" transform="translate(0 0.015625)"/>
     <use xlink:href="#DejaVuSans-6e" transform="translate(29.492188 0.015625)"/>
     <use xlink:href="#DejaVuSans-63" transform="translate(92.871094 0.015625)"/>
     <use xlink:href="#DejaVuSans-72" transform="translate(147.851562 0.015625)"/>
     <use xlink:href="#DejaVuSans-65" transform="translate(188.964844 0.015625)"/>
     <use xlink:href="#DejaVuSans-6d" transform="translate(250.488281 0.015625)"/>
     <use xlink:href="#DejaVuSans-65" transform="translate(347.900391 0.015625)"/>
     <use xlink:href="#DejaVuSans-6e" transform="translate(409.423828 0.015625)"/>
     <use xlink:href="#DejaVuSans-74" transform="translate(472.802734 0.015625)"/>
     <use xlink:href="#DejaVuSans-61" transform="translate(512.011719 0.015625)"/>
     <use xlink:href="#DejaVuSans-6e" transform="translate(573.291016 0.015625)"/>
     <use xlink:href="#DejaVuSans-64" transform="translate(636.669922 0.015625)"/>
     <use xlink:href="#DejaVuSans-6f" transform="translate(700.146484 0.015625)"/>
     <use xlink:href="#DejaVuSans-20" transform="translate(761.328125 0.015625)"/>
     <use xlink:href="#DejaVuSans-Oblique-3b3" transform="translate(793.115234 0.015625)"/>
    </g>
   </g>
   <g id="patch_6">
    <path d="M 127.581508 37.753886 
Q 109.333762 33.802583 91.086016 29.85128 
L 90.641589 31.903714 
Q 87.59041 29.452465 84.539231 27.001216 
Q 88.331121 26.031742 92.123012 25.062267 
L 91.678585 27.114701 
Q 109.926331 31.066005 128.174077 35.017308 
L 127.581508 37.753886 
z
" style="fill: #ff7f0e; stroke: #ff7f0e; stroke-linecap: round"/>
   </g>
   <g id="text_6">
    <g id="patch_7">
     <path d="M 129.832349 63.036 
L 211.732349 63.036 
L 211.732349 28.316 
L 129.832349 28.316 
z
" style="fill: #ffffff; opacity: 0.7"/>
    </g>
    <!-- $\lim_{\eta_i \to 0} U^R_i = \infty$ -->
    <g style="fill: #ff7f0e" transform="translate(134.872349 45.956) scale(0.14 -0.14)">
     <defs>
      <path id="DejaVuSans-6c" d="M 603 4863 
L 1178 4863 
L 1178 0 
L 603 0 
L 603 4863 
z
" transform="scale(0.015625)"/>
      <path id="DejaVuSans-69" d="M 603 3500 
L 1178 3500 
L 1178 0 
L 603 0 
L 603 3500 
z
M 603 4863 
L 1178 4863 
L 1178 4134 
L 603 4134 
L 603 4863 
z
" transform="scale(0.015625)"/>
      <path id="DejaVuSans-2192" d="M 5050 2147 
L 5050 1866 
L 3822 638 
L 3447 1013 
L 4175 1741 
L 366 1741 
L 366 2272 
L 4175 2272 
L 3447 3000 
L 3822 3375 
L 5050 2147 
z
" transform="scale(0.015625)"/>
      <path id="DejaVuSans-221e" d="M 2916 1091 
Q 2819 1203 2666 1466 
Q 2456 1091 2272 925 
Q 2041 725 1681 725 
Q 1259 725 981 1041 
Q 688 1372 688 1919 
Q 688 2444 981 2800 
Q 1244 3116 1688 3116 
Q 1916 3116 2084 3022 
Q 2281 2919 2416 2741 
Q 2541 2581 2666 2366 
Q 2875 2741 3059 2906 
Q 3291 3106 3650 3106 
Q 4072 3106 4350 2791 
Q 4644 2459 4644 1913 
Q 4644 1388 4350 1031 
Q 4088 716 3644 716 
Q 3416 716 3247 809 
Q 3078 894 2916 1091 
z
M 1647 1134 
Q 2163 1134 2472 1884 
Q 2075 2703 1647 2703 
Q 1334 2703 1175 2478 
Q 1003 2238 1003 1919 
Q 1003 1569 1175 1353 
Q 1350 1134 1647 1134 
z
M 3684 2697 
Q 3219 2697 2859 1947 
Q 3253 1128 3684 1128 
Q 3997 1128 4156 1353 
Q 4328 1594 4328 1913 
Q 4328 2263 4156 2478 
Q 3981 2697 3684 2697 
z
" transform="scale(0.015625)"/>
     </defs>
     <use xlink:href="#DejaVuSans-6c" transform="translate(11 0.620313)"/>
     <use xlink:href="#DejaVuSans-69" transform="translate(38.783203 0.620313)"/>
     <use xlink:href="#DejaVuSans-6d" transform="translate(66.566406 0.620313)"/>
     <use xlink:href="#DejaVuSans-Oblique-3b7" transform="translate(0 -70.082812) scale(0.7)"/>
     <use xlink:href="#DejaVuSans-Oblique-69" transform="translate(44.365234 -81.567187) scale(0.49)"/>
     <use xlink:href="#DejaVuSans-2192" transform="translate(71.25804 -70.082812) scale(0.7)"/>
     <use xlink:href="#DejaVuSans-30" transform="translate(129.910384 -70.082812) scale(0.7)"/>
     <use xlink:href="#DejaVuSans-Oblique-55" transform="translate(174.446516 0.620313)"/>
     <use xlink:href="#DejaVuSans-Oblique-52" transform="translate(254.656647 38.965625) scale(0.7)"/>
     <use xlink:href="#DejaVuSans-Oblique-69" transform="translate(247.639876 -26.723437) scale(0.7)"/>
     <use xlink:href="#DejaVuSans-3d" transform="translate(325.511139 0.620313)"/>
     <use xlink:href="#DejaVuSans-221e" transform="translate(428.782623 0.620313)"/>
    </g>
   </g>
   <g id="patch_8">
    <path d="M 500.526156 327.504897 
Q 493.20716 353.11984 485.888164 378.734782 
L 487.907355 379.311729 
Q 485.262881 382.197091 482.618406 385.082454 
Q 481.897562 381.235514 481.176718 377.388574 
L 483.195909 377.96552 
Q 490.514905 352.350578 497.833901 326.735635 
L 500.526156 327.504897 
z
" style="fill: #ff7f0e; stroke: #ff7f0e; stroke-linecap: round"/>
   </g>
   <g id="text_7">
    <g id="patch_9">
     <path d="M 456.516895 325.199563 
L 559.50002 325.199563 
L 559.50002 266.23725 
L 456.516895 266.23725 
z
" style="fill: #ffffff; opacity: 0.7"/>
    </g>
    <!-- $U^R_i = 0$ fuera -->
    <g style="fill: #ff7f0e" transform="translate(465.098458 284.885687) scale(0.14 -0.14)">
     <defs>
      <path id="DejaVuSans-66" d="M 2375 4863 
L 2375 4384 
L 1825 4384 
Q 1516 4384 1395 4259 
Q 1275 4134 1275 3809 
L 1275 3500 
L 2222 3500 
L 2222 3053 
L 1275 3053 
L 1275 0 
L 697 0 
L 697 3053 
L 147 3053 
L 147 3500 
L 697 3500 
L 697 3744 
Q 697 4328 969 4595 
Q 1241 4863 1831 4863 
L 2375 4863 
z
" transform="scale(0.015625)"/>
      <path id="DejaVuSans-75" d="M 544 1381 
L 544 3500 
L 1119 3500 
L 1119 1403 
Q 1119 906 1312 657 
Q 1506 409 1894 409 
Q 2359 409 2629 706 
Q 2900 1003 2900 1516 
L 2900 3500 
L 3475 3500 
L 3475 0 
L 2900 0 
L 2900 538 
Q 2691 219 2414 64 
Q 2138 -91 1772 -91 
Q 1169 -91 856 284 
Q 544 659 544 1381 
z
M 1991 3584 
L 1991 3584 
z
" transform="scale(0.015625)"/>
     </defs>
     <use xlink:href="#DejaVuSans-Oblique-55" transform="translate(0 0.620313)"/>
     <use xlink:href="#DejaVuSans-Oblique-52" transform="translate(80.21013 38.965625) scale(0.7)"/>
     <use xlink:href="#DejaVuSans-Oblique-69" transform="translate(73.193359 -26.723437) scale(0.7)"/>
     <use xlink:href="#DejaVuSans-3d" transform="translate(151.064622 0.620313)"/>
     <use xlink:href="#DejaVuSans-30" transform="translate(254.336107 0.620313)"/>
     <use xlink:href="#DejaVuSans-20" transform="translate(317.959154 0.620313)"/>
     <use xlink:href="#DejaVuSans-66" transform="translate(349.746263 0.620313)"/>
     <use xlink:href="#DejaVuSans-75" transform="translate(384.951341 0.620313)"/>
     <use xlink:href="#DejaVuSans-65" transform="translate(448.330247 0.620313)"/>
     <use xlink:href="#DejaVuSans-72" transform="translate(509.853685 0.620313)"/>
     <use xlink:href="#DejaVuSans-61" transform="translate(550.966966 0.620313)"/>
    </g>
    <!--  del rango de -->
    <g style="fill: #ff7f0e" transform="translate(461.556895 301.571062) scale(0.14 -0.14)">
     <defs>
      <path id="DejaVuSans-67" d="M 2906 1791 
Q 2906 2416 2648 2759 
Q 2391 3103 1925 3103 
Q 1463 3103 1205 2759 
Q 947 2416 947 1791 
Q 947 1169 1205 825 
Q 1463 481 1925 481 
Q 2391 481 2648 825 
Q 2906 1169 2906 1791 
z
M 3481 434 
Q 3481 -459 3084 -895 
Q 2688 -1331 1869 -1331 
Q 1566 -1331 1297 -1286 
Q 1028 -1241 775 -1147 
L 775 -588 
Q 1028 -725 1275 -790 
Q 1522 -856 1778 -856 
Q 2344 -856 2625 -561 
Q 2906 -266 2906 331 
L 2906 616 
Q 2728 306 2450 153 
Q 2172 0 1784 0 
Q 1141 0 747 490 
Q 353 981 353 1791 
Q 353 2603 747 3093 
Q 1141 3584 1784 3584 
Q 2172 3584 2450 3431 
Q 2728 3278 2906 2969 
L 2906 3500 
L 3481 3500 
L 3481 434 
z
" transform="scale(0.015625)"/>
     </defs>
     <use xlink:href="#DejaVuSans-20"/>
     <use xlink:href="#DejaVuSans-64" x="31.787109"/>
     <use xlink:href="#DejaVuSans-65" x="95.263672"/>
     <use xlink:href="#DejaVuSans-6c" x="156.787109"/>
     <use xlink:href="#DejaVuSans-20" x="184.570312"/>
     <use xlink:href="#DejaVuSans-72" x="216.357422"/>
     <use xlink:href="#DejaVuSans-61" x="257.470703"/>
     <use xlink:href="#DejaVuSans-6e" x="318.75"/>
     <use xlink:href="#DejaVuSans-67" x="382.128906"/>
     <use xlink:href="#DejaVuSans-6f" x="445.605469"/>
     <use xlink:href="#DejaVuSans-20" x="506.787109"/>
     <use xlink:href="#DejaVuSans-64" x="538.574219"/>
     <use xlink:href="#DejaVuSans-65" x="602.050781"/>
    </g>
    <!--  influencia -->
    <g style="fill: #ff7f0e" transform="translate(471.730958 317.248) scale(0.14 -0.14)">
     <use xlink:href="#DejaVuSans-20"/>
     <use xlink:href="#DejaVuSans-69" x="31.787109"/>
     <use xlink:href="#DejaVuSans-6e" x="59.570312"/>
     <use xlink:href="#DejaVuSans-66" x="122.949219"/>
     <use xlink:href="#DejaVuSans-6c" x="158.154297"/>
     <use xlink:href="#DejaVuSans-75" x="185.9375"/>
     <use xlink:href="#DejaVuSans-65" x="249.316406"/>
     <use xlink:href="#DejaVuSans-6e" x="310.839844"/>
     <use xlink:href="#DejaVuSans-63" x="374.21875"/>
     <use xlink:href="#DejaVuSans-69" x="429.199219"/>
     <use xlink:href="#DejaVuSans-61" x="456.982422"/>
    </g>
   </g>
   <g id="line2d_30">
    <path d="M 74.468216 -1 
L 76.429739 45.432577 
L 78.509135 86.57205 
L 80.588531 121.197057 
L 82.667928 150.595989 
L 84.747324 175.75537 
L 86.82672 197.440713 
L 88.906117 216.253225 
L 90.985513 232.670263 
L 93.06491 247.074643 
L 95.144306 259.776177 
L 97.223702 271.027716 
L 99.303099 281.037216 
L 101.382495 289.97695 
L 103.461892 297.990574 
L 105.541288 305.19863 
L 107.620684 311.702845 
L 109.700081 317.58954 
L 111.779477 322.932325 
L 113.858873 327.794279 
L 115.93827 332.229691 
L 118.017666 336.285487 
L 120.097063 340.002388 
L 123.216157 345.018664 
L 126.335252 349.452758 
L 129.454346 353.388289 
L 132.573441 356.894577 
L 135.692535 360.029466 
L 138.81163 362.841511 
L 141.930725 365.371702 
L 145.049819 367.654829 
L 148.168914 369.720559 
L 152.327707 372.180109 
L 156.486499 374.348686 
L 160.645292 376.268104 
L 164.804085 377.973069 
L 170.002576 379.846401 
L 175.201067 381.476264 
L 181.439256 383.163496 
L 187.677445 384.606793 
L 194.955332 386.037423 
L 202.23322 387.244517 
L 210.550805 388.402102 
L 219.908089 389.476901 
L 230.305071 390.447731 
L 242.781449 391.372493 
L 256.297526 392.149672 
L 272.932697 392.869699 
L 292.686962 393.482375 
L 316.600021 393.983499 
L 345.71157 394.36222 
L 384.180403 394.626859 
L 437.205011 394.753091 
L 559.889398 394.76 
L 559.889398 394.76 
" clip-path="url(#p84f49254de)" style="fill: none; stroke: #1f77b4; stroke-width: 3; stroke-linecap: square"/>
   </g>
  </g>
 </g>
 <defs>
  <clipPath id="p84f49254de">
   <rect x="41.08" y="7.2" width="518.809398" height="387.56"/>
  </clipPath>
 </defs>
</svg>
