<?xml version="1.0" encoding="utf-8" standalone="no"?>
<!DOCTYPE svg PUBLIC "-//W3C//DTD SVG 1.1//EN"
  "http://www.w3.org/Graphics/SVG/1.1/DTD/svg11.dtd">
<svg xmlns:xlink="http://www.w3.org/1999/xlink" width="481.038125pt" height="496.63625pt" viewBox="0 0 481.038125 496.63625" xmlns="http://www.w3.org/2000/svg" version="1.1">
 <metadata>
  <rdf:RDF xmlns:dc="http://purl.org/dc/elements/1.1/" xmlns:cc="http://creativecommons.org/ns#" xmlns:rdf="http://www.w3.org/1999/02/22-rdf-syntax-ns#">
   <cc:Work>
    <dc:type rdf:resource="http://purl.org/dc/dcmitype/StillImage"/>
    <dc:date>2025-10-11T13:48:27.785942</dc:date>
    <dc:format>image/svg+xml</dc:format>
    <dc:creator>
     <cc:Agent>
      <dc:title>Matplotlib v3.6.3, https://matplotlib.org/</dc:title>
     </cc:Agent>
    </dc:creator>
   </cc:Work>
  </rdf:RDF>
 </metadata>
 <defs>
  <style type="text/css">*{stroke-linejoin: round; stroke-linecap: butt}</style>
 </defs>
 <g id="figure_1">
  <g id="patch_1">
   <path d="M 0 496.63625 
L 481.038125 496.63625 
L 481.038125 0 
L 0 0 
z
" style="fill: #ffffff"/>
  </g>
  <g id="axes_1">
   <g id="patch_2">
    <path d="M 20.878125 475.758125 
L 473.838125 475.758125 
L 473.838125 22.798125 
L 20.878125 22.798125 
z
" style="fill: #ffffff"/>
   </g>
   <g id="line2d_1">
    <path d="M 152.991458 107.728125 
L 341.724792 249.278125 
" clip-path="url(#pc7e5a99a2d)" style="fill: none; stroke-dasharray: 5.55,2.4; stroke-dashoffset: 0; stroke: #000000; stroke-opacity: 0.8; stroke-width: 1.5"/>
   </g>
   <g id="line2d_2">
    <path d="M 152.991458 390.828125 
L 341.724792 249.278125 
" clip-path="url(#pc7e5a99a2d)" style="fill: none; stroke-dasharray: 5.55,2.4; stroke-dashoffset: 0; stroke: #000000; stroke-opacity: 0.8; stroke-width: 1.5"/>
   </g>
   <g id="matplotlib.axis_1">
    <g id="xtick_1">
     <g id="line2d_3">
      <path d="M 58.624792 475.758125 
L 58.624792 22.798125 
" clip-path="url(#pc7e5a99a2d)" style="fill: none; stroke: #b0b0b0; stroke-width: 0.8; stroke-linecap: square"/>
     </g>
    </g>
    <g id="xtick_2">
     <g id="line2d_4">
      <path d="M 152.991458 475.758125 
L 152.991458 22.798125 
" clip-path="url(#pc7e5a99a2d)" style="fill: none; stroke: #b0b0b0; stroke-width: 0.8; stroke-linecap: square"/>
     </g>
    </g>
    <g id="xtick_3">
     <g id="line2d_5">
      <path d="M 247.358125 475.758125 
L 247.358125 22.798125 
" clip-path="url(#pc7e5a99a2d)" style="fill: none; stroke: #b0b0b0; stroke-width: 0.8; stroke-linecap: square"/>
     </g>
    </g>
    <g id="xtick_4">
     <g id="line2d_6">
      <path d="M 341.724792 475.758125 
L 341.724792 22.798125 
" clip-path="url(#pc7e5a99a2d)" style="fill: none; stroke: #b0b0b0; stroke-width: 0.8; stroke-linecap: square"/>
     </g>
    </g>
    <g id="xtick_5">
     <g id="line2d_7">
      <path d="M 436.091458 475.758125 
L 436.091458 22.798125 
" clip-path="url(#pc7e5a99a2d)" style="fill: none; stroke: #b0b0b0; stroke-width: 0.8; stroke-linecap: square"/>
     </g>
    </g>
    <g id="text_1">
     <!-- x -->
     <g transform="translate(244.39875 487.356562) scale(0.1 -0.1)">
      <defs>
       <path id="DejaVuSans-78" d="M 3513 3500 
L 2247 1797 
L 3578 0 
L 2900 0 
L 1881 1375 
L 863 0 
L 184 0 
L 1544 1831 
L 300 3500 
L 978 3500 
L 1906 2253 
L 2834 3500 
L 3513 3500 
z
" transform="scale(0.015625)"/>
      </defs>
      <use xlink:href="#DejaVuSans-78"/>
     </g>
    </g>
   </g>
   <g id="matplotlib.axis_2">
    <g id="ytick_1">
     <g id="line2d_8">
      <path d="M 20.878125 438.011458 
L 473.838125 438.011458 
" clip-path="url(#pc7e5a99a2d)" style="fill: none; stroke: #b0b0b0; stroke-width: 0.8; stroke-linecap: square"/>
     </g>
    </g>
    <g id="ytick_2">
     <g id="line2d_9">
      <path d="M 20.878125 343.644792 
L 473.838125 343.644792 
" clip-path="url(#pc7e5a99a2d)" style="fill: none; stroke: #b0b0b0; stroke-width: 0.8; stroke-linecap: square"/>
     </g>
    </g>
    <g id="ytick_3">
     <g id="line2d_10">
      <path d="M 20.878125 249.278125 
L 473.838125 249.278125 
" clip-path="url(#pc7e5a99a2d)" style="fill: none; stroke: #b0b0b0; stroke-width: 0.8; stroke-linecap: square"/>
     </g>
    </g>
    <g id="ytick_4">
     <g id="line2d_11">
      <path d="M 20.878125 154.911458 
L 473.838125 154.911458 
" clip-path="url(#pc7e5a99a2d)" style="fill: none; stroke: #b0b0b0; stroke-width: 0.8; stroke-linecap: square"/>
     </g>
    </g>
    <g id="ytick_5">
     <g id="line2d_12">
      <path d="M 20.878125 60.544792 
L 473.838125 60.544792 
" clip-path="url(#pc7e5a99a2d)" style="fill: none; stroke: #b0b0b0; stroke-width: 0.8; stroke-linecap: square"/>
     </g>
    </g>
    <g id="text_2">
     <!-- y -->
     <g transform="translate(14.798438 252.2375) rotate(-90) scale(0.1 -0.1)">
      <defs>
       <path id="DejaVuSans-79" d="M 2059 -325 
Q 1816 -950 1584 -1140 
Q 1353 -1331 966 -1331 
L 506 -1331 
L 506 -850 
L 844 -850 
Q 1081 -850 1212 -737 
Q 1344 -625 1503 -206 
L 1606 56 
L 191 3500 
L 800 3500 
L 1894 763 
L 2988 3500 
L 3597 3500 
L 2059 -325 
z
" transform="scale(0.015625)"/>
      </defs>
      <use xlink:href="#DejaVuSans-79"/>
     </g>
    </g>
   </g>
   <g id="text_3">
    <!-- Principio de superposición -->
    <g transform="translate(168.873438 16.798125) scale(0.12 -0.12)">
     <defs>
      <path id="DejaVuSans-50" d="M 1259 4147 
L 1259 2394 
L 2053 2394 
Q 2494 2394 2734 2622 
Q 2975 2850 2975 3272 
Q 2975 3691 2734 3919 
Q 2494 4147 2053 4147 
L 1259 4147 
z
M 628 4666 
L 2053 4666 
Q 2838 4666 3239 4311 
Q 3641 3956 3641 3272 
Q 3641 2581 3239 2228 
Q 2838 1875 2053 1875 
L 1259 1875 
L 1259 0 
L 628 0 
L 628 4666 
z
" transform="scale(0.015625)"/>
      <path id="DejaVuSans-72" d="M 2631 2963 
Q 2534 3019 2420 3045 
Q 2306 3072 2169 3072 
Q 1681 3072 1420 2755 
Q 1159 2438 1159 1844 
L 1159 0 
L 581 0 
L 581 3500 
L 1159 3500 
L 1159 2956 
Q 1341 3275 1631 3429 
Q 1922 3584 2338 3584 
Q 2397 3584 2469 3576 
Q 2541 3569 2628 3553 
L 2631 2963 
z
" transform="scale(0.015625)"/>
      <path id="DejaVuSans-69" d="M 603 3500 
L 1178 3500 
L 1178 0 
L 603 0 
L 603 3500 
z
M 603 4863 
L 1178 4863 
L 1178 4134 
L 603 4134 
L 603 4863 
z
" transform="scale(0.015625)"/>
      <path id="DejaVuSans-6e" d="M 3513 2113 
L 3513 0 
L 2938 0 
L 2938 2094 
Q 2938 2591 2744 2837 
Q 2550 3084 2163 3084 
Q 1697 3084 1428 2787 
Q 1159 2491 1159 1978 
L 1159 0 
L 581 0 
L 581 3500 
L 1159 3500 
L 1159 2956 
Q 1366 3272 1645 3428 
Q 1925 3584 2291 3584 
Q 2894 3584 3203 3211 
Q 3513 2838 3513 2113 
z
" transform="scale(0.015625)"/>
      <path id="DejaVuSans-63" d="M 3122 3366 
L 3122 2828 
Q 2878 2963 2633 3030 
Q 2388 3097 2138 3097 
Q 1578 3097 1268 2742 
Q 959 2388 959 1747 
Q 959 1106 1268 751 
Q 1578 397 2138 397 
Q 2388 397 2633 464 
Q 2878 531 3122 666 
L 3122 134 
Q 2881 22 2623 -34 
Q 2366 -91 2075 -91 
Q 1284 -91 818 406 
Q 353 903 353 1747 
Q 353 2603 823 3093 
Q 1294 3584 2113 3584 
Q 2378 3584 2631 3529 
Q 2884 3475 3122 3366 
z
" transform="scale(0.015625)"/>
      <path id="DejaVuSans-70" d="M 1159 525 
L 1159 -1331 
L 581 -1331 
L 581 3500 
L 1159 3500 
L 1159 2969 
Q 1341 3281 1617 3432 
Q 1894 3584 2278 3584 
Q 2916 3584 3314 3078 
Q 3713 2572 3713 1747 
Q 3713 922 3314 415 
Q 2916 -91 2278 -91 
Q 1894 -91 1617 61 
Q 1341 213 1159 525 
z
M 3116 1747 
Q 3116 2381 2855 2742 
Q 2594 3103 2138 3103 
Q 1681 3103 1420 2742 
Q 1159 2381 1159 1747 
Q 1159 1113 1420 752 
Q 1681 391 2138 391 
Q 2594 391 2855 752 
Q 3116 1113 3116 1747 
z
" transform="scale(0.015625)"/>
      <path id="DejaVuSans-6f" d="M 1959 3097 
Q 1497 3097 1228 2736 
Q 959 2375 959 1747 
Q 959 1119 1226 758 
Q 1494 397 1959 397 
Q 2419 397 2687 759 
Q 2956 1122 2956 1747 
Q 2956 2369 2687 2733 
Q 2419 3097 1959 3097 
z
M 1959 3584 
Q 2709 3584 3137 3096 
Q 3566 2609 3566 1747 
Q 3566 888 3137 398 
Q 2709 -91 1959 -91 
Q 1206 -91 779 398 
Q 353 888 353 1747 
Q 353 2609 779 3096 
Q 1206 3584 1959 3584 
z
" transform="scale(0.015625)"/>
      <path id="DejaVuSans-20" transform="scale(0.015625)"/>
      <path id="DejaVuSans-64" d="M 2906 2969 
L 2906 4863 
L 3481 4863 
L 3481 0 
L 2906 0 
L 2906 525 
Q 2725 213 2448 61 
Q 2172 -91 1784 -91 
Q 1150 -91 751 415 
Q 353 922 353 1747 
Q 353 2572 751 3078 
Q 1150 3584 1784 3584 
Q 2172 3584 2448 3432 
Q 2725 3281 2906 2969 
z
M 947 1747 
Q 947 1113 1208 752 
Q 1469 391 1925 391 
Q 2381 391 2643 752 
Q 2906 1113 2906 1747 
Q 2906 2381 2643 2742 
Q 2381 3103 1925 3103 
Q 1469 3103 1208 2742 
Q 947 2381 947 1747 
z
" transform="scale(0.015625)"/>
      <path id="DejaVuSans-65" d="M 3597 1894 
L 3597 1613 
L 953 1613 
Q 991 1019 1311 708 
Q 1631 397 2203 397 
Q 2534 397 2845 478 
Q 3156 559 3463 722 
L 3463 178 
Q 3153 47 2828 -22 
Q 2503 -91 2169 -91 
Q 1331 -91 842 396 
Q 353 884 353 1716 
Q 353 2575 817 3079 
Q 1281 3584 2069 3584 
Q 2775 3584 3186 3129 
Q 3597 2675 3597 1894 
z
M 3022 2063 
Q 3016 2534 2758 2815 
Q 2500 3097 2075 3097 
Q 1594 3097 1305 2825 
Q 1016 2553 972 2059 
L 3022 2063 
z
" transform="scale(0.015625)"/>
      <path id="DejaVuSans-73" d="M 2834 3397 
L 2834 2853 
Q 2591 2978 2328 3040 
Q 2066 3103 1784 3103 
Q 1356 3103 1142 2972 
Q 928 2841 928 2578 
Q 928 2378 1081 2264 
Q 1234 2150 1697 2047 
L 1894 2003 
Q 2506 1872 2764 1633 
Q 3022 1394 3022 966 
Q 3022 478 2636 193 
Q 2250 -91 1575 -91 
Q 1294 -91 989 -36 
Q 684 19 347 128 
L 347 722 
Q 666 556 975 473 
Q 1284 391 1588 391 
Q 1994 391 2212 530 
Q 2431 669 2431 922 
Q 2431 1156 2273 1281 
Q 2116 1406 1581 1522 
L 1381 1569 
Q 847 1681 609 1914 
Q 372 2147 372 2553 
Q 372 3047 722 3315 
Q 1072 3584 1716 3584 
Q 2034 3584 2315 3537 
Q 2597 3491 2834 3397 
z
" transform="scale(0.015625)"/>
      <path id="DejaVuSans-75" d="M 544 1381 
L 544 3500 
L 1119 3500 
L 1119 1403 
Q 1119 906 1312 657 
Q 1506 409 1894 409 
Q 2359 409 2629 706 
Q 2900 1003 2900 1516 
L 2900 3500 
L 3475 3500 
L 3475 0 
L 2900 0 
L 2900 538 
Q 2691 219 2414 64 
Q 2138 -91 1772 -91 
Q 1169 -91 856 284 
Q 544 659 544 1381 
z
M 1991 3584 
L 1991 3584 
z
" transform="scale(0.015625)"/>
      <path id="DejaVuSans-f3" d="M 1959 3097 
Q 1497 3097 1228 2736 
Q 959 2375 959 1747 
Q 959 1119 1226 758 
Q 1494 397 1959 397 
Q 2419 397 2687 759 
Q 2956 1122 2956 1747 
Q 2956 2369 2687 2733 
Q 2419 3097 1959 3097 
z
M 1959 3584 
Q 2709 3584 3137 3096 
Q 3566 2609 3566 1747 
Q 3566 888 3137 398 
Q 2709 -91 1959 -91 
Q 1206 -91 779 398 
Q 353 888 353 1747 
Q 353 2609 779 3096 
Q 1206 3584 1959 3584 
z
M 2394 5119 
L 3016 5119 
L 1997 3944 
L 1519 3944 
L 2394 5119 
z
" transform="scale(0.015625)"/>
     </defs>
     <use xlink:href="#DejaVuSans-50"/>
     <use xlink:href="#DejaVuSans-72" x="58.552734"/>
     <use xlink:href="#DejaVuSans-69" x="99.666016"/>
     <use xlink:href="#DejaVuSans-6e" x="127.449219"/>
     <use xlink:href="#DejaVuSans-63" x="190.828125"/>
     <use xlink:href="#DejaVuSans-69" x="245.808594"/>
     <use xlink:href="#DejaVuSans-70" x="273.591797"/>
     <use xlink:href="#DejaVuSans-69" x="337.068359"/>
     <use xlink:href="#DejaVuSans-6f" x="364.851562"/>
     <use xlink:href="#DejaVuSans-20" x="426.033203"/>
     <use xlink:href="#DejaVuSans-64" x="457.820312"/>
     <use xlink:href="#DejaVuSans-65" x="521.296875"/>
     <use xlink:href="#DejaVuSans-20" x="582.820312"/>
     <use xlink:href="#DejaVuSans-73" x="614.607422"/>
     <use xlink:href="#DejaVuSans-75" x="666.707031"/>
     <use xlink:href="#DejaVuSans-70" x="730.085938"/>
     <use xlink:href="#DejaVuSans-65" x="793.5625"/>
     <use xlink:href="#DejaVuSans-72" x="855.085938"/>
     <use xlink:href="#DejaVuSans-70" x="896.199219"/>
     <use xlink:href="#DejaVuSans-6f" x="959.675781"/>
     <use xlink:href="#DejaVuSans-73" x="1020.857422"/>
     <use xlink:href="#DejaVuSans-69" x="1072.957031"/>
     <use xlink:href="#DejaVuSans-63" x="1100.740234"/>
     <use xlink:href="#DejaVuSans-69" x="1155.720703"/>
     <use xlink:href="#DejaVuSans-f3" x="1183.503906"/>
     <use xlink:href="#DejaVuSans-6e" x="1244.685547"/>
    </g>
   </g>
   <g id="Quiver_1">
    <path d="M 340.875492 250.410525 
L 276.854125 202.3945 
L 277.703425 208.3396 
L 267.511825 193.6184 
L 284.497825 199.2804 
L 278.552725 200.1297 
L 342.574092 248.145725 
L 340.875492 250.410525 
" clip-path="url(#pc7e5a99a2d)" style="fill: #1f77b4"/>
   </g>
   <g id="Quiver_2">
    <path d="M 340.875492 248.145725 
L 404.896858 200.1297 
L 398.951758 199.2804 
L 415.937758 193.6184 
L 405.746158 208.3396 
L 406.595458 202.3945 
L 342.574092 250.410525 
L 340.875492 248.145725 
" clip-path="url(#pc7e5a99a2d)" style="fill: #d62728"/>
   </g>
   <g id="Quiver_3">
    <path d="M 340.309292 249.278125 
L 340.309292 150.698175 
L 336.062792 154.944675 
L 341.724792 137.958675 
L 347.386792 154.944675 
L 343.140292 150.698175 
L 343.140292 249.278125 
L 340.309292 249.278125 
" clip-path="url(#pc7e5a99a2d)" style="fill: #2ca02c"/>
   </g>
   <g id="PathCollection_1">
    <defs>
     <path id="m2ef309289f" d="M 0 5 
C 1.326016 5 2.597899 4.473168 3.535534 3.535534 
C 4.473168 2.597899 5 1.326016 5 0 
C 5 -1.326016 4.473168 -2.597899 3.535534 -3.535534 
C 2.597899 -4.473168 1.326016 -5 0 -5 
C -1.326016 -5 -2.597899 -4.473168 -3.535534 -3.535534 
C -4.473168 -2.597899 -5 -1.326016 -5 0 
C -5 1.326016 -4.473168 2.597899 -3.535534 3.535534 
C -2.597899 4.473168 -1.326016 5 0 5 
z
" style="stroke: #1f77b4"/>
    </defs>
    <g clip-path="url(#pc7e5a99a2d)">
     <use xlink:href="#m2ef309289f" x="152.991458" y="107.728125" style="fill: #1f77b4; stroke: #1f77b4"/>
    </g>
   </g>
   <g id="PathCollection_2">
    <defs>
     <path id="m5be3787ed3" d="M 0 5 
C 1.326016 5 2.597899 4.473168 3.535534 3.535534 
C 4.473168 2.597899 5 1.326016 5 0 
C 5 -1.326016 4.473168 -2.597899 3.535534 -3.535534 
C 2.597899 -4.473168 1.326016 -5 0 -5 
C -1.326016 -5 -2.597899 -4.473168 -3.535534 -3.535534 
C -4.473168 -2.597899 -5 -1.326016 -5 0 
C -5 1.326016 -4.473168 2.597899 -3.535534 3.535534 
C -2.597899 4.473168 -1.326016 5 0 5 
z
" style="stroke: #d62728"/>
    </defs>
    <g clip-path="url(#pc7e5a99a2d)">
     <use xlink:href="#m5be3787ed3" x="152.991458" y="390.828125" style="fill: #d62728; stroke: #d62728"/>
    </g>
   </g>
   <g id="PathCollection_3">
    <defs>
     <path id="m6149152d02" d="M 0 3.535534 
C 0.937635 3.535534 1.836992 3.163008 2.5 2.5 
C 3.163008 1.836992 3.535534 0.937635 3.535534 0 
C 3.535534 -0.937635 3.163008 -1.836992 2.5 -2.5 
C 1.836992 -3.163008 0.937635 -3.535534 0 -3.535534 
C -0.937635 -3.535534 -1.836992 -3.163008 -2.5 -2.5 
C -3.163008 -1.836992 -3.535534 -0.937635 -3.535534 0 
C -3.535534 0.937635 -3.163008 1.836992 -2.5 2.5 
C -1.836992 3.163008 -0.937635 3.535534 0 3.535534 
z
" style="stroke: #000000"/>
    </defs>
    <g clip-path="url(#pc7e5a99a2d)">
     <use xlink:href="#m6149152d02" x="341.724792" y="249.278125" style="stroke: #000000"/>
    </g>
   </g>
   <g id="text_4">
    <!-- $q^-$ -->
    <g style="fill: #1f77b4" transform="translate(115.294792 141.694792) scale(0.18 -0.18)">
     <defs>
      <path id="DejaVuSans-Oblique-71" d="M 2669 525 
Q 2438 222 2123 65 
Q 1809 -91 1428 -91 
Q 897 -91 595 267 
Q 294 625 294 1253 
Q 294 1759 480 2231 
Q 666 2703 1013 3078 
Q 1238 3322 1530 3453 
Q 1822 3584 2144 3584 
Q 2531 3584 2781 3431 
Q 3031 3278 3144 2969 
L 3244 3494 
L 3822 3494 
L 2888 -1319 
L 2309 -1319 
L 2669 525 
z
M 891 1338 
Q 891 875 1084 633 
Q 1278 391 1644 391 
Q 2188 391 2572 911 
Q 2956 1431 2956 2175 
Q 2956 2625 2757 2864 
Q 2559 3103 2188 3103 
Q 1916 3103 1684 2976 
Q 1453 2850 1281 2606 
Q 1100 2350 995 2006 
Q 891 1663 891 1338 
z
" transform="scale(0.015625)"/>
      <path id="DejaVuSans-2212" d="M 678 2272 
L 4684 2272 
L 4684 1741 
L 678 1741 
L 678 2272 
z
" transform="scale(0.015625)"/>
     </defs>
     <use xlink:href="#DejaVuSans-Oblique-71" transform="translate(0 0.86875)"/>
     <use xlink:href="#DejaVuSans-2212" transform="translate(81.764154 39.15) scale(0.7)"/>
    </g>
   </g>
   <g id="text_5">
    <!-- $q^+$ -->
    <g style="fill: #d62728" transform="translate(115.294792 368.021458) scale(0.18 -0.18)">
     <defs>
      <path id="DejaVuSans-2b" d="M 2944 4013 
L 2944 2272 
L 4684 2272 
L 4684 1741 
L 2944 1741 
L 2944 0 
L 2419 0 
L 2419 1741 
L 678 1741 
L 678 2272 
L 2419 2272 
L 2419 4013 
L 2944 4013 
z
" transform="scale(0.015625)"/>
     </defs>
     <use xlink:href="#DejaVuSans-Oblique-71" transform="translate(0 0.826562)"/>
     <use xlink:href="#DejaVuSans-2b" transform="translate(81.764154 39.107812) scale(0.7)"/>
    </g>
   </g>
   <g id="text_6">
    <!-- $\vec{E} = \vec{E_{q^-}} + \vec{E_{q^+}}$ -->
    <g style="fill: #2ca02c" transform="translate(351.161458 136.038125) scale(0.16 -0.16)">
     <defs>
      <path id="DejaVuSans-20d7" d="M -3009 4066 
L -3009 4378 
L -694 4378 
L -1106 4863 
L -713 4863 
L -166 4222 
L -713 3581 
L -1106 3581 
L -694 4066 
L -3009 4066 
z
" transform="scale(0.015625)"/>
      <path id="DejaVuSans-Oblique-45" d="M 1081 4666 
L 4031 4666 
L 3928 4134 
L 1606 4134 
L 1338 2753 
L 3566 2753 
L 3463 2222 
L 1234 2222 
L 909 531 
L 3284 531 
L 3181 0 
L 172 0 
L 1081 4666 
z
" transform="scale(0.015625)"/>
      <path id="DejaVuSans-3d" d="M 678 2906 
L 4684 2906 
L 4684 2381 
L 678 2381 
L 678 2906 
z
M 678 1631 
L 4684 1631 
L 4684 1100 
L 678 1100 
L 678 1631 
z
" transform="scale(0.015625)"/>
     </defs>
     <use xlink:href="#DejaVuSans-20d7" transform="translate(63.811523 30.015625)"/>
     <use xlink:href="#DejaVuSans-Oblique-45" transform="translate(0 0.5625)"/>
     <use xlink:href="#DejaVuSans-3d" transform="translate(82.666016 0.5625)"/>
     <use xlink:href="#DejaVuSans-20d7" transform="translate(320.870617 30.015625)"/>
     <use xlink:href="#DejaVuSans-Oblique-45" transform="translate(185.9375 0.5625)"/>
     <use xlink:href="#DejaVuSans-Oblique-71" transform="translate(249.121094 -15.84375) scale(0.7)"/>
     <use xlink:href="#DejaVuSans-2212" transform="translate(306.356001 10.953125) scale(0.49)"/>
     <use xlink:href="#DejaVuSans-2b" transform="translate(381.089888 0.5625)"/>
     <use xlink:href="#DejaVuSans-20d7" transform="translate(619.294489 30.015625)"/>
     <use xlink:href="#DejaVuSans-Oblique-45" transform="translate(484.361372 0.5625)"/>
     <use xlink:href="#DejaVuSans-Oblique-71" transform="translate(547.544966 -15.84375) scale(0.7)"/>
     <use xlink:href="#DejaVuSans-2b" transform="translate(604.779874 10.953125) scale(0.49)"/>
    </g>
   </g>
   <g id="text_7">
    <!-- $\vec{E_{q^-}}$ -->
    <g style="fill: #1f77b4" transform="translate(266.231458 183.221458) scale(0.16 -0.16)">
     <use xlink:href="#DejaVuSans-20d7" transform="translate(134.933117 30.015625)"/>
     <use xlink:href="#DejaVuSans-Oblique-45" transform="translate(0 0.5625)"/>
     <use xlink:href="#DejaVuSans-Oblique-71" transform="translate(63.183594 -15.84375) scale(0.7)"/>
     <use xlink:href="#DejaVuSans-2212" transform="translate(120.418501 10.953125) scale(0.49)"/>
    </g>
   </g>
   <g id="text_8">
    <!-- $\vec{E_{q^+}}$ -->
    <g style="fill: #d62728" transform="translate(398.344792 183.221458) scale(0.16 -0.16)">
     <use xlink:href="#DejaVuSans-20d7" transform="translate(134.933117 30.015625)"/>
     <use xlink:href="#DejaVuSans-Oblique-45" transform="translate(0 0.5625)"/>
     <use xlink:href="#DejaVuSans-Oblique-71" transform="translate(63.183594 -15.84375) scale(0.7)"/>
     <use xlink:href="#DejaVuSans-2b" transform="translate(120.418501 10.953125) scale(0.49)"/>
    </g>
   </g>
  </g>
 </g>
 <defs>
  <clipPath id="pc7e5a99a2d">
   <rect x="20.878125" y="22.798125" width="452.96" height="452.96"/>
  </clipPath>
 </defs>
</svg>
