<?xml version="1.0" encoding="utf-8" standalone="no"?>
<!DOCTYPE svg PUBLIC "-//W3C//DTD SVG 1.1//EN"
  "http://www.w3.org/Graphics/SVG/1.1/DTD/svg11.dtd">
<svg xmlns:xlink="http://www.w3.org/1999/xlink" width="481.758125pt" height="496.87625pt" viewBox="0 0 481.758125 496.87625" xmlns="http://www.w3.org/2000/svg" version="1.1">
 <metadata>
  <rdf:RDF xmlns:dc="http://purl.org/dc/elements/1.1/" xmlns:cc="http://creativecommons.org/ns#" xmlns:rdf="http://www.w3.org/1999/02/22-rdf-syntax-ns#">
   <cc:Work>
    <dc:type rdf:resource="http://purl.org/dc/dcmitype/StillImage"/>
    <dc:date>2025-10-07T13:19:33.844664</dc:date>
    <dc:format>image/svg+xml</dc:format>
    <dc:creator>
     <cc:Agent>
      <dc:title>Matplotlib v3.6.3, https://matplotlib.org/</dc:title>
     </cc:Agent>
    </dc:creator>
   </cc:Work>
  </rdf:RDF>
 </metadata>
 <defs>
  <style type="text/css">*{stroke-linejoin: round; stroke-linecap: butt}</style>
 </defs>
 <g id="figure_1">
  <g id="patch_1">
   <path d="M 0 496.87625 
L 481.758125 496.87625 
L 481.758125 0 
L 0 0 
z
" style="fill: #ffffff"/>
  </g>
  <g id="axes_1">
   <g id="patch_2">
    <path d="M 20.878125 475.998125 
L 474.558125 475.998125 
L 474.558125 22.318125 
L 20.878125 22.318125 
z
" style="fill: #ffffff"/>
   </g>
   <g id="matplotlib.axis_1">
    <g id="xtick_1">
     <g id="line2d_1">
      <path d="M 66.246125 475.998125 
L 66.246125 22.318125 
" clip-path="url(#pb7ed2653c1)" style="fill: none; stroke: #b0b0b0; stroke-width: 0.8; stroke-linecap: square"/>
     </g>
    </g>
    <g id="xtick_2">
     <g id="line2d_2">
      <path d="M 156.982125 475.998125 
L 156.982125 22.318125 
" clip-path="url(#pb7ed2653c1)" style="fill: none; stroke: #b0b0b0; stroke-width: 0.8; stroke-linecap: square"/>
     </g>
    </g>
    <g id="xtick_3">
     <g id="line2d_3">
      <path d="M 247.718125 475.998125 
L 247.718125 22.318125 
" clip-path="url(#pb7ed2653c1)" style="fill: none; stroke: #b0b0b0; stroke-width: 0.8; stroke-linecap: square"/>
     </g>
    </g>
    <g id="xtick_4">
     <g id="line2d_4">
      <path d="M 338.454125 475.998125 
L 338.454125 22.318125 
" clip-path="url(#pb7ed2653c1)" style="fill: none; stroke: #b0b0b0; stroke-width: 0.8; stroke-linecap: square"/>
     </g>
    </g>
    <g id="xtick_5">
     <g id="line2d_5">
      <path d="M 429.190125 475.998125 
L 429.190125 22.318125 
" clip-path="url(#pb7ed2653c1)" style="fill: none; stroke: #b0b0b0; stroke-width: 0.8; stroke-linecap: square"/>
     </g>
    </g>
    <g id="text_1">
     <!-- x -->
     <g transform="translate(244.75875 487.596562) scale(0.1 -0.1)">
      <defs>
       <path id="DejaVuSans-78" d="M 3513 3500 
L 2247 1797 
L 3578 0 
L 2900 0 
L 1881 1375 
L 863 0 
L 184 0 
L 1544 1831 
L 300 3500 
L 978 3500 
L 1906 2253 
L 2834 3500 
L 3513 3500 
z
" transform="scale(0.015625)"/>
      </defs>
      <use xlink:href="#DejaVuSans-78"/>
     </g>
    </g>
   </g>
   <g id="matplotlib.axis_2">
    <g id="ytick_1">
     <g id="line2d_6">
      <path d="M 20.878125 430.630125 
L 474.558125 430.630125 
" clip-path="url(#pb7ed2653c1)" style="fill: none; stroke: #b0b0b0; stroke-width: 0.8; stroke-linecap: square"/>
     </g>
    </g>
    <g id="ytick_2">
     <g id="line2d_7">
      <path d="M 20.878125 339.894125 
L 474.558125 339.894125 
" clip-path="url(#pb7ed2653c1)" style="fill: none; stroke: #b0b0b0; stroke-width: 0.8; stroke-linecap: square"/>
     </g>
    </g>
    <g id="ytick_3">
     <g id="line2d_8">
      <path d="M 20.878125 249.158125 
L 474.558125 249.158125 
" clip-path="url(#pb7ed2653c1)" style="fill: none; stroke: #b0b0b0; stroke-width: 0.8; stroke-linecap: square"/>
     </g>
    </g>
    <g id="ytick_4">
     <g id="line2d_9">
      <path d="M 20.878125 158.422125 
L 474.558125 158.422125 
" clip-path="url(#pb7ed2653c1)" style="fill: none; stroke: #b0b0b0; stroke-width: 0.8; stroke-linecap: square"/>
     </g>
    </g>
    <g id="ytick_5">
     <g id="line2d_10">
      <path d="M 20.878125 67.686125 
L 474.558125 67.686125 
" clip-path="url(#pb7ed2653c1)" style="fill: none; stroke: #b0b0b0; stroke-width: 0.8; stroke-linecap: square"/>
     </g>
    </g>
    <g id="text_2">
     <!-- y -->
     <g transform="translate(14.798438 252.1175) rotate(-90) scale(0.1 -0.1)">
      <defs>
       <path id="DejaVuSans-79" d="M 2059 -325 
Q 1816 -950 1584 -1140 
Q 1353 -1331 966 -1331 
L 506 -1331 
L 506 -850 
L 844 -850 
Q 1081 -850 1212 -737 
Q 1344 -625 1503 -206 
L 1606 56 
L 191 3500 
L 800 3500 
L 1894 763 
L 2988 3500 
L 3597 3500 
L 2059 -325 
z
" transform="scale(0.015625)"/>
      </defs>
      <use xlink:href="#DejaVuSans-79"/>
     </g>
    </g>
   </g>
   <g id="text_3">
    <!-- Carga puntual negativa -->
    <g transform="translate(177.050313 16.318125) scale(0.12 -0.12)">
     <defs>
      <path id="DejaVuSans-43" d="M 4122 4306 
L 4122 3641 
Q 3803 3938 3442 4084 
Q 3081 4231 2675 4231 
Q 1875 4231 1450 3742 
Q 1025 3253 1025 2328 
Q 1025 1406 1450 917 
Q 1875 428 2675 428 
Q 3081 428 3442 575 
Q 3803 722 4122 1019 
L 4122 359 
Q 3791 134 3420 21 
Q 3050 -91 2638 -91 
Q 1578 -91 968 557 
Q 359 1206 359 2328 
Q 359 3453 968 4101 
Q 1578 4750 2638 4750 
Q 3056 4750 3426 4639 
Q 3797 4528 4122 4306 
z
" transform="scale(0.015625)"/>
      <path id="DejaVuSans-61" d="M 2194 1759 
Q 1497 1759 1228 1600 
Q 959 1441 959 1056 
Q 959 750 1161 570 
Q 1363 391 1709 391 
Q 2188 391 2477 730 
Q 2766 1069 2766 1631 
L 2766 1759 
L 2194 1759 
z
M 3341 1997 
L 3341 0 
L 2766 0 
L 2766 531 
Q 2569 213 2275 61 
Q 1981 -91 1556 -91 
Q 1019 -91 701 211 
Q 384 513 384 1019 
Q 384 1609 779 1909 
Q 1175 2209 1959 2209 
L 2766 2209 
L 2766 2266 
Q 2766 2663 2505 2880 
Q 2244 3097 1772 3097 
Q 1472 3097 1187 3025 
Q 903 2953 641 2809 
L 641 3341 
Q 956 3463 1253 3523 
Q 1550 3584 1831 3584 
Q 2591 3584 2966 3190 
Q 3341 2797 3341 1997 
z
" transform="scale(0.015625)"/>
      <path id="DejaVuSans-72" d="M 2631 2963 
Q 2534 3019 2420 3045 
Q 2306 3072 2169 3072 
Q 1681 3072 1420 2755 
Q 1159 2438 1159 1844 
L 1159 0 
L 581 0 
L 581 3500 
L 1159 3500 
L 1159 2956 
Q 1341 3275 1631 3429 
Q 1922 3584 2338 3584 
Q 2397 3584 2469 3576 
Q 2541 3569 2628 3553 
L 2631 2963 
z
" transform="scale(0.015625)"/>
      <path id="DejaVuSans-67" d="M 2906 1791 
Q 2906 2416 2648 2759 
Q 2391 3103 1925 3103 
Q 1463 3103 1205 2759 
Q 947 2416 947 1791 
Q 947 1169 1205 825 
Q 1463 481 1925 481 
Q 2391 481 2648 825 
Q 2906 1169 2906 1791 
z
M 3481 434 
Q 3481 -459 3084 -895 
Q 2688 -1331 1869 -1331 
Q 1566 -1331 1297 -1286 
Q 1028 -1241 775 -1147 
L 775 -588 
Q 1028 -725 1275 -790 
Q 1522 -856 1778 -856 
Q 2344 -856 2625 -561 
Q 2906 -266 2906 331 
L 2906 616 
Q 2728 306 2450 153 
Q 2172 0 1784 0 
Q 1141 0 747 490 
Q 353 981 353 1791 
Q 353 2603 747 3093 
Q 1141 3584 1784 3584 
Q 2172 3584 2450 3431 
Q 2728 3278 2906 2969 
L 2906 3500 
L 3481 3500 
L 3481 434 
z
" transform="scale(0.015625)"/>
      <path id="DejaVuSans-20" transform="scale(0.015625)"/>
      <path id="DejaVuSans-70" d="M 1159 525 
L 1159 -1331 
L 581 -1331 
L 581 3500 
L 1159 3500 
L 1159 2969 
Q 1341 3281 1617 3432 
Q 1894 3584 2278 3584 
Q 2916 3584 3314 3078 
Q 3713 2572 3713 1747 
Q 3713 922 3314 415 
Q 2916 -91 2278 -91 
Q 1894 -91 1617 61 
Q 1341 213 1159 525 
z
M 3116 1747 
Q 3116 2381 2855 2742 
Q 2594 3103 2138 3103 
Q 1681 3103 1420 2742 
Q 1159 2381 1159 1747 
Q 1159 1113 1420 752 
Q 1681 391 2138 391 
Q 2594 391 2855 752 
Q 3116 1113 3116 1747 
z
" transform="scale(0.015625)"/>
      <path id="DejaVuSans-75" d="M 544 1381 
L 544 3500 
L 1119 3500 
L 1119 1403 
Q 1119 906 1312 657 
Q 1506 409 1894 409 
Q 2359 409 2629 706 
Q 2900 1003 2900 1516 
L 2900 3500 
L 3475 3500 
L 3475 0 
L 2900 0 
L 2900 538 
Q 2691 219 2414 64 
Q 2138 -91 1772 -91 
Q 1169 -91 856 284 
Q 544 659 544 1381 
z
M 1991 3584 
L 1991 3584 
z
" transform="scale(0.015625)"/>
      <path id="DejaVuSans-6e" d="M 3513 2113 
L 3513 0 
L 2938 0 
L 2938 2094 
Q 2938 2591 2744 2837 
Q 2550 3084 2163 3084 
Q 1697 3084 1428 2787 
Q 1159 2491 1159 1978 
L 1159 0 
L 581 0 
L 581 3500 
L 1159 3500 
L 1159 2956 
Q 1366 3272 1645 3428 
Q 1925 3584 2291 3584 
Q 2894 3584 3203 3211 
Q 3513 2838 3513 2113 
z
" transform="scale(0.015625)"/>
      <path id="DejaVuSans-74" d="M 1172 4494 
L 1172 3500 
L 2356 3500 
L 2356 3053 
L 1172 3053 
L 1172 1153 
Q 1172 725 1289 603 
Q 1406 481 1766 481 
L 2356 481 
L 2356 0 
L 1766 0 
Q 1100 0 847 248 
Q 594 497 594 1153 
L 594 3053 
L 172 3053 
L 172 3500 
L 594 3500 
L 594 4494 
L 1172 4494 
z
" transform="scale(0.015625)"/>
      <path id="DejaVuSans-6c" d="M 603 4863 
L 1178 4863 
L 1178 0 
L 603 0 
L 603 4863 
z
" transform="scale(0.015625)"/>
      <path id="DejaVuSans-65" d="M 3597 1894 
L 3597 1613 
L 953 1613 
Q 991 1019 1311 708 
Q 1631 397 2203 397 
Q 2534 397 2845 478 
Q 3156 559 3463 722 
L 3463 178 
Q 3153 47 2828 -22 
Q 2503 -91 2169 -91 
Q 1331 -91 842 396 
Q 353 884 353 1716 
Q 353 2575 817 3079 
Q 1281 3584 2069 3584 
Q 2775 3584 3186 3129 
Q 3597 2675 3597 1894 
z
M 3022 2063 
Q 3016 2534 2758 2815 
Q 2500 3097 2075 3097 
Q 1594 3097 1305 2825 
Q 1016 2553 972 2059 
L 3022 2063 
z
" transform="scale(0.015625)"/>
      <path id="DejaVuSans-69" d="M 603 3500 
L 1178 3500 
L 1178 0 
L 603 0 
L 603 3500 
z
M 603 4863 
L 1178 4863 
L 1178 4134 
L 603 4134 
L 603 4863 
z
" transform="scale(0.015625)"/>
      <path id="DejaVuSans-76" d="M 191 3500 
L 800 3500 
L 1894 563 
L 2988 3500 
L 3597 3500 
L 2284 0 
L 1503 0 
L 191 3500 
z
" transform="scale(0.015625)"/>
     </defs>
     <use xlink:href="#DejaVuSans-43"/>
     <use xlink:href="#DejaVuSans-61" x="69.824219"/>
     <use xlink:href="#DejaVuSans-72" x="131.103516"/>
     <use xlink:href="#DejaVuSans-67" x="170.466797"/>
     <use xlink:href="#DejaVuSans-61" x="233.943359"/>
     <use xlink:href="#DejaVuSans-20" x="295.222656"/>
     <use xlink:href="#DejaVuSans-70" x="327.009766"/>
     <use xlink:href="#DejaVuSans-75" x="390.486328"/>
     <use xlink:href="#DejaVuSans-6e" x="453.865234"/>
     <use xlink:href="#DejaVuSans-74" x="517.244141"/>
     <use xlink:href="#DejaVuSans-75" x="556.453125"/>
     <use xlink:href="#DejaVuSans-61" x="619.832031"/>
     <use xlink:href="#DejaVuSans-6c" x="681.111328"/>
     <use xlink:href="#DejaVuSans-20" x="708.894531"/>
     <use xlink:href="#DejaVuSans-6e" x="740.681641"/>
     <use xlink:href="#DejaVuSans-65" x="804.060547"/>
     <use xlink:href="#DejaVuSans-67" x="865.583984"/>
     <use xlink:href="#DejaVuSans-61" x="929.060547"/>
     <use xlink:href="#DejaVuSans-74" x="990.339844"/>
     <use xlink:href="#DejaVuSans-69" x="1029.548828"/>
     <use xlink:href="#DejaVuSans-76" x="1057.332031"/>
     <use xlink:href="#DejaVuSans-61" x="1116.511719"/>
    </g>
   </g>
   <g id="Quiver_1">
    <path d="M 117.058285 247.797085 
L 177.738452 247.797085 
L 173.655332 243.713965 
L 189.987812 249.158125 
L 173.655332 254.602285 
L 177.738452 250.519165 
L 117.058285 250.519165 
L 117.058285 247.797085 
" clip-path="url(#pb7ed2653c1)" style="fill: #2ca02c"/>
    <path d="M 105.594179 329.64183 
L 127.323239 317.096551 
L 121.745594 315.602025 
L 138.612016 312.150566 
L 127.189754 325.031587 
L 128.684279 319.453941 
L 106.955219 331.99922 
L 105.594179 329.64183 
" clip-path="url(#pb7ed2653c1)" style="fill: #2ca02c"/>
    <path d="M 181.20951 361.632346 
L 211.549593 309.08178 
L 205.971948 310.576305 
L 218.852968 299.154043 
L 215.401509 316.020465 
L 213.906984 310.44282 
L 183.5669 362.993386 
L 181.20951 361.632346 
" clip-path="url(#pb7ed2653c1)" style="fill: #2ca02c"/>
    <path d="M 246.357085 412.482925 
L 246.357085 387.392367 
L 242.273965 391.475487 
L 247.718125 375.143007 
L 253.162285 391.475487 
L 249.079165 387.392367 
L 249.079165 412.482925 
L 246.357085 412.482925 
" clip-path="url(#pb7ed2653c1)" style="fill: #2ca02c"/>
    <path d="M 311.86935 362.993386 
L 281.529266 310.44282 
L 280.034741 316.020465 
L 276.583282 299.154043 
L 289.464302 310.576305 
L 283.886657 309.08178 
L 314.22674 361.632346 
L 311.86935 362.993386 
" clip-path="url(#pb7ed2653c1)" style="fill: #2ca02c"/>
    <path d="M 388.481031 331.99922 
L 366.751971 319.453941 
L 368.246496 325.031587 
L 356.824234 312.150566 
L 373.690656 315.602025 
L 368.113011 317.096551 
L 389.842071 329.64183 
L 388.481031 331.99922 
" clip-path="url(#pb7ed2653c1)" style="fill: #2ca02c"/>
    <path d="M 378.377965 250.519165 
L 317.697798 250.519165 
L 321.780918 254.602285 
L 305.448438 249.158125 
L 321.780918 243.713965 
L 317.697798 247.797085 
L 378.377965 247.797085 
L 378.377965 250.519165 
" clip-path="url(#pb7ed2653c1)" style="fill: #2ca02c"/>
    <path d="M 389.842071 168.67442 
L 368.113011 181.219699 
L 373.690656 182.714225 
L 356.824234 186.165684 
L 368.246496 173.284663 
L 366.751971 178.862309 
L 388.481031 166.31703 
L 389.842071 168.67442 
" clip-path="url(#pb7ed2653c1)" style="fill: #2ca02c"/>
    <path d="M 314.22674 136.683904 
L 283.886657 189.23447 
L 289.464302 187.739945 
L 276.583282 199.162207 
L 280.034741 182.295785 
L 281.529266 187.87343 
L 311.86935 135.322864 
L 314.22674 136.683904 
" clip-path="url(#pb7ed2653c1)" style="fill: #2ca02c"/>
    <path d="M 249.079165 85.833325 
L 249.079165 110.923883 
L 253.162285 106.840763 
L 247.718125 123.173243 
L 242.273965 106.840763 
L 246.357085 110.923883 
L 246.357085 85.833325 
L 249.079165 85.833325 
" clip-path="url(#pb7ed2653c1)" style="fill: #2ca02c"/>
    <path d="M 183.5669 135.322864 
L 213.906984 187.87343 
L 215.401509 182.295785 
L 218.852968 199.162207 
L 205.971948 187.739945 
L 211.549593 189.23447 
L 181.20951 136.683904 
L 183.5669 135.322864 
" clip-path="url(#pb7ed2653c1)" style="fill: #2ca02c"/>
    <path d="M 106.955219 166.31703 
L 128.684279 178.862309 
L 127.189754 173.284663 
L 138.612016 186.165684 
L 121.745594 182.714225 
L 127.323239 181.219699 
L 105.594179 168.67442 
L 106.955219 166.31703 
" clip-path="url(#pb7ed2653c1)" style="fill: #2ca02c"/>
   </g>
   <g id="PathCollection_1">
    <defs>
     <path id="mf08a1d22c3" d="M 0 5 
C 1.326016 5 2.597899 4.473168 3.535534 3.535534 
C 4.473168 2.597899 5 1.326016 5 0 
C 5 -1.326016 4.473168 -2.597899 3.535534 -3.535534 
C 2.597899 -4.473168 1.326016 -5 0 -5 
C -1.326016 -5 -2.597899 -4.473168 -3.535534 -3.535534 
C -4.473168 -2.597899 -5 -1.326016 -5 0 
C -5 1.326016 -4.473168 2.597899 -3.535534 3.535534 
C -2.597899 4.473168 -1.326016 5 0 5 
z
" style="stroke: #1f77b4"/>
    </defs>
    <g clip-path="url(#pb7ed2653c1)">
     <use xlink:href="#mf08a1d22c3" x="247.718125" y="249.158125" style="fill: #1f77b4; stroke: #1f77b4"/>
    </g>
   </g>
   <g id="PathCollection_2">
    <defs>
     <path id="me6fc87ddbe" d="M 0 3.535534 
C 0.937635 3.535534 1.836992 3.163008 2.5 2.5 
C 3.163008 1.836992 3.535534 0.937635 3.535534 0 
C 3.535534 -0.937635 3.163008 -1.836992 2.5 -2.5 
C 1.836992 -3.163008 0.937635 -3.535534 0 -3.535534 
C -0.937635 -3.535534 -1.836992 -3.163008 -2.5 -2.5 
C -3.163008 -1.836992 -3.535534 -0.937635 -3.535534 0 
C -3.535534 0.937635 -3.163008 1.836992 -2.5 2.5 
C -1.836992 3.163008 -0.937635 3.535534 0 3.535534 
z
" style="stroke: #000000"/>
    </defs>
    <g clip-path="url(#pb7ed2653c1)">
     <use xlink:href="#me6fc87ddbe" x="117.058285" y="249.158125" style="stroke: #000000"/>
     <use xlink:href="#me6fc87ddbe" x="106.274699" y="330.820525" style="stroke: #000000"/>
     <use xlink:href="#me6fc87ddbe" x="182.388205" y="362.312866" style="stroke: #000000"/>
     <use xlink:href="#me6fc87ddbe" x="247.718125" y="412.482925" style="stroke: #000000"/>
     <use xlink:href="#me6fc87ddbe" x="313.048045" y="362.312866" style="stroke: #000000"/>
     <use xlink:href="#me6fc87ddbe" x="389.161551" y="330.820525" style="stroke: #000000"/>
     <use xlink:href="#me6fc87ddbe" x="378.377965" y="249.158125" style="stroke: #000000"/>
     <use xlink:href="#me6fc87ddbe" x="389.161551" y="167.495725" style="stroke: #000000"/>
     <use xlink:href="#me6fc87ddbe" x="313.048045" y="136.003384" style="stroke: #000000"/>
     <use xlink:href="#me6fc87ddbe" x="247.718125" y="85.833325" style="stroke: #000000"/>
     <use xlink:href="#me6fc87ddbe" x="182.388205" y="136.003384" style="stroke: #000000"/>
     <use xlink:href="#me6fc87ddbe" x="106.274699" y="167.495725" style="stroke: #000000"/>
    </g>
   </g>
   <g id="text_4">
    <!-- $q^-$ -->
    <g style="fill: #1f77b4" transform="translate(256.791725 236.304525) scale(0.18 -0.18)">
     <defs>
      <path id="DejaVuSans-Oblique-71" d="M 2669 525 
Q 2438 222 2123 65 
Q 1809 -91 1428 -91 
Q 897 -91 595 267 
Q 294 625 294 1253 
Q 294 1759 480 2231 
Q 666 2703 1013 3078 
Q 1238 3322 1530 3453 
Q 1822 3584 2144 3584 
Q 2531 3584 2781 3431 
Q 3031 3278 3144 2969 
L 3244 3494 
L 3822 3494 
L 2888 -1319 
L 2309 -1319 
L 2669 525 
z
M 891 1338 
Q 891 875 1084 633 
Q 1278 391 1644 391 
Q 2188 391 2572 911 
Q 2956 1431 2956 2175 
Q 2956 2625 2757 2864 
Q 2559 3103 2188 3103 
Q 1916 3103 1684 2976 
Q 1453 2850 1281 2606 
Q 1100 2350 995 2006 
Q 891 1663 891 1338 
z
" transform="scale(0.015625)"/>
      <path id="DejaVuSans-2212" d="M 678 2272 
L 4684 2272 
L 4684 1741 
L 678 1741 
L 678 2272 
z
" transform="scale(0.015625)"/>
     </defs>
     <use xlink:href="#DejaVuSans-Oblique-71" transform="translate(0 0.86875)"/>
     <use xlink:href="#DejaVuSans-2212" transform="translate(81.764154 39.15) scale(0.7)"/>
    </g>
   </g>
   <g id="text_5">
    <!-- $\vec{E}$ -->
    <g style="fill: #2ca02c" transform="translate(200.535405 154.150584) scale(0.16 -0.16)">
     <defs>
      <path id="DejaVuSans-20d7" d="M -3009 4066 
L -3009 4378 
L -694 4378 
L -1106 4863 
L -713 4863 
L -166 4222 
L -713 3581 
L -1106 3581 
L -694 4066 
L -3009 4066 
z
" transform="scale(0.015625)"/>
      <path id="DejaVuSans-Oblique-45" d="M 1081 4666 
L 4031 4666 
L 3928 4134 
L 1606 4134 
L 1338 2753 
L 3566 2753 
L 3463 2222 
L 1234 2222 
L 909 531 
L 3284 531 
L 3181 0 
L 172 0 
L 1081 4666 
z
" transform="scale(0.015625)"/>
     </defs>
     <use xlink:href="#DejaVuSans-20d7" transform="translate(63.811523 30.015625)"/>
     <use xlink:href="#DejaVuSans-Oblique-45" transform="translate(0 0.5625)"/>
    </g>
   </g>
  </g>
 </g>
 <defs>
  <clipPath id="pb7ed2653c1">
   <rect x="20.878125" y="22.318125" width="453.68" height="453.68"/>
  </clipPath>
 </defs>
</svg>
