<?xml version="1.0" encoding="utf-8" standalone="no"?>
<!DOCTYPE svg PUBLIC "-//W3C//DTD SVG 1.1//EN"
  "http://www.w3.org/Graphics/SVG/1.1/DTD/svg11.dtd">
<svg xmlns:xlink="http://www.w3.org/1999/xlink" width="424.547187pt" height="493.306375pt" viewBox="0 0 424.547187 493.306375" xmlns="http://www.w3.org/2000/svg" version="1.1">
 <metadata>
  <rdf:RDF xmlns:dc="http://purl.org/dc/elements/1.1/" xmlns:cc="http://creativecommons.org/ns#" xmlns:rdf="http://www.w3.org/1999/02/22-rdf-syntax-ns#">
   <cc:Work>
    <dc:type rdf:resource="http://purl.org/dc/dcmitype/StillImage"/>
    <dc:date>2025-06-09T19:14:04.407208</dc:date>
    <dc:format>image/svg+xml</dc:format>
    <dc:creator>
     <cc:Agent>
      <dc:title>Matplotlib v3.10.1, https://matplotlib.org/</dc:title>
     </cc:Agent>
    </dc:creator>
   </cc:Work>
  </rdf:RDF>
 </metadata>
 <defs>
  <style type="text/css">*{stroke-linejoin: round; stroke-linecap: butt}</style>
 </defs>
 <g id="figure_1">
  <g id="patch_1">
   <path d="M 0 493.306375 
L 424.547187 493.306375 
L 424.547187 0 
L 0 0 
z
" style="fill: #ffffff"/>
  </g>
  <g id="axes_1">
   <g id="patch_2">
    <path d="M 56.467188 216.624125 
L 417.347187 216.624125 
L 417.347187 22.318125 
L 56.467188 22.318125 
z
" style="fill: #ffffff"/>
   </g>
   <g id="PathCollection_1">
    <defs>
     <path id="m422322d0e9" d="M 0 1.581139 
C 0.419323 1.581139 0.821528 1.41454 1.118034 1.118034 
C 1.41454 0.821528 1.581139 0.419323 1.581139 0 
C 1.581139 -0.419323 1.41454 -0.821528 1.118034 -1.118034 
C 0.821528 -1.41454 0.419323 -1.581139 0 -1.581139 
C -0.419323 -1.581139 -0.821528 -1.41454 -1.118034 -1.118034 
C -1.41454 -0.821528 -1.581139 -0.419323 -1.581139 0 
C -1.581139 0.419323 -1.41454 0.821528 -1.118034 1.118034 
C -0.821528 1.41454 -0.419323 1.581139 0 1.581139 
z
" style="stroke: #000000"/>
    </defs>
    <g clip-path="url(#p100e17424d)">
     <use xlink:href="#m422322d0e9" x="138.485369" y="114.270111" style="stroke: #000000"/>
    </g>
   </g>
   <g id="matplotlib.axis_1">
    <g id="xtick_1">
     <g id="line2d_1">
      <defs>
       <path id="m39cc285a33" d="M 0 0 
L 0 3.5 
" style="stroke: #000000; stroke-width: 0.8"/>
      </defs>
      <g>
       <use xlink:href="#m39cc285a33" x="138.485369" y="216.624125" style="stroke: #000000; stroke-width: 0.8"/>
      </g>
     </g>
    </g>
    <g id="text_1">
     <!-- Tiempo -->
     <g transform="translate(218.44 231.722563) scale(0.1 -0.1)">
      <defs>
       <path id="DejaVuSans-54" d="M -19 4666 
L 3928 4666 
L 3928 4134 
L 2272 4134 
L 2272 0 
L 1638 0 
L 1638 4134 
L -19 4134 
L -19 4666 
z
" transform="scale(0.015625)"/>
       <path id="DejaVuSans-69" d="M 603 3500 
L 1178 3500 
L 1178 0 
L 603 0 
L 603 3500 
z
M 603 4863 
L 1178 4863 
L 1178 4134 
L 603 4134 
L 603 4863 
z
" transform="scale(0.015625)"/>
       <path id="DejaVuSans-65" d="M 3597 1894 
L 3597 1613 
L 953 1613 
Q 991 1019 1311 708 
Q 1631 397 2203 397 
Q 2534 397 2845 478 
Q 3156 559 3463 722 
L 3463 178 
Q 3153 47 2828 -22 
Q 2503 -91 2169 -91 
Q 1331 -91 842 396 
Q 353 884 353 1716 
Q 353 2575 817 3079 
Q 1281 3584 2069 3584 
Q 2775 3584 3186 3129 
Q 3597 2675 3597 1894 
z
M 3022 2063 
Q 3016 2534 2758 2815 
Q 2500 3097 2075 3097 
Q 1594 3097 1305 2825 
Q 1016 2553 972 2059 
L 3022 2063 
z
" transform="scale(0.015625)"/>
       <path id="DejaVuSans-6d" d="M 3328 2828 
Q 3544 3216 3844 3400 
Q 4144 3584 4550 3584 
Q 5097 3584 5394 3201 
Q 5691 2819 5691 2113 
L 5691 0 
L 5113 0 
L 5113 2094 
Q 5113 2597 4934 2840 
Q 4756 3084 4391 3084 
Q 3944 3084 3684 2787 
Q 3425 2491 3425 1978 
L 3425 0 
L 2847 0 
L 2847 2094 
Q 2847 2600 2669 2842 
Q 2491 3084 2119 3084 
Q 1678 3084 1418 2786 
Q 1159 2488 1159 1978 
L 1159 0 
L 581 0 
L 581 3500 
L 1159 3500 
L 1159 2956 
Q 1356 3278 1631 3431 
Q 1906 3584 2284 3584 
Q 2666 3584 2933 3390 
Q 3200 3197 3328 2828 
z
" transform="scale(0.015625)"/>
       <path id="DejaVuSans-70" d="M 1159 525 
L 1159 -1331 
L 581 -1331 
L 581 3500 
L 1159 3500 
L 1159 2969 
Q 1341 3281 1617 3432 
Q 1894 3584 2278 3584 
Q 2916 3584 3314 3078 
Q 3713 2572 3713 1747 
Q 3713 922 3314 415 
Q 2916 -91 2278 -91 
Q 1894 -91 1617 61 
Q 1341 213 1159 525 
z
M 3116 1747 
Q 3116 2381 2855 2742 
Q 2594 3103 2138 3103 
Q 1681 3103 1420 2742 
Q 1159 2381 1159 1747 
Q 1159 1113 1420 752 
Q 1681 391 2138 391 
Q 2594 391 2855 752 
Q 3116 1113 3116 1747 
z
" transform="scale(0.015625)"/>
       <path id="DejaVuSans-6f" d="M 1959 3097 
Q 1497 3097 1228 2736 
Q 959 2375 959 1747 
Q 959 1119 1226 758 
Q 1494 397 1959 397 
Q 2419 397 2687 759 
Q 2956 1122 2956 1747 
Q 2956 2369 2687 2733 
Q 2419 3097 1959 3097 
z
M 1959 3584 
Q 2709 3584 3137 3096 
Q 3566 2609 3566 1747 
Q 3566 888 3137 398 
Q 2709 -91 1959 -91 
Q 1206 -91 779 398 
Q 353 888 353 1747 
Q 353 2609 779 3096 
Q 1206 3584 1959 3584 
z
" transform="scale(0.015625)"/>
      </defs>
      <use xlink:href="#DejaVuSans-54"/>
      <use xlink:href="#DejaVuSans-69" transform="translate(57.958984 0)"/>
      <use xlink:href="#DejaVuSans-65" transform="translate(85.742188 0)"/>
      <use xlink:href="#DejaVuSans-6d" transform="translate(147.265625 0)"/>
      <use xlink:href="#DejaVuSans-70" transform="translate(244.677734 0)"/>
      <use xlink:href="#DejaVuSans-6f" transform="translate(308.154297 0)"/>
     </g>
    </g>
   </g>
   <g id="matplotlib.axis_2">
    <g id="ytick_1">
     <g id="line2d_2">
      <defs>
       <path id="m336af99c09" d="M 0 0 
L -3.5 0 
" style="stroke: #000000; stroke-width: 0.8"/>
      </defs>
      <g>
       <use xlink:href="#m336af99c09" x="56.467188" y="114.270111" style="stroke: #000000; stroke-width: 0.8"/>
      </g>
     </g>
     <g id="text_2">
      <!-- 63% -->
      <g transform="translate(27.240625 118.069329) scale(0.1 -0.1)">
       <defs>
        <path id="DejaVuSans-36" d="M 2113 2584 
Q 1688 2584 1439 2293 
Q 1191 2003 1191 1497 
Q 1191 994 1439 701 
Q 1688 409 2113 409 
Q 2538 409 2786 701 
Q 3034 994 3034 1497 
Q 3034 2003 2786 2293 
Q 2538 2584 2113 2584 
z
M 3366 4563 
L 3366 3988 
Q 3128 4100 2886 4159 
Q 2644 4219 2406 4219 
Q 1781 4219 1451 3797 
Q 1122 3375 1075 2522 
Q 1259 2794 1537 2939 
Q 1816 3084 2150 3084 
Q 2853 3084 3261 2657 
Q 3669 2231 3669 1497 
Q 3669 778 3244 343 
Q 2819 -91 2113 -91 
Q 1303 -91 875 529 
Q 447 1150 447 2328 
Q 447 3434 972 4092 
Q 1497 4750 2381 4750 
Q 2619 4750 2861 4703 
Q 3103 4656 3366 4563 
z
" transform="scale(0.015625)"/>
        <path id="DejaVuSans-33" d="M 2597 2516 
Q 3050 2419 3304 2112 
Q 3559 1806 3559 1356 
Q 3559 666 3084 287 
Q 2609 -91 1734 -91 
Q 1441 -91 1130 -33 
Q 819 25 488 141 
L 488 750 
Q 750 597 1062 519 
Q 1375 441 1716 441 
Q 2309 441 2620 675 
Q 2931 909 2931 1356 
Q 2931 1769 2642 2001 
Q 2353 2234 1838 2234 
L 1294 2234 
L 1294 2753 
L 1863 2753 
Q 2328 2753 2575 2939 
Q 2822 3125 2822 3475 
Q 2822 3834 2567 4026 
Q 2313 4219 1838 4219 
Q 1578 4219 1281 4162 
Q 984 4106 628 3988 
L 628 4550 
Q 988 4650 1302 4700 
Q 1616 4750 1894 4750 
Q 2613 4750 3031 4423 
Q 3450 4097 3450 3541 
Q 3450 3153 3228 2886 
Q 3006 2619 2597 2516 
z
" transform="scale(0.015625)"/>
        <path id="DejaVuSans-25" d="M 4653 2053 
Q 4381 2053 4226 1822 
Q 4072 1591 4072 1178 
Q 4072 772 4226 539 
Q 4381 306 4653 306 
Q 4919 306 5073 539 
Q 5228 772 5228 1178 
Q 5228 1588 5073 1820 
Q 4919 2053 4653 2053 
z
M 4653 2450 
Q 5147 2450 5437 2106 
Q 5728 1763 5728 1178 
Q 5728 594 5436 251 
Q 5144 -91 4653 -91 
Q 4153 -91 3862 251 
Q 3572 594 3572 1178 
Q 3572 1766 3864 2108 
Q 4156 2450 4653 2450 
z
M 1428 4353 
Q 1159 4353 1004 4120 
Q 850 3888 850 3481 
Q 850 3069 1003 2837 
Q 1156 2606 1428 2606 
Q 1700 2606 1854 2837 
Q 2009 3069 2009 3481 
Q 2009 3884 1853 4118 
Q 1697 4353 1428 4353 
z
M 4250 4750 
L 4750 4750 
L 1831 -91 
L 1331 -91 
L 4250 4750 
z
M 1428 4750 
Q 1922 4750 2215 4408 
Q 2509 4066 2509 3481 
Q 2509 2891 2217 2550 
Q 1925 2209 1428 2209 
Q 931 2209 642 2551 
Q 353 2894 353 3481 
Q 353 4063 643 4406 
Q 934 4750 1428 4750 
z
" transform="scale(0.015625)"/>
       </defs>
       <use xlink:href="#DejaVuSans-36"/>
       <use xlink:href="#DejaVuSans-33" transform="translate(63.623047 0)"/>
       <use xlink:href="#DejaVuSans-25" transform="translate(127.246094 0)"/>
      </g>
     </g>
    </g>
    <g id="ytick_2">
     <g id="line2d_3">
      <g>
       <use xlink:href="#m336af99c09" x="56.467188" y="54.702458" style="stroke: #000000; stroke-width: 0.8"/>
      </g>
     </g>
     <g id="text_3">
      <!-- 100% -->
      <g transform="translate(20.878125 58.501677) scale(0.1 -0.1)">
       <defs>
        <path id="DejaVuSans-31" d="M 794 531 
L 1825 531 
L 1825 4091 
L 703 3866 
L 703 4441 
L 1819 4666 
L 2450 4666 
L 2450 531 
L 3481 531 
L 3481 0 
L 794 0 
L 794 531 
z
" transform="scale(0.015625)"/>
        <path id="DejaVuSans-30" d="M 2034 4250 
Q 1547 4250 1301 3770 
Q 1056 3291 1056 2328 
Q 1056 1369 1301 889 
Q 1547 409 2034 409 
Q 2525 409 2770 889 
Q 3016 1369 3016 2328 
Q 3016 3291 2770 3770 
Q 2525 4250 2034 4250 
z
M 2034 4750 
Q 2819 4750 3233 4129 
Q 3647 3509 3647 2328 
Q 3647 1150 3233 529 
Q 2819 -91 2034 -91 
Q 1250 -91 836 529 
Q 422 1150 422 2328 
Q 422 3509 836 4129 
Q 1250 4750 2034 4750 
z
" transform="scale(0.015625)"/>
       </defs>
       <use xlink:href="#DejaVuSans-31"/>
       <use xlink:href="#DejaVuSans-30" transform="translate(63.623047 0)"/>
       <use xlink:href="#DejaVuSans-30" transform="translate(127.246094 0)"/>
       <use xlink:href="#DejaVuSans-25" transform="translate(190.869141 0)"/>
      </g>
     </g>
    </g>
    <g id="text_4">
     <!-- Salida del sensor -->
     <g transform="translate(14.798438 162.113313) rotate(-90) scale(0.1 -0.1)">
      <defs>
       <path id="DejaVuSans-53" d="M 3425 4513 
L 3425 3897 
Q 3066 4069 2747 4153 
Q 2428 4238 2131 4238 
Q 1616 4238 1336 4038 
Q 1056 3838 1056 3469 
Q 1056 3159 1242 3001 
Q 1428 2844 1947 2747 
L 2328 2669 
Q 3034 2534 3370 2195 
Q 3706 1856 3706 1288 
Q 3706 609 3251 259 
Q 2797 -91 1919 -91 
Q 1588 -91 1214 -16 
Q 841 59 441 206 
L 441 856 
Q 825 641 1194 531 
Q 1563 422 1919 422 
Q 2459 422 2753 634 
Q 3047 847 3047 1241 
Q 3047 1584 2836 1778 
Q 2625 1972 2144 2069 
L 1759 2144 
Q 1053 2284 737 2584 
Q 422 2884 422 3419 
Q 422 4038 858 4394 
Q 1294 4750 2059 4750 
Q 2388 4750 2728 4690 
Q 3069 4631 3425 4513 
z
" transform="scale(0.015625)"/>
       <path id="DejaVuSans-61" d="M 2194 1759 
Q 1497 1759 1228 1600 
Q 959 1441 959 1056 
Q 959 750 1161 570 
Q 1363 391 1709 391 
Q 2188 391 2477 730 
Q 2766 1069 2766 1631 
L 2766 1759 
L 2194 1759 
z
M 3341 1997 
L 3341 0 
L 2766 0 
L 2766 531 
Q 2569 213 2275 61 
Q 1981 -91 1556 -91 
Q 1019 -91 701 211 
Q 384 513 384 1019 
Q 384 1609 779 1909 
Q 1175 2209 1959 2209 
L 2766 2209 
L 2766 2266 
Q 2766 2663 2505 2880 
Q 2244 3097 1772 3097 
Q 1472 3097 1187 3025 
Q 903 2953 641 2809 
L 641 3341 
Q 956 3463 1253 3523 
Q 1550 3584 1831 3584 
Q 2591 3584 2966 3190 
Q 3341 2797 3341 1997 
z
" transform="scale(0.015625)"/>
       <path id="DejaVuSans-6c" d="M 603 4863 
L 1178 4863 
L 1178 0 
L 603 0 
L 603 4863 
z
" transform="scale(0.015625)"/>
       <path id="DejaVuSans-64" d="M 2906 2969 
L 2906 4863 
L 3481 4863 
L 3481 0 
L 2906 0 
L 2906 525 
Q 2725 213 2448 61 
Q 2172 -91 1784 -91 
Q 1150 -91 751 415 
Q 353 922 353 1747 
Q 353 2572 751 3078 
Q 1150 3584 1784 3584 
Q 2172 3584 2448 3432 
Q 2725 3281 2906 2969 
z
M 947 1747 
Q 947 1113 1208 752 
Q 1469 391 1925 391 
Q 2381 391 2643 752 
Q 2906 1113 2906 1747 
Q 2906 2381 2643 2742 
Q 2381 3103 1925 3103 
Q 1469 3103 1208 2742 
Q 947 2381 947 1747 
z
" transform="scale(0.015625)"/>
       <path id="DejaVuSans-20" transform="scale(0.015625)"/>
       <path id="DejaVuSans-73" d="M 2834 3397 
L 2834 2853 
Q 2591 2978 2328 3040 
Q 2066 3103 1784 3103 
Q 1356 3103 1142 2972 
Q 928 2841 928 2578 
Q 928 2378 1081 2264 
Q 1234 2150 1697 2047 
L 1894 2003 
Q 2506 1872 2764 1633 
Q 3022 1394 3022 966 
Q 3022 478 2636 193 
Q 2250 -91 1575 -91 
Q 1294 -91 989 -36 
Q 684 19 347 128 
L 347 722 
Q 666 556 975 473 
Q 1284 391 1588 391 
Q 1994 391 2212 530 
Q 2431 669 2431 922 
Q 2431 1156 2273 1281 
Q 2116 1406 1581 1522 
L 1381 1569 
Q 847 1681 609 1914 
Q 372 2147 372 2553 
Q 372 3047 722 3315 
Q 1072 3584 1716 3584 
Q 2034 3584 2315 3537 
Q 2597 3491 2834 3397 
z
" transform="scale(0.015625)"/>
       <path id="DejaVuSans-6e" d="M 3513 2113 
L 3513 0 
L 2938 0 
L 2938 2094 
Q 2938 2591 2744 2837 
Q 2550 3084 2163 3084 
Q 1697 3084 1428 2787 
Q 1159 2491 1159 1978 
L 1159 0 
L 581 0 
L 581 3500 
L 1159 3500 
L 1159 2956 
Q 1366 3272 1645 3428 
Q 1925 3584 2291 3584 
Q 2894 3584 3203 3211 
Q 3513 2838 3513 2113 
z
" transform="scale(0.015625)"/>
       <path id="DejaVuSans-72" d="M 2631 2963 
Q 2534 3019 2420 3045 
Q 2306 3072 2169 3072 
Q 1681 3072 1420 2755 
Q 1159 2438 1159 1844 
L 1159 0 
L 581 0 
L 581 3500 
L 1159 3500 
L 1159 2956 
Q 1341 3275 1631 3429 
Q 1922 3584 2338 3584 
Q 2397 3584 2469 3576 
Q 2541 3569 2628 3553 
L 2631 2963 
z
" transform="scale(0.015625)"/>
      </defs>
      <use xlink:href="#DejaVuSans-53"/>
      <use xlink:href="#DejaVuSans-61" transform="translate(63.476562 0)"/>
      <use xlink:href="#DejaVuSans-6c" transform="translate(124.755859 0)"/>
      <use xlink:href="#DejaVuSans-69" transform="translate(152.539062 0)"/>
      <use xlink:href="#DejaVuSans-64" transform="translate(180.322266 0)"/>
      <use xlink:href="#DejaVuSans-61" transform="translate(243.798828 0)"/>
      <use xlink:href="#DejaVuSans-20" transform="translate(305.078125 0)"/>
      <use xlink:href="#DejaVuSans-64" transform="translate(336.865234 0)"/>
      <use xlink:href="#DejaVuSans-65" transform="translate(400.341797 0)"/>
      <use xlink:href="#DejaVuSans-6c" transform="translate(461.865234 0)"/>
      <use xlink:href="#DejaVuSans-20" transform="translate(489.648438 0)"/>
      <use xlink:href="#DejaVuSans-73" transform="translate(521.435547 0)"/>
      <use xlink:href="#DejaVuSans-65" transform="translate(573.535156 0)"/>
      <use xlink:href="#DejaVuSans-6e" transform="translate(635.058594 0)"/>
      <use xlink:href="#DejaVuSans-73" transform="translate(698.4375 0)"/>
      <use xlink:href="#DejaVuSans-6f" transform="translate(750.537109 0)"/>
      <use xlink:href="#DejaVuSans-72" transform="translate(811.71875 0)"/>
     </g>
    </g>
   </g>
   <g id="line2d_4">
    <path d="M 56.467188 54.702458 
L 417.347187 54.702458 
" clip-path="url(#p100e17424d)" style="fill: none; stroke-dasharray: 5.55,2.4; stroke-dashoffset: 0; stroke: #808080; stroke-width: 1.5"/>
   </g>
   <g id="line2d_5">
    <path d="M 56.467188 46.606375 
L 417.347187 46.606375 
" clip-path="url(#p100e17424d)" style="fill: none; stroke-dasharray: 1,1.65; stroke-dashoffset: 0; stroke: #ff0000"/>
   </g>
   <g id="line2d_6">
    <path d="M 56.467188 62.798542 
L 417.347187 62.798542 
" clip-path="url(#p100e17424d)" style="fill: none; stroke-dasharray: 1,1.65; stroke-dashoffset: 0; stroke: #ff0000"/>
   </g>
   <g id="line2d_7">
    <path d="M 89.27446 216.624125 
L 92.722672 205.666641 
L 96.170884 195.450667 
L 99.619096 185.926023 
L 103.067308 177.045926 
L 106.515519 168.766759 
L 109.963731 161.047855 
L 113.411943 153.851302 
L 116.860155 147.14175 
L 120.308367 140.886243 
L 123.756579 135.054056 
L 127.204791 129.616542 
L 130.653002 124.546993 
L 134.593816 119.171927 
L 138.534629 114.210513 
L 142.475443 109.630918 
L 146.416257 105.403757 
L 150.35707 101.501908 
L 154.297884 97.900336 
L 158.238697 94.575932 
L 162.672112 91.140786 
L 167.105528 88.001583 
L 171.538943 85.132825 
L 175.972358 82.511214 
L 180.898375 79.862342 
L 185.824392 77.465784 
L 191.243011 75.092377 
L 196.661629 72.966433 
L 202.57285 70.899205 
L 208.48407 69.065958 
L 214.887892 67.313341 
L 221.784316 65.664297 
L 229.173341 64.135983 
L 237.054968 62.739891 
L 245.429197 61.482203 
L 254.788629 60.307964 
L 265.133264 59.245238 
L 276.463103 58.311019 
L 289.270747 57.48412 
L 304.048798 56.762546 
L 321.289857 56.153669 
L 341.979129 55.655571 
L 368.087018 55.263167 
L 402.569137 54.980703 
L 425.547187 54.876899 
L 425.547187 54.876899 
" clip-path="url(#p100e17424d)" style="fill: none; stroke: #000000; stroke-width: 1.5; stroke-linecap: square"/>
   </g>
   <g id="line2d_8">
    <path d="M 89.27446 216.624125 
L 89.27446 22.318125 
" clip-path="url(#p100e17424d)" style="fill: none; stroke-dasharray: 5.55,2.4; stroke-dashoffset: 0; stroke: #808080; stroke-width: 1.5"/>
   </g>
   <g id="LineCollection_1">
    <path d="M 335.329006 54.702458 
L 335.329006 30.414208 
" clip-path="url(#p100e17424d)" style="fill: none; stroke: #000000"/>
   </g>
   <g id="LineCollection_2">
    <path d="M 56.467188 114.270111 
L 138.485369 114.270111 
" clip-path="url(#p100e17424d)" style="fill: none; stroke-dasharray: 5.55,2.4; stroke-dashoffset: 0; stroke: #808080; stroke-width: 1.5"/>
   </g>
   <g id="LineCollection_3">
    <path d="M 138.485369 135.319927 
L 138.485369 114.270111 
" clip-path="url(#p100e17424d)" style="fill: none; stroke: #000000"/>
   </g>
   <g id="patch_3">
    <path d="M 56.467188 216.624125 
L 56.467188 22.318125 
" style="fill: none; stroke: #000000; stroke-width: 0.8; stroke-linejoin: miter; stroke-linecap: square"/>
   </g>
   <g id="patch_4">
    <path d="M 56.467188 216.624125 
L 417.347188 216.624125 
" style="fill: none; stroke: #000000; stroke-width: 0.8; stroke-linejoin: miter; stroke-linecap: square"/>
   </g>
   <g id="patch_5">
    <path d="M 332.209826 35.271858 
Q 212.301043 35.271858 92.39226 35.271858 
" style="fill: none; stroke: #000000; stroke-linecap: round"/>
    <path d="M 328.209826 33.271858 
L 332.209826 35.271858 
L 328.209826 37.271858 
" style="fill: none; stroke: #000000; stroke-linecap: round"/>
    <path d="M 96.39226 37.271858 
L 92.39226 35.271858 
L 96.39226 33.271858 
" style="fill: none; stroke: #000000; stroke-linecap: round"/>
   </g>
   <g id="text_5">
    <!-- $T_r$ -->
    <g transform="translate(212.301733 33.192171) scale(0.1 -0.1)">
     <defs>
      <path id="DejaVuSans-Oblique-54" d="M 378 4666 
L 4325 4666 
L 4225 4134 
L 2559 4134 
L 1759 0 
L 1125 0 
L 1925 4134 
L 275 4134 
L 378 4666 
z
" transform="scale(0.015625)"/>
      <path id="DejaVuSans-Oblique-72" d="M 2853 2969 
Q 2766 3016 2653 3041 
Q 2541 3066 2413 3066 
Q 1953 3066 1609 2717 
Q 1266 2369 1153 1784 
L 800 0 
L 225 0 
L 909 3500 
L 1484 3500 
L 1375 2956 
Q 1603 3259 1920 3421 
Q 2238 3584 2597 3584 
Q 2691 3584 2781 3573 
Q 2872 3563 2963 3538 
L 2853 2969 
z
" transform="scale(0.015625)"/>
     </defs>
     <use xlink:href="#DejaVuSans-Oblique-54" transform="translate(0 0.09375)"/>
     <use xlink:href="#DejaVuSans-Oblique-72" transform="translate(61.083984 -16.3125) scale(0.7)"/>
    </g>
   </g>
   <g id="patch_6">
    <path d="M 135.369944 130.462277 
Q 113.882605 130.462277 92.395265 130.462277 
" style="fill: none; stroke: #000000; stroke-linecap: round"/>
    <path d="M 131.369944 128.462277 
L 135.369944 130.462277 
L 131.369944 132.462277 
" style="fill: none; stroke: #000000; stroke-linecap: round"/>
    <path d="M 96.395265 132.462277 
L 92.395265 130.462277 
L 96.395265 128.462277 
" style="fill: none; stroke: #000000; stroke-linecap: round"/>
   </g>
   <g id="text_6">
    <!-- $\tau$ -->
    <g transform="translate(113.879915 138.060715) scale(0.1 -0.1)">
     <defs>
      <path id="DejaVuSans-Oblique-3c4" d="M 2103 638 
Q 2188 488 2525 488 
L 2800 488 
L 2706 0 
L 2363 0 
Q 1800 0 1600 300 
Q 1403 606 1534 1269 
L 1856 2925 
L 541 2925 
L 653 3500 
L 3881 3500 
L 3769 2925 
L 2444 2925 
L 2113 1234 
Q 2025 781 2103 638 
z
" transform="scale(0.015625)"/>
     </defs>
     <use xlink:href="#DejaVuSans-Oblique-3c4" transform="translate(0 0.3125)"/>
    </g>
   </g>
   <g id="text_7">
    <!-- Tiempo de subida (Rise Time) -->
    <g transform="translate(147.7125 16.318125) scale(0.12 -0.12)">
     <defs>
      <path id="DejaVuSans-75" d="M 544 1381 
L 544 3500 
L 1119 3500 
L 1119 1403 
Q 1119 906 1312 657 
Q 1506 409 1894 409 
Q 2359 409 2629 706 
Q 2900 1003 2900 1516 
L 2900 3500 
L 3475 3500 
L 3475 0 
L 2900 0 
L 2900 538 
Q 2691 219 2414 64 
Q 2138 -91 1772 -91 
Q 1169 -91 856 284 
Q 544 659 544 1381 
z
M 1991 3584 
L 1991 3584 
z
" transform="scale(0.015625)"/>
      <path id="DejaVuSans-62" d="M 3116 1747 
Q 3116 2381 2855 2742 
Q 2594 3103 2138 3103 
Q 1681 3103 1420 2742 
Q 1159 2381 1159 1747 
Q 1159 1113 1420 752 
Q 1681 391 2138 391 
Q 2594 391 2855 752 
Q 3116 1113 3116 1747 
z
M 1159 2969 
Q 1341 3281 1617 3432 
Q 1894 3584 2278 3584 
Q 2916 3584 3314 3078 
Q 3713 2572 3713 1747 
Q 3713 922 3314 415 
Q 2916 -91 2278 -91 
Q 1894 -91 1617 61 
Q 1341 213 1159 525 
L 1159 0 
L 581 0 
L 581 4863 
L 1159 4863 
L 1159 2969 
z
" transform="scale(0.015625)"/>
      <path id="DejaVuSans-28" d="M 1984 4856 
Q 1566 4138 1362 3434 
Q 1159 2731 1159 2009 
Q 1159 1288 1364 580 
Q 1569 -128 1984 -844 
L 1484 -844 
Q 1016 -109 783 600 
Q 550 1309 550 2009 
Q 550 2706 781 3412 
Q 1013 4119 1484 4856 
L 1984 4856 
z
" transform="scale(0.015625)"/>
      <path id="DejaVuSans-52" d="M 2841 2188 
Q 3044 2119 3236 1894 
Q 3428 1669 3622 1275 
L 4263 0 
L 3584 0 
L 2988 1197 
Q 2756 1666 2539 1819 
Q 2322 1972 1947 1972 
L 1259 1972 
L 1259 0 
L 628 0 
L 628 4666 
L 2053 4666 
Q 2853 4666 3247 4331 
Q 3641 3997 3641 3322 
Q 3641 2881 3436 2590 
Q 3231 2300 2841 2188 
z
M 1259 4147 
L 1259 2491 
L 2053 2491 
Q 2509 2491 2742 2702 
Q 2975 2913 2975 3322 
Q 2975 3731 2742 3939 
Q 2509 4147 2053 4147 
L 1259 4147 
z
" transform="scale(0.015625)"/>
      <path id="DejaVuSans-29" d="M 513 4856 
L 1013 4856 
Q 1481 4119 1714 3412 
Q 1947 2706 1947 2009 
Q 1947 1309 1714 600 
Q 1481 -109 1013 -844 
L 513 -844 
Q 928 -128 1133 580 
Q 1338 1288 1338 2009 
Q 1338 2731 1133 3434 
Q 928 4138 513 4856 
z
" transform="scale(0.015625)"/>
     </defs>
     <use xlink:href="#DejaVuSans-54"/>
     <use xlink:href="#DejaVuSans-69" transform="translate(57.958984 0)"/>
     <use xlink:href="#DejaVuSans-65" transform="translate(85.742188 0)"/>
     <use xlink:href="#DejaVuSans-6d" transform="translate(147.265625 0)"/>
     <use xlink:href="#DejaVuSans-70" transform="translate(244.677734 0)"/>
     <use xlink:href="#DejaVuSans-6f" transform="translate(308.154297 0)"/>
     <use xlink:href="#DejaVuSans-20" transform="translate(369.335938 0)"/>
     <use xlink:href="#DejaVuSans-64" transform="translate(401.123047 0)"/>
     <use xlink:href="#DejaVuSans-65" transform="translate(464.599609 0)"/>
     <use xlink:href="#DejaVuSans-20" transform="translate(526.123047 0)"/>
     <use xlink:href="#DejaVuSans-73" transform="translate(557.910156 0)"/>
     <use xlink:href="#DejaVuSans-75" transform="translate(610.009766 0)"/>
     <use xlink:href="#DejaVuSans-62" transform="translate(673.388672 0)"/>
     <use xlink:href="#DejaVuSans-69" transform="translate(736.865234 0)"/>
     <use xlink:href="#DejaVuSans-64" transform="translate(764.648438 0)"/>
     <use xlink:href="#DejaVuSans-61" transform="translate(828.125 0)"/>
     <use xlink:href="#DejaVuSans-20" transform="translate(889.404297 0)"/>
     <use xlink:href="#DejaVuSans-28" transform="translate(921.191406 0)"/>
     <use xlink:href="#DejaVuSans-52" transform="translate(960.205078 0)"/>
     <use xlink:href="#DejaVuSans-69" transform="translate(1029.6875 0)"/>
     <use xlink:href="#DejaVuSans-73" transform="translate(1057.470703 0)"/>
     <use xlink:href="#DejaVuSans-65" transform="translate(1109.570312 0)"/>
     <use xlink:href="#DejaVuSans-20" transform="translate(1171.09375 0)"/>
     <use xlink:href="#DejaVuSans-54" transform="translate(1202.880859 0)"/>
     <use xlink:href="#DejaVuSans-69" transform="translate(1260.839844 0)"/>
     <use xlink:href="#DejaVuSans-6d" transform="translate(1288.623047 0)"/>
     <use xlink:href="#DejaVuSans-65" transform="translate(1386.035156 0)"/>
     <use xlink:href="#DejaVuSans-29" transform="translate(1447.558594 0)"/>
    </g>
   </g>
  </g>
  <g id="axes_2">
   <g id="patch_7">
    <path d="M 56.467188 455.750125 
L 417.347187 455.750125 
L 417.347187 261.444125 
L 56.467188 261.444125 
z
" style="fill: #ffffff"/>
   </g>
   <g id="matplotlib.axis_3">
    <g id="xtick_2">
     <g id="line2d_9">
      <g>
       <use xlink:href="#m39cc285a33" x="138.485369" y="455.750125" style="stroke: #000000; stroke-width: 0.8"/>
      </g>
     </g>
     <g id="text_8">
      <!-- $T_{off}$ -->
      <g transform="translate(130.685369 470.348563) scale(0.1 -0.1)">
       <defs>
        <path id="DejaVuSans-Oblique-6f" d="M 1625 -91 
Q 1009 -91 651 289 
Q 294 669 294 1325 
Q 294 1706 417 2101 
Q 541 2497 738 2766 
Q 1047 3184 1428 3384 
Q 1809 3584 2291 3584 
Q 2888 3584 3255 3212 
Q 3622 2841 3622 2241 
Q 3622 1825 3500 1412 
Q 3378 1000 3181 728 
Q 2875 309 2494 109 
Q 2113 -91 1625 -91 
z
M 891 1344 
Q 891 869 1089 633 
Q 1288 397 1691 397 
Q 2269 397 2648 901 
Q 3028 1406 3028 2181 
Q 3028 2634 2825 2865 
Q 2622 3097 2228 3097 
Q 1903 3097 1650 2945 
Q 1397 2794 1197 2484 
Q 1050 2253 970 1956 
Q 891 1659 891 1344 
z
" transform="scale(0.015625)"/>
        <path id="DejaVuSans-Oblique-66" d="M 3059 4863 
L 2969 4384 
L 2419 4384 
Q 2106 4384 1964 4261 
Q 1822 4138 1753 3809 
L 1691 3500 
L 2638 3500 
L 2553 3053 
L 1606 3053 
L 1013 0 
L 434 0 
L 1031 3053 
L 481 3053 
L 563 3500 
L 1113 3500 
L 1159 3744 
Q 1278 4363 1576 4613 
Q 1875 4863 2516 4863 
L 3059 4863 
z
" transform="scale(0.015625)"/>
       </defs>
       <use xlink:href="#DejaVuSans-Oblique-54" transform="translate(0 0.09375)"/>
       <use xlink:href="#DejaVuSans-Oblique-6f" transform="translate(61.083984 -16.3125) scale(0.7)"/>
       <use xlink:href="#DejaVuSans-Oblique-66" transform="translate(103.911133 -16.3125) scale(0.7)"/>
       <use xlink:href="#DejaVuSans-Oblique-66" transform="translate(128.554688 -16.3125) scale(0.7)"/>
      </g>
     </g>
    </g>
    <g id="text_9">
     <!-- Tiempo -->
     <g transform="translate(218.44 484.026688) scale(0.1 -0.1)">
      <use xlink:href="#DejaVuSans-54"/>
      <use xlink:href="#DejaVuSans-69" transform="translate(57.958984 0)"/>
      <use xlink:href="#DejaVuSans-65" transform="translate(85.742188 0)"/>
      <use xlink:href="#DejaVuSans-6d" transform="translate(147.265625 0)"/>
      <use xlink:href="#DejaVuSans-70" transform="translate(244.677734 0)"/>
      <use xlink:href="#DejaVuSans-6f" transform="translate(308.154297 0)"/>
     </g>
    </g>
   </g>
   <g id="matplotlib.axis_4">
    <g id="text_10">
     <!-- Salida del sensor -->
     <g transform="translate(50.3875 401.239313) rotate(-90) scale(0.1 -0.1)">
      <use xlink:href="#DejaVuSans-53"/>
      <use xlink:href="#DejaVuSans-61" transform="translate(63.476562 0)"/>
      <use xlink:href="#DejaVuSans-6c" transform="translate(124.755859 0)"/>
      <use xlink:href="#DejaVuSans-69" transform="translate(152.539062 0)"/>
      <use xlink:href="#DejaVuSans-64" transform="translate(180.322266 0)"/>
      <use xlink:href="#DejaVuSans-61" transform="translate(243.798828 0)"/>
      <use xlink:href="#DejaVuSans-20" transform="translate(305.078125 0)"/>
      <use xlink:href="#DejaVuSans-64" transform="translate(336.865234 0)"/>
      <use xlink:href="#DejaVuSans-65" transform="translate(400.341797 0)"/>
      <use xlink:href="#DejaVuSans-6c" transform="translate(461.865234 0)"/>
      <use xlink:href="#DejaVuSans-20" transform="translate(489.648438 0)"/>
      <use xlink:href="#DejaVuSans-73" transform="translate(521.435547 0)"/>
      <use xlink:href="#DejaVuSans-65" transform="translate(573.535156 0)"/>
      <use xlink:href="#DejaVuSans-6e" transform="translate(635.058594 0)"/>
      <use xlink:href="#DejaVuSans-73" transform="translate(698.4375 0)"/>
      <use xlink:href="#DejaVuSans-6f" transform="translate(750.537109 0)"/>
      <use xlink:href="#DejaVuSans-72" transform="translate(811.71875 0)"/>
     </g>
    </g>
   </g>
   <g id="line2d_10">
    <path d="M 56.467188 293.883754 
L 101.983584 293.847797 
L 139.552673 293.986228 
L 155.808529 294.251981 
L 166.284525 294.628524 
L 174.231832 295.12318 
L 180.734174 295.745519 
L 186.152793 296.483586 
L 190.848929 297.344568 
L 194.822583 298.281829 
L 198.434995 299.341563 
L 202.047408 300.642564 
L 205.298579 302.060304 
L 208.188509 303.550931 
L 211.078439 305.29135 
L 213.968369 307.315712 
L 216.497057 309.348184 
L 219.025746 311.650167 
L 221.554435 314.245976 
L 224.083123 317.158662 
L 226.611812 320.40881 
L 229.140501 324.013126 
L 231.66919 327.98285 
L 234.559119 332.972009 
L 237.449049 338.435524 
L 240.700221 345.116419 
L 244.312633 353.124371 
L 248.647528 363.358228 
L 263.81966 399.870677 
L 267.432072 407.633561 
L 270.683244 414.057027 
L 273.573173 419.274606 
L 276.463103 424.011611 
L 278.991792 427.76205 
L 281.520481 431.153047 
L 284.049169 434.199303 
L 286.577858 436.920024 
L 289.106547 439.337424 
L 291.635236 441.475438 
L 294.525165 443.608324 
L 297.415095 445.444763 
L 300.305025 447.019633 
L 303.556197 448.519215 
L 306.807368 449.771276 
L 310.41978 450.917774 
L 314.393434 451.932869 
L 318.728329 452.803214 
L 323.785706 453.574558 
L 329.565566 454.214504 
L 336.429149 454.736265 
L 344.737698 455.137652 
L 355.936176 455.440087 
L 372.192032 455.634897 
L 401.813814 455.731177 
L 417.347188 455.742774 
L 417.347188 455.742774 
" clip-path="url(#p58baaa8efb)" style="fill: none; stroke: #000000; stroke-width: 1.5; stroke-linecap: square"/>
   </g>
   <g id="LineCollection_4">
    <path d="M 335.329006 451.702083 
L 335.329006 269.540208 
" clip-path="url(#p58baaa8efb)" style="fill: none; stroke: #000000"/>
   </g>
   <g id="line2d_11">
    <path d="M 138.485369 455.750125 
L 138.485369 261.444125 
" clip-path="url(#p58baaa8efb)" style="fill: none; stroke-dasharray: 5.55,2.4; stroke-dashoffset: 0; stroke: #808080; stroke-width: 1.5"/>
   </g>
   <g id="patch_8">
    <path d="M 56.467188 455.750125 
L 56.467188 261.444125 
" style="fill: none; stroke: #000000; stroke-width: 0.8; stroke-linejoin: miter; stroke-linecap: square"/>
   </g>
   <g id="patch_9">
    <path d="M 56.467188 455.750125 
L 417.347188 455.750125 
" style="fill: none; stroke: #000000; stroke-width: 0.8; stroke-linejoin: miter; stroke-linecap: square"/>
   </g>
   <g id="patch_10">
    <path d="M 332.213581 274.397858 
Q 236.908946 274.397858 141.604312 274.397858 
" style="fill: none; stroke: #000000; stroke-linecap: round"/>
    <path d="M 328.213581 272.397858 
L 332.213581 274.397858 
L 328.213581 276.397858 
" style="fill: none; stroke: #000000; stroke-linecap: round"/>
    <path d="M 145.604312 276.397858 
L 141.604312 274.397858 
L 145.604312 272.397858 
" style="fill: none; stroke: #000000; stroke-linecap: round"/>
   </g>
   <g id="text_11">
    <!-- $T_d$ -->
    <g transform="translate(212.301733 272.318171) scale(0.1 -0.1)">
     <defs>
      <path id="DejaVuSans-Oblique-64" d="M 2675 525 
Q 2444 222 2128 65 
Q 1813 -91 1428 -91 
Q 903 -91 598 267 
Q 294 625 294 1247 
Q 294 1766 478 2236 
Q 663 2706 1013 3078 
Q 1244 3325 1534 3454 
Q 1825 3584 2144 3584 
Q 2481 3584 2739 3421 
Q 2997 3259 3138 2956 
L 3513 4863 
L 4091 4863 
L 3144 0 
L 2566 0 
L 2675 525 
z
M 891 1350 
Q 891 897 1095 644 
Q 1300 391 1663 391 
Q 1931 391 2161 520 
Q 2391 650 2566 903 
Q 2750 1166 2856 1509 
Q 2963 1853 2963 2188 
Q 2963 2622 2758 2865 
Q 2553 3109 2194 3109 
Q 1922 3109 1687 2981 
Q 1453 2853 1288 2613 
Q 1106 2353 998 2009 
Q 891 1666 891 1350 
z
" transform="scale(0.015625)"/>
     </defs>
     <use xlink:href="#DejaVuSans-Oblique-54" transform="translate(0 0.09375)"/>
     <use xlink:href="#DejaVuSans-Oblique-64" transform="translate(61.083984 -16.3125) scale(0.7)"/>
    </g>
   </g>
   <g id="text_12">
    <!-- Tiempo de caída (Fall Time) -->
    <g transform="translate(154.213125 255.444125) scale(0.12 -0.12)">
     <defs>
      <path id="DejaVuSans-63" d="M 3122 3366 
L 3122 2828 
Q 2878 2963 2633 3030 
Q 2388 3097 2138 3097 
Q 1578 3097 1268 2742 
Q 959 2388 959 1747 
Q 959 1106 1268 751 
Q 1578 397 2138 397 
Q 2388 397 2633 464 
Q 2878 531 3122 666 
L 3122 134 
Q 2881 22 2623 -34 
Q 2366 -91 2075 -91 
Q 1284 -91 818 406 
Q 353 903 353 1747 
Q 353 2603 823 3093 
Q 1294 3584 2113 3584 
Q 2378 3584 2631 3529 
Q 2884 3475 3122 3366 
z
" transform="scale(0.015625)"/>
      <path id="DejaVuSans-ed" d="M 1322 5119 
L 1944 5119 
L 926 3944 
L 447 3944 
L 1322 5119 
z
M 603 3500 
L 1178 3500 
L 1178 0 
L 603 0 
L 603 3500 
z
M 891 3584 
L 891 3584 
z
" transform="scale(0.015625)"/>
      <path id="DejaVuSans-46" d="M 628 4666 
L 3309 4666 
L 3309 4134 
L 1259 4134 
L 1259 2759 
L 3109 2759 
L 3109 2228 
L 1259 2228 
L 1259 0 
L 628 0 
L 628 4666 
z
" transform="scale(0.015625)"/>
     </defs>
     <use xlink:href="#DejaVuSans-54"/>
     <use xlink:href="#DejaVuSans-69" transform="translate(57.958984 0)"/>
     <use xlink:href="#DejaVuSans-65" transform="translate(85.742188 0)"/>
     <use xlink:href="#DejaVuSans-6d" transform="translate(147.265625 0)"/>
     <use xlink:href="#DejaVuSans-70" transform="translate(244.677734 0)"/>
     <use xlink:href="#DejaVuSans-6f" transform="translate(308.154297 0)"/>
     <use xlink:href="#DejaVuSans-20" transform="translate(369.335938 0)"/>
     <use xlink:href="#DejaVuSans-64" transform="translate(401.123047 0)"/>
     <use xlink:href="#DejaVuSans-65" transform="translate(464.599609 0)"/>
     <use xlink:href="#DejaVuSans-20" transform="translate(526.123047 0)"/>
     <use xlink:href="#DejaVuSans-63" transform="translate(557.910156 0)"/>
     <use xlink:href="#DejaVuSans-61" transform="translate(612.890625 0)"/>
     <use xlink:href="#DejaVuSans-ed" transform="translate(674.169922 0)"/>
     <use xlink:href="#DejaVuSans-64" transform="translate(701.953125 0)"/>
     <use xlink:href="#DejaVuSans-61" transform="translate(765.429688 0)"/>
     <use xlink:href="#DejaVuSans-20" transform="translate(826.708984 0)"/>
     <use xlink:href="#DejaVuSans-28" transform="translate(858.496094 0)"/>
     <use xlink:href="#DejaVuSans-46" transform="translate(897.509766 0)"/>
     <use xlink:href="#DejaVuSans-61" transform="translate(945.904297 0)"/>
     <use xlink:href="#DejaVuSans-6c" transform="translate(1007.183594 0)"/>
     <use xlink:href="#DejaVuSans-6c" transform="translate(1034.966797 0)"/>
     <use xlink:href="#DejaVuSans-20" transform="translate(1062.75 0)"/>
     <use xlink:href="#DejaVuSans-54" transform="translate(1094.537109 0)"/>
     <use xlink:href="#DejaVuSans-69" transform="translate(1152.496094 0)"/>
     <use xlink:href="#DejaVuSans-6d" transform="translate(1180.279297 0)"/>
     <use xlink:href="#DejaVuSans-65" transform="translate(1277.691406 0)"/>
     <use xlink:href="#DejaVuSans-29" transform="translate(1339.214844 0)"/>
    </g>
   </g>
  </g>
 </g>
 <defs>
  <clipPath id="p100e17424d">
   <rect x="56.467188" y="22.318125" width="360.88" height="194.306"/>
  </clipPath>
  <clipPath id="p58baaa8efb">
   <rect x="56.467188" y="261.444125" width="360.88" height="194.306"/>
  </clipPath>
 </defs>
</svg>
