<?xml version="1.0" encoding="utf-8" standalone="no"?>
<!DOCTYPE svg PUBLIC "-//W3C//DTD SVG 1.1//EN"
  "http://www.w3.org/Graphics/SVG/1.1/DTD/svg11.dtd">
<svg xmlns:xlink="http://www.w3.org/1999/xlink" width="368.39952pt" height="322.67452pt" viewBox="0 0 368.39952 322.67452" xmlns="http://www.w3.org/2000/svg" version="1.1">
 <metadata>
  <rdf:RDF xmlns:dc="http://purl.org/dc/elements/1.1/" xmlns:cc="http://creativecommons.org/ns#" xmlns:rdf="http://www.w3.org/1999/02/22-rdf-syntax-ns#">
   <cc:Work>
    <dc:type rdf:resource="http://purl.org/dc/dcmitype/StillImage"/>
    <dc:date>2025-08-13T15:46:34.903294</dc:date>
    <dc:format>image/svg+xml</dc:format>
    <dc:creator>
     <cc:Agent>
      <dc:title>Matplotlib v3.10.1, https://matplotlib.org/</dc:title>
     </cc:Agent>
    </dc:creator>
   </cc:Work>
  </rdf:RDF>
 </metadata>
 <defs>
  <style type="text/css">*{stroke-linejoin: round; stroke-linecap: butt}</style>
 </defs>
 <g id="figure_1">
  <g id="patch_1">
   <path d="M 0 322.67452 
L 368.39952 322.67452 
L 368.39952 0 
L 0 0 
z
" style="fill: #ffffff"/>
  </g>
  <g id="axes_1">
   <g id="patch_2">
    <path d="M 341.51827 238.40589 
C 341.51827 197.541825 325.267769 158.309646 296.372512 129.414388 
C 267.477254 100.519131 228.245075 84.26863 187.38101 84.26863 
C 146.516945 84.26863 107.284766 100.519131 78.389508 129.414388 
C 49.494251 158.309646 33.24375 197.541825 33.24375 238.40589 
L 186.867219 238.40589 
C 186.867219 238.269676 186.921387 238.138903 187.017705 238.042585 
C 187.114023 237.946267 187.244796 237.892099 187.38101 237.892099 
C 187.517224 237.892099 187.647997 237.946267 187.744315 238.042585 
C 187.840633 238.138903 187.894801 238.269676 187.894801 238.40589 
z
" style="fill: #ffffff"/>
   </g>
   <g id="matplotlib.axis_1">
    <g id="xtick_1">
     <g id="line2d_1">
      <path d="M 187.894801 238.40589 
L 341.51827 238.40589 
" clip-path="url(#pcbe4958184)" style="fill: none; stroke: #b0b0b0; stroke-width: 0.8; stroke-linecap: square"/>
     </g>
     <g id="text_1">
      <!-- 0° -->
      <g transform="translate(349.83702 241.165265) scale(0.1 -0.1)">
       <defs>
        <path id="DejaVuSans-30" d="M 2034 4250 
Q 1547 4250 1301 3770 
Q 1056 3291 1056 2328 
Q 1056 1369 1301 889 
Q 1547 409 2034 409 
Q 2525 409 2770 889 
Q 3016 1369 3016 2328 
Q 3016 3291 2770 3770 
Q 2525 4250 2034 4250 
z
M 2034 4750 
Q 2819 4750 3233 4129 
Q 3647 3509 3647 2328 
Q 3647 1150 3233 529 
Q 2819 -91 2034 -91 
Q 1250 -91 836 529 
Q 422 1150 422 2328 
Q 422 3509 836 4129 
Q 1250 4750 2034 4750 
z
" transform="scale(0.015625)"/>
        <path id="DejaVuSans-b0" d="M 1600 4347 
Q 1350 4347 1178 4173 
Q 1006 4000 1006 3750 
Q 1006 3503 1178 3333 
Q 1350 3163 1600 3163 
Q 1850 3163 2022 3333 
Q 2194 3503 2194 3750 
Q 2194 3997 2020 4172 
Q 1847 4347 1600 4347 
z
M 1600 4750 
Q 1800 4750 1984 4673 
Q 2169 4597 2303 4453 
Q 2447 4313 2519 4134 
Q 2591 3956 2591 3750 
Q 2591 3338 2302 3052 
Q 2013 2766 1594 2766 
Q 1172 2766 890 3047 
Q 609 3328 609 3750 
Q 609 4169 896 4459 
Q 1184 4750 1600 4750 
z
" transform="scale(0.015625)"/>
       </defs>
       <use xlink:href="#DejaVuSans-30"/>
       <use xlink:href="#DejaVuSans-b0" transform="translate(63.623047 0)"/>
      </g>
     </g>
    </g>
    <g id="xtick_2">
     <g id="line2d_2">
      <path d="M 187.825966 238.148995 
L 320.867793 161.33726 
" clip-path="url(#pcbe4958184)" style="fill: none; stroke: #b0b0b0; stroke-width: 0.8; stroke-linecap: square"/>
     </g>
     <g id="text_2">
      <!-- 30° -->
      <g transform="translate(324.129648 157.096635) scale(0.1 -0.1)">
       <defs>
        <path id="DejaVuSans-33" d="M 2597 2516 
Q 3050 2419 3304 2112 
Q 3559 1806 3559 1356 
Q 3559 666 3084 287 
Q 2609 -91 1734 -91 
Q 1441 -91 1130 -33 
Q 819 25 488 141 
L 488 750 
Q 750 597 1062 519 
Q 1375 441 1716 441 
Q 2309 441 2620 675 
Q 2931 909 2931 1356 
Q 2931 1769 2642 2001 
Q 2353 2234 1838 2234 
L 1294 2234 
L 1294 2753 
L 1863 2753 
Q 2328 2753 2575 2939 
Q 2822 3125 2822 3475 
Q 2822 3834 2567 4026 
Q 2313 4219 1838 4219 
Q 1578 4219 1281 4162 
Q 984 4106 628 3988 
L 628 4550 
Q 988 4650 1302 4700 
Q 1616 4750 1894 4750 
Q 2613 4750 3031 4423 
Q 3450 4097 3450 3541 
Q 3450 3153 3228 2886 
Q 3006 2619 2597 2516 
z
" transform="scale(0.015625)"/>
       </defs>
       <use xlink:href="#DejaVuSans-33"/>
       <use xlink:href="#DejaVuSans-30" transform="translate(63.623047 0)"/>
       <use xlink:href="#DejaVuSans-b0" transform="translate(127.246094 0)"/>
      </g>
     </g>
    </g>
    <g id="xtick_3">
     <g id="line2d_3">
      <path d="M 187.637905 237.960934 
L 264.44964 104.919107 
" clip-path="url(#pcbe4958184)" style="fill: none; stroke: #b0b0b0; stroke-width: 0.8; stroke-linecap: square"/>
     </g>
     <g id="text_3">
      <!-- 60° -->
      <g transform="translate(262.58714 95.554127) scale(0.1 -0.1)">
       <defs>
        <path id="DejaVuSans-36" d="M 2113 2584 
Q 1688 2584 1439 2293 
Q 1191 2003 1191 1497 
Q 1191 994 1439 701 
Q 1688 409 2113 409 
Q 2538 409 2786 701 
Q 3034 994 3034 1497 
Q 3034 2003 2786 2293 
Q 2538 2584 2113 2584 
z
M 3366 4563 
L 3366 3988 
Q 3128 4100 2886 4159 
Q 2644 4219 2406 4219 
Q 1781 4219 1451 3797 
Q 1122 3375 1075 2522 
Q 1259 2794 1537 2939 
Q 1816 3084 2150 3084 
Q 2853 3084 3261 2657 
Q 3669 2231 3669 1497 
Q 3669 778 3244 343 
Q 2819 -91 2113 -91 
Q 1303 -91 875 529 
Q 447 1150 447 2328 
Q 447 3434 972 4092 
Q 1497 4750 2381 4750 
Q 2619 4750 2861 4703 
Q 3103 4656 3366 4563 
z
" transform="scale(0.015625)"/>
       </defs>
       <use xlink:href="#DejaVuSans-36"/>
       <use xlink:href="#DejaVuSans-30" transform="translate(63.623047 0)"/>
       <use xlink:href="#DejaVuSans-b0" transform="translate(127.246094 0)"/>
      </g>
     </g>
    </g>
    <g id="xtick_4">
     <g id="line2d_4">
      <path d="M 187.38101 237.892099 
L 187.38101 84.26863 
" clip-path="url(#pcbe4958184)" style="fill: none; stroke: #b0b0b0; stroke-width: 0.8; stroke-linecap: square"/>
     </g>
     <g id="text_4">
      <!-- 90° -->
      <g transform="translate(178.51851 73.028005) scale(0.1 -0.1)">
       <defs>
        <path id="DejaVuSans-39" d="M 703 97 
L 703 672 
Q 941 559 1184 500 
Q 1428 441 1663 441 
Q 2288 441 2617 861 
Q 2947 1281 2994 2138 
Q 2813 1869 2534 1725 
Q 2256 1581 1919 1581 
Q 1219 1581 811 2004 
Q 403 2428 403 3163 
Q 403 3881 828 4315 
Q 1253 4750 1959 4750 
Q 2769 4750 3195 4129 
Q 3622 3509 3622 2328 
Q 3622 1225 3098 567 
Q 2575 -91 1691 -91 
Q 1453 -91 1209 -44 
Q 966 3 703 97 
z
M 1959 2075 
Q 2384 2075 2632 2365 
Q 2881 2656 2881 3163 
Q 2881 3666 2632 3958 
Q 2384 4250 1959 4250 
Q 1534 4250 1286 3958 
Q 1038 3666 1038 3163 
Q 1038 2656 1286 2365 
Q 1534 2075 1959 2075 
z
" transform="scale(0.015625)"/>
       </defs>
       <use xlink:href="#DejaVuSans-39"/>
       <use xlink:href="#DejaVuSans-30" transform="translate(63.623047 0)"/>
       <use xlink:href="#DejaVuSans-b0" transform="translate(127.246094 0)"/>
      </g>
     </g>
    </g>
    <g id="xtick_5">
     <g id="line2d_5">
      <path d="M 187.124115 237.960934 
L 110.31238 104.919107 
" clip-path="url(#pcbe4958184)" style="fill: none; stroke: #b0b0b0; stroke-width: 0.8; stroke-linecap: square"/>
     </g>
     <g id="text_5">
      <!-- 120° -->
      <g transform="translate(91.26863 95.554127) scale(0.1 -0.1)">
       <defs>
        <path id="DejaVuSans-31" d="M 794 531 
L 1825 531 
L 1825 4091 
L 703 3866 
L 703 4441 
L 1819 4666 
L 2450 4666 
L 2450 531 
L 3481 531 
L 3481 0 
L 794 0 
L 794 531 
z
" transform="scale(0.015625)"/>
        <path id="DejaVuSans-32" d="M 1228 531 
L 3431 531 
L 3431 0 
L 469 0 
L 469 531 
Q 828 903 1448 1529 
Q 2069 2156 2228 2338 
Q 2531 2678 2651 2914 
Q 2772 3150 2772 3378 
Q 2772 3750 2511 3984 
Q 2250 4219 1831 4219 
Q 1534 4219 1204 4116 
Q 875 4013 500 3803 
L 500 4441 
Q 881 4594 1212 4672 
Q 1544 4750 1819 4750 
Q 2544 4750 2975 4387 
Q 3406 4025 3406 3419 
Q 3406 3131 3298 2873 
Q 3191 2616 2906 2266 
Q 2828 2175 2409 1742 
Q 1991 1309 1228 531 
z
" transform="scale(0.015625)"/>
       </defs>
       <use xlink:href="#DejaVuSans-31"/>
       <use xlink:href="#DejaVuSans-32" transform="translate(63.623047 0)"/>
       <use xlink:href="#DejaVuSans-30" transform="translate(127.246094 0)"/>
       <use xlink:href="#DejaVuSans-b0" transform="translate(190.869141 0)"/>
      </g>
     </g>
    </g>
    <g id="xtick_6">
     <g id="line2d_6">
      <path d="M 186.936054 238.148995 
L 53.894227 161.33726 
" clip-path="url(#pcbe4958184)" style="fill: none; stroke: #b0b0b0; stroke-width: 0.8; stroke-linecap: square"/>
     </g>
     <g id="text_6">
      <!-- 150° -->
      <g transform="translate(29.726122 157.096635) scale(0.1 -0.1)">
       <defs>
        <path id="DejaVuSans-35" d="M 691 4666 
L 3169 4666 
L 3169 4134 
L 1269 4134 
L 1269 2991 
Q 1406 3038 1543 3061 
Q 1681 3084 1819 3084 
Q 2600 3084 3056 2656 
Q 3513 2228 3513 1497 
Q 3513 744 3044 326 
Q 2575 -91 1722 -91 
Q 1428 -91 1123 -41 
Q 819 9 494 109 
L 494 744 
Q 775 591 1075 516 
Q 1375 441 1709 441 
Q 2250 441 2565 725 
Q 2881 1009 2881 1497 
Q 2881 1984 2565 2268 
Q 2250 2553 1709 2553 
Q 1456 2553 1204 2497 
Q 953 2441 691 2322 
L 691 4666 
z
" transform="scale(0.015625)"/>
       </defs>
       <use xlink:href="#DejaVuSans-31"/>
       <use xlink:href="#DejaVuSans-35" transform="translate(63.623047 0)"/>
       <use xlink:href="#DejaVuSans-30" transform="translate(127.246094 0)"/>
       <use xlink:href="#DejaVuSans-b0" transform="translate(190.869141 0)"/>
      </g>
     </g>
    </g>
    <g id="xtick_7">
     <g id="line2d_7">
      <path d="M 186.867219 238.40589 
L 33.24375 238.40589 
" clip-path="url(#pcbe4958184)" style="fill: none; stroke: #b0b0b0; stroke-width: 0.8; stroke-linecap: square"/>
     </g>
     <g id="text_7">
      <!-- 180° -->
      <g transform="translate(7.2 241.165265) scale(0.1 -0.1)">
       <defs>
        <path id="DejaVuSans-38" d="M 2034 2216 
Q 1584 2216 1326 1975 
Q 1069 1734 1069 1313 
Q 1069 891 1326 650 
Q 1584 409 2034 409 
Q 2484 409 2743 651 
Q 3003 894 3003 1313 
Q 3003 1734 2745 1975 
Q 2488 2216 2034 2216 
z
M 1403 2484 
Q 997 2584 770 2862 
Q 544 3141 544 3541 
Q 544 4100 942 4425 
Q 1341 4750 2034 4750 
Q 2731 4750 3128 4425 
Q 3525 4100 3525 3541 
Q 3525 3141 3298 2862 
Q 3072 2584 2669 2484 
Q 3125 2378 3379 2068 
Q 3634 1759 3634 1313 
Q 3634 634 3220 271 
Q 2806 -91 2034 -91 
Q 1263 -91 848 271 
Q 434 634 434 1313 
Q 434 1759 690 2068 
Q 947 2378 1403 2484 
z
M 1172 3481 
Q 1172 3119 1398 2916 
Q 1625 2713 2034 2713 
Q 2441 2713 2670 2916 
Q 2900 3119 2900 3481 
Q 2900 3844 2670 4047 
Q 2441 4250 2034 4250 
Q 1625 4250 1398 4047 
Q 1172 3844 1172 3481 
z
" transform="scale(0.015625)"/>
       </defs>
       <use xlink:href="#DejaVuSans-31"/>
       <use xlink:href="#DejaVuSans-38" transform="translate(63.623047 0)"/>
       <use xlink:href="#DejaVuSans-30" transform="translate(127.246094 0)"/>
       <use xlink:href="#DejaVuSans-b0" transform="translate(190.869141 0)"/>
      </g>
     </g>
    </g>
    <g id="xtick_8"/>
    <g id="xtick_9"/>
    <g id="xtick_10"/>
    <g id="xtick_11"/>
    <g id="xtick_12"/>
    <g id="xtick_13"/>
    <g id="xtick_14"/>
    <g id="xtick_15"/>
    <g id="xtick_16"/>
    <g id="xtick_17"/>
    <g id="xtick_18"/>
    <g id="xtick_19"/>
    <g id="xtick_20"/>
    <g id="xtick_21"/>
    <g id="xtick_22"/>
    <g id="xtick_23"/>
    <g id="xtick_24"/>
    <g id="xtick_25"/>
   </g>
   <g id="matplotlib.axis_2">
    <g id="ytick_1">
     <g id="line2d_8">
      <path d="M 207.932645 238.40589 
C 207.932645 232.957348 205.765911 227.726391 201.91321 223.87369 
C 198.060509 220.020989 192.829552 217.854255 187.38101 217.854255 
C 181.932468 217.854255 176.701511 220.020989 172.84881 223.87369 
C 168.996109 227.726391 166.829375 232.957348 166.829375 238.40589 
" clip-path="url(#pcbe4958184)" style="fill: none; stroke: #b0b0b0; stroke-width: 0.8; stroke-linecap: square"/>
     </g>
    </g>
    <g id="ytick_2">
     <g id="line2d_9">
      <path d="M 228.484279 238.40589 
C 228.484279 227.508806 224.150812 217.046891 216.44541 209.34149 
C 208.740009 201.636088 198.278094 197.302621 187.38101 197.302621 
C 176.483926 197.302621 166.022011 201.636088 158.31661 209.34149 
C 150.611208 217.046891 146.277741 227.508806 146.277741 238.40589 
" clip-path="url(#pcbe4958184)" style="fill: none; stroke: #b0b0b0; stroke-width: 0.8; stroke-linecap: square"/>
     </g>
    </g>
    <g id="ytick_3">
     <g id="line2d_10">
      <path d="M 249.035914 238.40589 
C 249.035914 222.060264 242.535714 206.367392 230.977611 194.809289 
C 219.419508 183.251186 203.726636 176.750986 187.38101 176.750986 
C 171.035384 176.750986 155.342512 183.251186 143.784409 194.809289 
C 132.226306 206.367392 125.726106 222.060264 125.726106 238.40589 
" clip-path="url(#pcbe4958184)" style="fill: none; stroke: #b0b0b0; stroke-width: 0.8; stroke-linecap: square"/>
     </g>
    </g>
    <g id="ytick_4">
     <g id="line2d_11">
      <path d="M 269.587549 238.40589 
C 269.587549 216.611722 260.920615 195.687893 245.509811 180.277089 
C 230.099007 164.866285 209.175178 156.199351 187.38101 156.199351 
C 165.586842 156.199351 144.663013 164.866285 129.252209 180.277089 
C 113.841405 195.687893 105.174471 216.611722 105.174471 238.40589 
" clip-path="url(#pcbe4958184)" style="fill: none; stroke: #b0b0b0; stroke-width: 0.8; stroke-linecap: square"/>
     </g>
    </g>
    <g id="ytick_5">
     <g id="line2d_12">
      <path d="M 290.139183 238.40589 
C 290.139183 211.16318 279.305516 185.008394 260.042011 165.744889 
C 240.778506 146.481384 214.62372 135.647717 187.38101 135.647717 
C 160.1383 135.647717 133.983514 146.481384 114.720009 165.744889 
C 95.456504 185.008394 84.622837 211.16318 84.622837 238.40589 
" clip-path="url(#pcbe4958184)" style="fill: none; stroke: #b0b0b0; stroke-width: 0.8; stroke-linecap: square"/>
     </g>
    </g>
    <g id="ytick_6">
     <g id="line2d_13">
      <path d="M 310.690818 238.40589 
C 310.690818 205.714638 297.690417 174.328894 274.574211 151.212689 
C 251.458006 128.096483 220.072262 115.096082 187.38101 115.096082 
C 154.689758 115.096082 123.304014 128.096483 100.187809 151.212689 
C 77.071603 174.328894 64.071202 205.714638 64.071202 238.40589 
" clip-path="url(#pcbe4958184)" style="fill: none; stroke: #b0b0b0; stroke-width: 0.8; stroke-linecap: square"/>
     </g>
    </g>
    <g id="ytick_7">
     <g id="line2d_14">
      <path d="M 331.242453 238.40589 
C 331.242453 200.266096 316.075318 163.649395 289.106412 136.680488 
C 262.137505 109.711582 225.520804 94.544447 187.38101 94.544447 
C 149.241216 94.544447 112.624515 109.711582 85.655608 136.680488 
C 58.686702 163.649395 43.519567 200.266096 43.519567 238.40589 
" clip-path="url(#pcbe4958184)" style="fill: none; stroke: #b0b0b0; stroke-width: 0.8; stroke-linecap: square"/>
     </g>
    </g>
    <g id="ytick_8"/>
    <g id="ytick_9"/>
    <g id="ytick_10"/>
    <g id="ytick_11"/>
    <g id="ytick_12"/>
    <g id="ytick_13"/>
    <g id="ytick_14"/>
    <g id="ytick_15"/>
    <g id="ytick_16"/>
    <g id="ytick_17"/>
    <g id="ytick_18"/>
    <g id="ytick_19"/>
    <g id="ytick_20"/>
    <g id="ytick_21"/>
    <g id="ytick_22"/>
    <g id="ytick_23"/>
    <g id="ytick_24"/>
    <g id="ytick_25"/>
    <g id="ytick_26"/>
    <g id="ytick_27"/>
    <g id="ytick_28"/>
    <g id="ytick_29"/>
    <g id="ytick_30"/>
   </g>
   <g id="LineCollection_1">
    <path d="M 187.38101 238.40589 
L 341.51827 238.40589 
" clip-path="url(#pcbe4958184)" style="fill: none; stroke: #d62728; stroke-width: 1.5"/>
    <path d="M 187.38101 238.40589 
L 312.080673 147.806282 
" clip-path="url(#pcbe4958184)" style="fill: none; stroke: #d62728; stroke-width: 1.5"/>
    <path d="M 187.38101 238.40589 
L 235.012043 91.812644 
" clip-path="url(#pcbe4958184)" style="fill: none; stroke: #d62728; stroke-width: 1.5"/>
    <path d="M 187.38101 238.40589 
L 139.749977 91.812644 
" clip-path="url(#pcbe4958184)" style="fill: none; stroke: #d62728; stroke-width: 1.5"/>
    <path d="M 187.38101 238.40589 
L 62.681347 147.806282 
" clip-path="url(#pcbe4958184)" style="fill: none; stroke: #d62728; stroke-width: 1.5"/>
    <path d="M 187.38101 238.40589 
L 33.24375 238.40589 
" clip-path="url(#pcbe4958184)" style="fill: none; stroke: #d62728; stroke-width: 1.5"/>
   </g>
   <g id="patch_3">
    <path d="M 341.51827 238.40589 
C 341.51827 197.541825 325.267769 158.309646 296.372512 129.414388 
C 267.477254 100.519131 228.245075 84.26863 187.38101 84.26863 
C 146.516945 84.26863 107.284766 100.519131 78.389508 129.414388 
C 49.494251 158.309646 33.24375 197.541825 33.24375 238.40589 
" style="fill: none; stroke: #000000; stroke-width: 0.8; stroke-linejoin: miter; stroke-linecap: square"/>
   </g>
   <g id="patch_4">
    <path d="M 187.894801 238.40589 
L 341.51827 238.40589 
" style="fill: none; stroke: #000000; stroke-width: 0.8; stroke-linejoin: miter; stroke-linecap: square"/>
   </g>
   <g id="patch_5">
    <path d="M 186.867219 238.40589 
L 33.24375 238.40589 
" style="fill: none; stroke: #000000; stroke-width: 0.8; stroke-linejoin: miter; stroke-linecap: square"/>
   </g>
   <g id="patch_6">
    <path d="M 187.894801 238.40589 
C 187.894801 238.269676 187.840633 238.138903 187.744315 238.042585 
C 187.647997 237.946267 187.517224 237.892099 187.38101 237.892099 
C 187.244796 237.892099 187.114023 237.946267 187.017705 238.042585 
C 186.921387 238.138903 186.867219 238.269676 186.867219 238.40589 
" style="fill: none; stroke: #000000; stroke-width: 0.8; stroke-linejoin: miter; stroke-linecap: square"/>
   </g>
   <g id="text_8">
    <g id="patch_7">
     <path d="M 281.635622 214.490931 
L 288.584059 214.490931 
Q 291.584059 214.490931 291.584059 211.490931 
L 291.584059 201.812806 
Q 291.584059 198.812806 288.584059 198.812806 
L 281.635622 198.812806 
Q 278.635622 198.812806 278.635622 201.812806 
L 278.635622 211.490931 
Q 278.635622 214.490931 281.635622 214.490931 
z
" style="fill: #ffcccc; stroke: #ff8080; stroke-linejoin: miter"/>
    </g>
    <!-- R -->
    <g transform="translate(281.635622 209.411243) scale(0.1 -0.1)">
     <defs>
      <path id="DejaVuSans-52" d="M 2841 2188 
Q 3044 2119 3236 1894 
Q 3428 1669 3622 1275 
L 4263 0 
L 3584 0 
L 2988 1197 
Q 2756 1666 2539 1819 
Q 2322 1972 1947 1972 
L 1259 1972 
L 1259 0 
L 628 0 
L 628 4666 
L 2053 4666 
Q 2853 4666 3247 4331 
Q 3641 3997 3641 3322 
Q 3641 2881 3436 2590 
Q 3231 2300 2841 2188 
z
M 1259 4147 
L 1259 2491 
L 2053 2491 
Q 2509 2491 2742 2702 
Q 2975 2913 2975 3322 
Q 2975 3731 2742 3939 
Q 2509 4147 2053 4147 
L 1259 4147 
z
" transform="scale(0.015625)"/>
     </defs>
     <use xlink:href="#DejaVuSans-52"/>
    </g>
   </g>
   <g id="text_9">
    <g id="patch_8">
     <path d="M 241.430749 163.111844 
L 254.130749 163.111844 
Q 257.130749 163.111844 257.130749 160.111844 
L 257.130749 150.433719 
Q 257.130749 147.433719 254.130749 147.433719 
L 241.430749 147.433719 
Q 238.430749 147.433719 238.430749 150.433719 
L 238.430749 160.111844 
Q 238.430749 163.111844 241.430749 163.111844 
z
" style="fill: #ffcccc; stroke: #ff8080; stroke-linejoin: miter"/>
    </g>
    <!-- FR -->
    <g transform="translate(241.430749 158.032156) scale(0.1 -0.1)">
     <defs>
      <path id="DejaVuSans-46" d="M 628 4666 
L 3309 4666 
L 3309 4134 
L 1259 4134 
L 1259 2759 
L 3109 2759 
L 3109 2228 
L 1259 2228 
L 1259 0 
L 628 0 
L 628 4666 
z
" transform="scale(0.015625)"/>
     </defs>
     <use xlink:href="#DejaVuSans-46"/>
     <use xlink:href="#DejaVuSans-52" transform="translate(57.519531 0)"/>
    </g>
   </g>
   <g id="text_10">
    <g id="patch_9">
     <path d="M 184.505229 143.486779 
L 190.256791 143.486779 
Q 193.256791 143.486779 193.256791 140.486779 
L 193.256791 130.808654 
Q 193.256791 127.808654 190.256791 127.808654 
L 184.505229 127.808654 
Q 181.505229 127.808654 181.505229 130.808654 
L 181.505229 140.486779 
Q 181.505229 143.486779 184.505229 143.486779 
z
" style="fill: #ffcccc; stroke: #ff8080; stroke-linejoin: miter"/>
    </g>
    <!-- F -->
    <g transform="translate(184.505229 138.407092) scale(0.1 -0.1)">
     <use xlink:href="#DejaVuSans-46"/>
    </g>
   </g>
   <g id="text_11">
    <g id="patch_10">
     <path d="M 121.319552 163.111844 
L 132.64299 163.111844 
Q 135.64299 163.111844 135.64299 160.111844 
L 135.64299 150.433719 
Q 135.64299 147.433719 132.64299 147.433719 
L 121.319552 147.433719 
Q 118.319552 147.433719 118.319552 150.433719 
L 118.319552 160.111844 
Q 118.319552 163.111844 121.319552 163.111844 
z
" style="fill: #ffcccc; stroke: #ff8080; stroke-linejoin: miter"/>
    </g>
    <!-- FL -->
    <g transform="translate(121.319552 158.032156) scale(0.1 -0.1)">
     <defs>
      <path id="DejaVuSans-4c" d="M 628 4666 
L 1259 4666 
L 1259 531 
L 3531 531 
L 3531 0 
L 628 0 
L 628 4666 
z
" transform="scale(0.015625)"/>
     </defs>
     <use xlink:href="#DejaVuSans-46"/>
     <use xlink:href="#DejaVuSans-4c" transform="translate(57.519531 0)"/>
    </g>
   </g>
   <g id="text_12">
    <g id="patch_11">
     <path d="M 86.866242 214.490931 
L 92.438117 214.490931 
Q 95.438117 214.490931 95.438117 211.490931 
L 95.438117 201.812806 
Q 95.438117 198.812806 92.438117 198.812806 
L 86.866242 198.812806 
Q 83.866242 198.812806 83.866242 201.812806 
L 83.866242 211.490931 
Q 83.866242 214.490931 86.866242 214.490931 
z
" style="fill: #ffcccc; stroke: #ff8080; stroke-linejoin: miter"/>
    </g>
    <!-- L -->
    <g transform="translate(86.866242 209.411243) scale(0.1 -0.1)">
     <use xlink:href="#DejaVuSans-4c"/>
    </g>
   </g>
  </g>
 </g>
 <defs>
  <clipPath id="pcbe4958184">
   <path d="M 341.51827 238.40589 
C 341.51827 197.541825 325.267769 158.309646 296.372512 129.414388 
C 267.477254 100.519131 228.245075 84.26863 187.38101 84.26863 
C 146.516945 84.26863 107.284766 100.519131 78.389508 129.414388 
C 49.494251 158.309646 33.24375 197.541825 33.24375 238.40589 
L 186.867219 238.40589 
C 186.867219 238.269676 186.921387 238.138903 187.017705 238.042585 
C 187.114023 237.946267 187.244796 237.892099 187.38101 237.892099 
C 187.517224 237.892099 187.647997 237.946267 187.744315 238.042585 
C 187.840633 238.138903 187.894801 238.269676 187.894801 238.40589 
z
"/>
  </clipPath>
 </defs>
</svg>
